<svg height="100pt" id="arm" version="2.0" viewBox="-0.5 -0.5 4 2" width="200pt" xmlns="http://www.w3.org/2000/svg" xmlns:xlink="http://www.w3.org/1999/xlink"><defs><marker id="arrowhead" markerHeight="3" markerUnits="strokeWidth" markerWidth="3" orient="auto" refX="3" refY="1.5"><polygon fill="#666666" id="arrowshape" points="0 0, 3 1.5, 0 3" stroke="#666666" stroke-width="0.05"></polygon></marker><marker id="inv-arrowhead" markerHeight="3" markerUnits="strokeWidth" markerWidth="3" orient="auto" refX="0" refY="1.5"><polygon fill="#666666" id="inv-arrowshape" points="3 0, 0 1.5, 3 3" stroke="#666666" stroke-width="0.05"></polygon></marker><g id="z-eq_figure_1"><g id="z-eq_patch_1"><path d="M 0 11.61375 L 8.28 11.61375 L 8.28 0 L 0 0 z" stroke-linecap="butt" stroke-linejoin="round" style="fill:none;"></path></g><g id="z-eq_text_1"><!-- $Z$ --><defs><path d="M 5.8125 0.78125 Q 5.8125 2.25 6.5 3.078125 L 61.53125 64.796875 L 46.78125 64.796875 Q 39.453125 64.796875 34.640625 63.0625 Q 29.828125 61.328125 26.671875 57.296875 Q 23.53125 53.265625 21.390625 46.296875 Q 21.1875 45.40625 20.40625 45.40625 L 19.484375 45.40625 Q 18.5 45.40625 18.5 46.6875 L 24.8125 67.390625 Q 25 68.3125 25.78125 68.3125 L 71.390625 68.3125 Q 72.21875 68.3125 72.21875 67.484375 Q 72.21875 66.015625 71.578125 65.375 L 16.796875 3.8125 L 31.984375 3.8125 Q 40.828125 3.8125 45.875 5.984375 Q 50.921875 8.15625 53.875 12.84375 Q 56.84375 17.53125 59.625 26.21875 Q 59.71875 26.5625 59.984375 26.828125 Q 60.25 27.09375 60.59375 27.09375 L 61.53125 27.09375 Q 62.5 27.09375 62.5 25.78125 L 54.59375 0.875 Q 54.15625 0 53.609375 0 L 6.6875 0 Q 5.8125 0 5.8125 0.78125 z" id="z-eq_Cmmi10-5a" stroke-linecap="butt" stroke-linejoin="round"></path></defs><g style="fill:#666666;" transform="translate(0 9.118125)scale(0.12 -0.12)"><use transform="translate(0 0.6875)" xlink:href="#z-eq_Cmmi10-5a"></use></g></g></g><g id="x-eq_figure_1"><g id="x-eq_patch_1"><path d="M 0 11.61375 L 9.96 11.61375 L 9.96 0 L 0 0 z" stroke-linecap="butt" stroke-linejoin="round" style="fill:none;"></path></g><g id="x-eq_text_1"><!-- $X$ --><defs><path d="M 3.609375 0 Q 2.59375 0 2.59375 1.3125 Q 2.640625 1.5625 2.8125 2.1875 Q 2.984375 2.828125 3.25 3.171875 Q 3.515625 3.515625 4 3.515625 Q 13.09375 3.515625 19.578125 10.296875 Q 19.671875 10.40625 19.796875 10.453125 Q 19.921875 10.5 19.921875 10.5 L 41.796875 34.078125 L 29.890625 62.796875 Q 28.859375 64.109375 26.5625 64.453125 Q 24.265625 64.796875 21.1875 64.796875 Q 20.21875 64.796875 20.21875 66.109375 Q 20.5625 67.390625 20.75 67.84375 Q 20.953125 68.3125 21.921875 68.3125 L 46.921875 68.3125 Q 47.90625 68.3125 47.90625 67 Q 47.859375 66.75 47.6875 66.109375 Q 47.515625 65.484375 47.234375 65.140625 Q 46.96875 64.796875 46.484375 64.796875 Q 44.625 64.796875 42.640625 64.1875 Q 40.671875 63.578125 39.890625 62.203125 L 48.484375 41.5 L 64.890625 59.078125 Q 65.046875 59.421875 65.578125 60.28125 Q 66.109375 61.140625 66.109375 61.921875 Q 66.109375 63.375 64.84375 64.078125 Q 63.578125 64.796875 61.8125 64.796875 Q 60.796875 64.796875 60.796875 66.109375 Q 61.140625 67.390625 61.328125 67.84375 Q 61.53125 68.3125 62.5 68.3125 L 84.1875 68.3125 Q 84.71875 68.3125 84.953125 67.921875 Q 85.203125 67.53125 85.203125 67 Q 85.15625 66.75 85 66.15625 Q 84.859375 65.578125 84.609375 65.1875 Q 84.375 64.796875 83.890625 64.796875 Q 79.25 64.796875 75.359375 63.109375 Q 71.484375 61.421875 68.21875 58.015625 Q 68.171875 57.953125 68.09375 57.921875 Q 68.015625 57.90625 67.921875 57.8125 L 49.8125 38.28125 L 63.484375 5.515625 Q 65.09375 3.515625 72.21875 3.515625 Q 73.1875 3.515625 73.1875 2.203125 Q 72.859375 0.875 72.625 0.4375 Q 72.40625 0 71.484375 0 L 46.484375 0 Q 45.515625 0 45.515625 1.3125 Q 45.5625 1.5625 45.703125 2.171875 Q 45.84375 2.78125 46.109375 3.140625 Q 46.390625 3.515625 46.78125 3.515625 Q 48.734375 3.515625 50.734375 4.125 Q 52.734375 4.734375 53.515625 6.109375 L 43.109375 31 L 22.90625 9.1875 Q 22.75 8.84375 22.21875 8 Q 21.6875 7.171875 21.6875 6.390625 Q 21.6875 4.9375 23.046875 4.21875 Q 24.421875 3.515625 25.984375 3.515625 Q 27 3.515625 27 2.203125 Q 26.65625 0.78125 26.453125 0.390625 Q 26.265625 0 25.296875 0 z" id="x-eq_Cmmi10-58" stroke-linecap="butt" stroke-linejoin="round"></path></defs><g style="fill:#666666;" transform="translate(0 9.118125)scale(0.12 -0.12)"><use transform="translate(0 0.6875)" xlink:href="#x-eq_Cmmi10-58"></use></g></g></g><g id="f-eq_figure_1"><g id="f-eq_patch_1"><path d="M 0 11.61375 L 5.88 11.61375 L 5.88 -0 L 0 -0 z" stroke-linecap="butt" stroke-linejoin="round" style="fill:none;"></path></g><g id="f-eq_text_1"><!-- $f$ --><defs><path d="M 9.71875 -16.5 Q 11.578125 -17.921875 14.203125 -17.921875 Q 17.78125 -17.921875 20.015625 -10.015625 Q 20.953125 -6.203125 25.09375 15.09375 L 29.6875 39.59375 L 21.09375 39.59375 Q 20.125 39.59375 20.125 40.921875 Q 20.515625 43.109375 21.390625 43.109375 L 30.328125 43.109375 L 31.5 49.609375 Q 32.078125 52.640625 32.5625 54.8125 Q 33.0625 56.984375 33.625 58.828125 Q 34.1875 60.6875 35.296875 62.984375 Q 37.015625 66.265625 39.921875 68.390625 Q 42.828125 70.515625 46.1875 70.515625 Q 48.390625 70.515625 50.46875 69.703125 Q 52.546875 68.890625 53.859375 67.28125 Q 55.171875 65.671875 55.171875 63.484375 Q 55.171875 60.9375 53.484375 59.046875 Q 51.8125 57.171875 49.421875 57.171875 Q 47.796875 57.171875 46.65625 58.171875 Q 45.515625 59.1875 45.515625 60.796875 Q 45.515625 62.984375 47 64.625 Q 48.484375 66.265625 50.6875 66.5 Q 48.828125 67.921875 46.09375 67.921875 Q 44.578125 67.921875 43.234375 66.5 Q 41.890625 65.09375 41.5 63.484375 Q 40.875 60.9375 38.71875 49.703125 L 37.5 43.109375 L 47.796875 43.109375 Q 48.78125 43.109375 48.78125 41.796875 Q 48.734375 41.546875 48.578125 40.9375 Q 48.4375 40.328125 48.171875 39.953125 Q 47.90625 39.59375 47.515625 39.59375 L 36.8125 39.59375 L 32.171875 15.1875 Q 31.296875 9.859375 30.140625 4.359375 Q 29 -1.125 26.921875 -6.90625 Q 24.859375 -12.703125 21.625 -16.609375 Q 18.40625 -20.515625 14.015625 -20.515625 Q 10.640625 -20.515625 7.984375 -18.578125 Q 5.328125 -16.65625 5.328125 -13.484375 Q 5.328125 -10.9375 6.953125 -9.046875 Q 8.59375 -7.171875 11.078125 -7.171875 Q 12.75 -7.171875 13.859375 -8.171875 Q 14.984375 -9.1875 14.984375 -10.796875 Q 14.984375 -12.9375 13.390625 -14.71875 Q 11.8125 -16.5 9.71875 -16.5 z" id="f-eq_Cmmi10-66" stroke-linecap="butt" stroke-linejoin="round"></path></defs><g style="fill:#666666;" transform="translate(0 9.09375)scale(0.12 -0.12)"><use transform="translate(0 0.484375)" xlink:href="#f-eq_Cmmi10-66"></use></g></g></g><g id="g-eq_figure_1"><g id="g-eq_patch_1"><path d="M 0 11.61375 L 5.76 11.61375 L 5.76 -0 L 0 -0 z" stroke-linecap="butt" stroke-linejoin="round" style="fill:none;"></path></g><g id="g-eq_text_1"><!-- $g$ --><defs><path d="M 1.421875 -14.3125 Q 1.421875 -11.859375 3.09375 -10.03125 Q 4.78125 -8.203125 7.171875 -8.203125 Q 8.796875 -8.203125 9.890625 -9.203125 Q 10.984375 -10.203125 10.984375 -11.8125 Q 10.984375 -13.625 9.953125 -15.0625 Q 8.9375 -16.5 7.328125 -17.09375 Q 10.015625 -17.921875 15.71875 -17.921875 Q 20.3125 -17.921875 24.125 -14.375 Q 27.9375 -10.84375 29.109375 -6.203125 L 31.984375 5.515625 Q 26.5625 0 20.703125 0 Q 16.40625 0 13.34375 2.1875 Q 10.296875 4.390625 8.6875 8.046875 Q 7.078125 11.71875 7.078125 15.828125 Q 7.078125 20.40625 8.953125 25.4375 Q 10.84375 30.46875 14.234375 34.765625 Q 17.625 39.0625 22.015625 41.625 Q 26.421875 44.1875 31.296875 44.1875 Q 34.234375 44.1875 36.578125 42.578125 Q 38.921875 40.96875 40.28125 38.28125 Q 41.265625 42.1875 44.578125 42.1875 Q 45.84375 42.1875 46.71875 41.421875 Q 47.609375 40.671875 47.609375 39.40625 Q 47.609375 39.109375 47.578125 38.953125 Q 47.5625 38.8125 47.515625 38.625 L 36.078125 -6.78125 Q 35.296875 -9.90625 33.203125 -12.5 Q 31.109375 -15.09375 28.265625 -16.828125 Q 25.4375 -18.5625 22.0625 -19.53125 Q 18.703125 -20.515625 15.578125 -20.515625 Q 9.859375 -20.515625 5.640625 -19.40625 Q 1.421875 -18.3125 1.421875 -14.3125 zM 20.90625 2.59375 Q 27.296875 2.59375 33.5 11.375 L 39.015625 33.203125 Q 38.328125 36.671875 36.28125 39.140625 Q 34.234375 41.609375 31.109375 41.609375 Q 27.78125 41.609375 24.828125 38.890625 Q 21.875 36.1875 19.921875 32.421875 Q 18.0625 28.8125 16.328125 22.046875 Q 14.59375 15.28125 14.59375 11.375 Q 14.59375 7.953125 16.15625 5.265625 Q 17.71875 2.59375 20.90625 2.59375 z" id="g-eq_Cmmi10-67" stroke-linecap="butt" stroke-linejoin="round"></path></defs><g style="fill:#666666;" transform="translate(0 9.09375)scale(0.12 -0.12)"><use transform="translate(0 0.8125)" xlink:href="#g-eq_Cmmi10-67"></use></g></g></g></defs><line fill="none" id="path-decode" marker-end="url(#arrowhead)" opacity="1" stroke="#666666" stroke-linecap="round" stroke-linejoin="round" stroke-width="0.05" x1="0.75" x2="2.067" y1="0.75" y2="0.75"></line><line fill="none" id="path-encode" marker-end="url(#arrowhead)" opacity="1" stroke="#666666" stroke-linecap="round" stroke-linejoin="round" stroke-width="0.05" x1="2.067" x2="0.75" y1="0.25" y2="0.25"></line><use id="z-eq" opacity="1" transform="scale(0.0357)" x="10" xlink:href="#z-eq_figure_1" y="8.5"></use><use id="x-eq" opacity="1" transform="scale(0.0357)" x="65.5" xlink:href="#x-eq_figure_1" y="8.5"></use><use id="f-eq" opacity="1" transform="scale(0.0357)" x="39.5" xlink:href="#f-eq_figure_1" y="-8.3"></use><use id="g-eq" opacity="1" transform="scale(0.0357)" x="39.5" xlink:href="#g-eq_figure_1" y="25.3"></use><rect fill="#666666" fill-opacity="0" height="0.7071" id="node-z" opacity="1" rx="0" stroke="#666666" stroke-width="0.05" transform="rotate(45)" width="0.7071" x="0.3535533905932738" y="-0.35355339059327373"></rect><!--made by Laurent Dinh--><rect fill="#666666" fill-opacity="0" height="1" id="node-x" opacity="1" rx="0.5" stroke="#666666" stroke-width="0.05" transform="rotate(45)" width="1" x="1.6213203435596426" y="-1.914213562373095"></rect></svg>