<svg height="275.0pt" id="arm" version="2.0" viewBox="-1 -2.5 9 5.5" width="450pt" xmlns="http://www.w3.org/2000/svg" xmlns:xlink="http://www.w3.org/1999/xlink"><defs><marker id="arrowhead" markerHeight="3" markerUnits="strokeWidth" markerWidth="3" orient="auto" refX="3" refY="1.5"><polygon fill="#666666" id="arrowshape" points="0 0, 3 1.5, 0 3" stroke="#666666" stroke-width="0.05"></polygon></marker><g id="x-0-eq_figure_1"><g id="x-0-eq_patch_1"><path d="M 0 11.61375 L 15 11.61375 L 15 0 L 0 0 z" stroke-linecap="butt" stroke-linejoin="round" style="fill:none;"></path></g><g id="x-0-eq_text_1"><!-- $X_1$ --><defs><path d="M 3.609375 0 Q 2.59375 0 2.59375 1.3125 Q 2.640625 1.5625 2.8125 2.1875 Q 2.984375 2.828125 3.25 3.171875 Q 3.515625 3.515625 4 3.515625 Q 13.09375 3.515625 19.578125 10.296875 Q 19.671875 10.40625 19.796875 10.453125 Q 19.921875 10.5 19.921875 10.5 L 41.796875 34.078125 L 29.890625 62.796875 Q 28.859375 64.109375 26.5625 64.453125 Q 24.265625 64.796875 21.1875 64.796875 Q 20.21875 64.796875 20.21875 66.109375 Q 20.5625 67.390625 20.75 67.84375 Q 20.953125 68.3125 21.921875 68.3125 L 46.921875 68.3125 Q 47.90625 68.3125 47.90625 67 Q 47.859375 66.75 47.6875 66.109375 Q 47.515625 65.484375 47.234375 65.140625 Q 46.96875 64.796875 46.484375 64.796875 Q 44.625 64.796875 42.640625 64.1875 Q 40.671875 63.578125 39.890625 62.203125 L 48.484375 41.5 L 64.890625 59.078125 Q 65.046875 59.421875 65.578125 60.28125 Q 66.109375 61.140625 66.109375 61.921875 Q 66.109375 63.375 64.84375 64.078125 Q 63.578125 64.796875 61.8125 64.796875 Q 60.796875 64.796875 60.796875 66.109375 Q 61.140625 67.390625 61.328125 67.84375 Q 61.53125 68.3125 62.5 68.3125 L 84.1875 68.3125 Q 84.71875 68.3125 84.953125 67.921875 Q 85.203125 67.53125 85.203125 67 Q 85.15625 66.75 85 66.15625 Q 84.859375 65.578125 84.609375 65.1875 Q 84.375 64.796875 83.890625 64.796875 Q 79.25 64.796875 75.359375 63.109375 Q 71.484375 61.421875 68.21875 58.015625 Q 68.171875 57.953125 68.09375 57.921875 Q 68.015625 57.90625 67.921875 57.8125 L 49.8125 38.28125 L 63.484375 5.515625 Q 65.09375 3.515625 72.21875 3.515625 Q 73.1875 3.515625 73.1875 2.203125 Q 72.859375 0.875 72.625 0.4375 Q 72.40625 0 71.484375 0 L 46.484375 0 Q 45.515625 0 45.515625 1.3125 Q 45.5625 1.5625 45.703125 2.171875 Q 45.84375 2.78125 46.109375 3.140625 Q 46.390625 3.515625 46.78125 3.515625 Q 48.734375 3.515625 50.734375 4.125 Q 52.734375 4.734375 53.515625 6.109375 L 43.109375 31 L 22.90625 9.1875 Q 22.75 8.84375 22.21875 8 Q 21.6875 7.171875 21.6875 6.390625 Q 21.6875 4.9375 23.046875 4.21875 Q 24.421875 3.515625 25.984375 3.515625 Q 27 3.515625 27 2.203125 Q 26.65625 0.78125 26.453125 0.390625 Q 26.265625 0 25.296875 0 z" id="x-0-eq_Cmmi10-58" stroke-linecap="butt" stroke-linejoin="round"></path><path d="M 9.28125 0 L 9.28125 3.515625 Q 21.78125 3.515625 21.78125 6.6875 L 21.78125 59.1875 Q 16.609375 56.6875 8.6875 56.6875 L 8.6875 60.203125 Q 20.953125 60.203125 27.203125 66.609375 L 28.609375 66.609375 Q 28.953125 66.609375 29.265625 66.328125 Q 29.59375 66.0625 29.59375 65.71875 L 29.59375 6.6875 Q 29.59375 3.515625 42.09375 3.515625 L 42.09375 0 z" id="x-0-eq_Cmr10-31" stroke-linecap="butt" stroke-linejoin="round"></path></defs><g style="fill:#666666;" transform="translate(0 9.118125)scale(0.12 -0.12)"><use transform="translate(0 0.6875)" xlink:href="#x-0-eq_Cmmi10-58"></use><use transform="translate(82.8125 -16.31875)scale(0.7)" xlink:href="#x-0-eq_Cmr10-31"></use></g></g></g><g id="x-1-eq_figure_1"><g id="x-1-eq_patch_1"><path d="M 0 11.61375 L 15 11.61375 L 15 0 L 0 0 z" stroke-linecap="butt" stroke-linejoin="round" style="fill:none;"></path></g><g id="x-1-eq_text_1"><!-- $X_2$ --><defs><path d="M 3.609375 0 Q 2.59375 0 2.59375 1.3125 Q 2.640625 1.5625 2.8125 2.1875 Q 2.984375 2.828125 3.25 3.171875 Q 3.515625 3.515625 4 3.515625 Q 13.09375 3.515625 19.578125 10.296875 Q 19.671875 10.40625 19.796875 10.453125 Q 19.921875 10.5 19.921875 10.5 L 41.796875 34.078125 L 29.890625 62.796875 Q 28.859375 64.109375 26.5625 64.453125 Q 24.265625 64.796875 21.1875 64.796875 Q 20.21875 64.796875 20.21875 66.109375 Q 20.5625 67.390625 20.75 67.84375 Q 20.953125 68.3125 21.921875 68.3125 L 46.921875 68.3125 Q 47.90625 68.3125 47.90625 67 Q 47.859375 66.75 47.6875 66.109375 Q 47.515625 65.484375 47.234375 65.140625 Q 46.96875 64.796875 46.484375 64.796875 Q 44.625 64.796875 42.640625 64.1875 Q 40.671875 63.578125 39.890625 62.203125 L 48.484375 41.5 L 64.890625 59.078125 Q 65.046875 59.421875 65.578125 60.28125 Q 66.109375 61.140625 66.109375 61.921875 Q 66.109375 63.375 64.84375 64.078125 Q 63.578125 64.796875 61.8125 64.796875 Q 60.796875 64.796875 60.796875 66.109375 Q 61.140625 67.390625 61.328125 67.84375 Q 61.53125 68.3125 62.5 68.3125 L 84.1875 68.3125 Q 84.71875 68.3125 84.953125 67.921875 Q 85.203125 67.53125 85.203125 67 Q 85.15625 66.75 85 66.15625 Q 84.859375 65.578125 84.609375 65.1875 Q 84.375 64.796875 83.890625 64.796875 Q 79.25 64.796875 75.359375 63.109375 Q 71.484375 61.421875 68.21875 58.015625 Q 68.171875 57.953125 68.09375 57.921875 Q 68.015625 57.90625 67.921875 57.8125 L 49.8125 38.28125 L 63.484375 5.515625 Q 65.09375 3.515625 72.21875 3.515625 Q 73.1875 3.515625 73.1875 2.203125 Q 72.859375 0.875 72.625 0.4375 Q 72.40625 0 71.484375 0 L 46.484375 0 Q 45.515625 0 45.515625 1.3125 Q 45.5625 1.5625 45.703125 2.171875 Q 45.84375 2.78125 46.109375 3.140625 Q 46.390625 3.515625 46.78125 3.515625 Q 48.734375 3.515625 50.734375 4.125 Q 52.734375 4.734375 53.515625 6.109375 L 43.109375 31 L 22.90625 9.1875 Q 22.75 8.84375 22.21875 8 Q 21.6875 7.171875 21.6875 6.390625 Q 21.6875 4.9375 23.046875 4.21875 Q 24.421875 3.515625 25.984375 3.515625 Q 27 3.515625 27 2.203125 Q 26.65625 0.78125 26.453125 0.390625 Q 26.265625 0 25.296875 0 z" id="x-1-eq_Cmmi10-58" stroke-linecap="butt" stroke-linejoin="round"></path><path d="M 4.984375 0 L 4.984375 2.6875 Q 4.984375 2.9375 5.171875 3.21875 L 20.703125 20.40625 Q 24.21875 24.21875 26.40625 26.796875 Q 28.609375 29.390625 30.75 32.765625 Q 32.90625 36.140625 34.15625 39.625 Q 35.40625 43.109375 35.40625 47.015625 Q 35.40625 51.125 33.890625 54.859375 Q 32.375 58.59375 29.375 60.84375 Q 26.375 63.09375 22.125 63.09375 Q 17.78125 63.09375 14.3125 60.46875 Q 10.84375 57.859375 9.421875 53.71875 Q 9.8125 53.8125 10.5 53.8125 Q 12.75 53.8125 14.328125 52.296875 Q 15.921875 50.78125 15.921875 48.390625 Q 15.921875 46.09375 14.328125 44.5 Q 12.75 42.921875 10.5 42.921875 Q 8.15625 42.921875 6.5625 44.546875 Q 4.984375 46.1875 4.984375 48.390625 Q 4.984375 52.15625 6.390625 55.4375 Q 7.8125 58.734375 10.46875 61.296875 Q 13.140625 63.875 16.484375 65.234375 Q 19.828125 66.609375 23.578125 66.609375 Q 29.296875 66.609375 34.21875 64.1875 Q 39.15625 61.765625 42.03125 57.34375 Q 44.921875 52.9375 44.921875 47.015625 Q 44.921875 42.671875 43.015625 38.765625 Q 41.109375 34.859375 38.125 31.65625 Q 35.15625 28.46875 30.515625 24.40625 Q 25.875 20.359375 24.421875 19 L 13.09375 8.109375 L 22.703125 8.109375 Q 29.78125 8.109375 34.546875 8.21875 Q 39.3125 8.34375 39.59375 8.59375 Q 40.765625 9.859375 42 17.828125 L 44.921875 17.828125 L 42.09375 0 z" id="x-1-eq_Cmr10-32" stroke-linecap="butt" stroke-linejoin="round"></path></defs><g style="fill:#666666;" transform="translate(0 9.118125)scale(0.12 -0.12)"><use transform="translate(0 0.6875)" xlink:href="#x-1-eq_Cmmi10-58"></use><use transform="translate(82.8125 -16.31875)scale(0.7)" xlink:href="#x-1-eq_Cmr10-32"></use></g></g></g><g id="x-2-eq_figure_1"><g id="x-2-eq_patch_1"><path d="M 0 11.61375 L 15 11.61375 L 15 0 L 0 0 z" stroke-linecap="butt" stroke-linejoin="round" style="fill:none;"></path></g><g id="x-2-eq_text_1"><!-- $X_3$ --><defs><path d="M 3.609375 0 Q 2.59375 0 2.59375 1.3125 Q 2.640625 1.5625 2.8125 2.1875 Q 2.984375 2.828125 3.25 3.171875 Q 3.515625 3.515625 4 3.515625 Q 13.09375 3.515625 19.578125 10.296875 Q 19.671875 10.40625 19.796875 10.453125 Q 19.921875 10.5 19.921875 10.5 L 41.796875 34.078125 L 29.890625 62.796875 Q 28.859375 64.109375 26.5625 64.453125 Q 24.265625 64.796875 21.1875 64.796875 Q 20.21875 64.796875 20.21875 66.109375 Q 20.5625 67.390625 20.75 67.84375 Q 20.953125 68.3125 21.921875 68.3125 L 46.921875 68.3125 Q 47.90625 68.3125 47.90625 67 Q 47.859375 66.75 47.6875 66.109375 Q 47.515625 65.484375 47.234375 65.140625 Q 46.96875 64.796875 46.484375 64.796875 Q 44.625 64.796875 42.640625 64.1875 Q 40.671875 63.578125 39.890625 62.203125 L 48.484375 41.5 L 64.890625 59.078125 Q 65.046875 59.421875 65.578125 60.28125 Q 66.109375 61.140625 66.109375 61.921875 Q 66.109375 63.375 64.84375 64.078125 Q 63.578125 64.796875 61.8125 64.796875 Q 60.796875 64.796875 60.796875 66.109375 Q 61.140625 67.390625 61.328125 67.84375 Q 61.53125 68.3125 62.5 68.3125 L 84.1875 68.3125 Q 84.71875 68.3125 84.953125 67.921875 Q 85.203125 67.53125 85.203125 67 Q 85.15625 66.75 85 66.15625 Q 84.859375 65.578125 84.609375 65.1875 Q 84.375 64.796875 83.890625 64.796875 Q 79.25 64.796875 75.359375 63.109375 Q 71.484375 61.421875 68.21875 58.015625 Q 68.171875 57.953125 68.09375 57.921875 Q 68.015625 57.90625 67.921875 57.8125 L 49.8125 38.28125 L 63.484375 5.515625 Q 65.09375 3.515625 72.21875 3.515625 Q 73.1875 3.515625 73.1875 2.203125 Q 72.859375 0.875 72.625 0.4375 Q 72.40625 0 71.484375 0 L 46.484375 0 Q 45.515625 0 45.515625 1.3125 Q 45.5625 1.5625 45.703125 2.171875 Q 45.84375 2.78125 46.109375 3.140625 Q 46.390625 3.515625 46.78125 3.515625 Q 48.734375 3.515625 50.734375 4.125 Q 52.734375 4.734375 53.515625 6.109375 L 43.109375 31 L 22.90625 9.1875 Q 22.75 8.84375 22.21875 8 Q 21.6875 7.171875 21.6875 6.390625 Q 21.6875 4.9375 23.046875 4.21875 Q 24.421875 3.515625 25.984375 3.515625 Q 27 3.515625 27 2.203125 Q 26.65625 0.78125 26.453125 0.390625 Q 26.265625 0 25.296875 0 z" id="x-2-eq_Cmmi10-58" stroke-linecap="butt" stroke-linejoin="round"></path><path d="M 9.515625 7.71875 Q 11.859375 4.296875 15.8125 2.640625 Q 19.78125 0.984375 24.3125 0.984375 Q 30.125 0.984375 32.5625 5.9375 Q 35.015625 10.890625 35.015625 17.1875 Q 35.015625 20.015625 34.5 22.84375 Q 33.984375 25.6875 32.765625 28.125 Q 31.546875 30.5625 29.421875 32.03125 Q 27.296875 33.5 24.21875 33.5 L 17.578125 33.5 Q 16.703125 33.5 16.703125 34.421875 L 16.703125 35.296875 Q 16.703125 36.078125 17.578125 36.078125 L 23.09375 36.53125 Q 26.609375 36.53125 28.921875 39.15625 Q 31.25 41.796875 32.328125 45.578125 Q 33.40625 49.359375 33.40625 52.78125 Q 33.40625 57.5625 31.15625 60.640625 Q 28.90625 63.71875 24.3125 63.71875 Q 20.515625 63.71875 17.046875 62.28125 Q 13.578125 60.84375 11.53125 57.90625 Q 11.71875 57.953125 11.859375 57.984375 Q 12.015625 58.015625 12.203125 58.015625 Q 14.453125 58.015625 15.96875 56.453125 Q 17.484375 54.890625 17.484375 52.6875 Q 17.484375 50.53125 15.96875 48.96875 Q 14.453125 47.40625 12.203125 47.40625 Q 10.015625 47.40625 8.453125 48.96875 Q 6.890625 50.53125 6.890625 52.6875 Q 6.890625 56.984375 9.46875 60.15625 Q 12.0625 63.328125 16.140625 64.96875 Q 20.21875 66.609375 24.3125 66.609375 Q 27.34375 66.609375 30.703125 65.703125 Q 34.078125 64.796875 36.8125 63.109375 Q 39.546875 61.421875 41.28125 58.78125 Q 43.015625 56.15625 43.015625 52.78125 Q 43.015625 48.578125 41.140625 45.015625 Q 39.265625 41.453125 35.984375 38.859375 Q 32.71875 36.28125 28.8125 35.015625 Q 33.15625 34.1875 37.0625 31.734375 Q 40.96875 29.296875 43.328125 25.484375 Q 45.703125 21.6875 45.703125 17.28125 Q 45.703125 11.765625 42.671875 7.296875 Q 39.65625 2.828125 34.71875 0.3125 Q 29.78125 -2.203125 24.3125 -2.203125 Q 19.625 -2.203125 14.90625 -0.40625 Q 10.203125 1.375 7.203125 4.9375 Q 4.203125 8.5 4.203125 13.484375 Q 4.203125 15.96875 5.859375 17.625 Q 7.515625 19.28125 10.015625 19.28125 Q 11.625 19.28125 12.96875 18.53125 Q 14.3125 17.78125 15.0625 16.40625 Q 15.828125 15.046875 15.828125 13.484375 Q 15.828125 11.03125 14.109375 9.375 Q 12.40625 7.71875 10.015625 7.71875 z" id="x-2-eq_Cmr10-33" stroke-linecap="butt" stroke-linejoin="round"></path></defs><g style="fill:#666666;" transform="translate(0 9.118125)scale(0.12 -0.12)"><use transform="translate(0 0.6875)" xlink:href="#x-2-eq_Cmmi10-58"></use><use transform="translate(82.8125 -16.31875)scale(0.7)" xlink:href="#x-2-eq_Cmr10-33"></use></g></g></g><g id="x-3-eq_figure_1"><g id="x-3-eq_patch_1"><path d="M 0 11.61375 L 15 11.61375 L 15 0 L 0 0 z" stroke-linecap="butt" stroke-linejoin="round" style="fill:none;"></path></g><g id="x-3-eq_text_1"><!-- $X_4$ --><defs><path d="M 3.609375 0 Q 2.59375 0 2.59375 1.3125 Q 2.640625 1.5625 2.8125 2.1875 Q 2.984375 2.828125 3.25 3.171875 Q 3.515625 3.515625 4 3.515625 Q 13.09375 3.515625 19.578125 10.296875 Q 19.671875 10.40625 19.796875 10.453125 Q 19.921875 10.5 19.921875 10.5 L 41.796875 34.078125 L 29.890625 62.796875 Q 28.859375 64.109375 26.5625 64.453125 Q 24.265625 64.796875 21.1875 64.796875 Q 20.21875 64.796875 20.21875 66.109375 Q 20.5625 67.390625 20.75 67.84375 Q 20.953125 68.3125 21.921875 68.3125 L 46.921875 68.3125 Q 47.90625 68.3125 47.90625 67 Q 47.859375 66.75 47.6875 66.109375 Q 47.515625 65.484375 47.234375 65.140625 Q 46.96875 64.796875 46.484375 64.796875 Q 44.625 64.796875 42.640625 64.1875 Q 40.671875 63.578125 39.890625 62.203125 L 48.484375 41.5 L 64.890625 59.078125 Q 65.046875 59.421875 65.578125 60.28125 Q 66.109375 61.140625 66.109375 61.921875 Q 66.109375 63.375 64.84375 64.078125 Q 63.578125 64.796875 61.8125 64.796875 Q 60.796875 64.796875 60.796875 66.109375 Q 61.140625 67.390625 61.328125 67.84375 Q 61.53125 68.3125 62.5 68.3125 L 84.1875 68.3125 Q 84.71875 68.3125 84.953125 67.921875 Q 85.203125 67.53125 85.203125 67 Q 85.15625 66.75 85 66.15625 Q 84.859375 65.578125 84.609375 65.1875 Q 84.375 64.796875 83.890625 64.796875 Q 79.25 64.796875 75.359375 63.109375 Q 71.484375 61.421875 68.21875 58.015625 Q 68.171875 57.953125 68.09375 57.921875 Q 68.015625 57.90625 67.921875 57.8125 L 49.8125 38.28125 L 63.484375 5.515625 Q 65.09375 3.515625 72.21875 3.515625 Q 73.1875 3.515625 73.1875 2.203125 Q 72.859375 0.875 72.625 0.4375 Q 72.40625 0 71.484375 0 L 46.484375 0 Q 45.515625 0 45.515625 1.3125 Q 45.5625 1.5625 45.703125 2.171875 Q 45.84375 2.78125 46.109375 3.140625 Q 46.390625 3.515625 46.78125 3.515625 Q 48.734375 3.515625 50.734375 4.125 Q 52.734375 4.734375 53.515625 6.109375 L 43.109375 31 L 22.90625 9.1875 Q 22.75 8.84375 22.21875 8 Q 21.6875 7.171875 21.6875 6.390625 Q 21.6875 4.9375 23.046875 4.21875 Q 24.421875 3.515625 25.984375 3.515625 Q 27 3.515625 27 2.203125 Q 26.65625 0.78125 26.453125 0.390625 Q 26.265625 0 25.296875 0 z" id="x-3-eq_Cmmi10-58" stroke-linecap="butt" stroke-linejoin="round"></path><path d="M 2.78125 16.5 L 2.78125 20.015625 L 33.6875 66.109375 Q 34.03125 66.609375 34.71875 66.609375 L 36.1875 66.609375 Q 37.3125 66.609375 37.3125 65.484375 L 37.3125 20.015625 L 47.125 20.015625 L 47.125 16.5 L 37.3125 16.5 L 37.3125 6.6875 Q 37.3125 4.640625 40.234375 4.078125 Q 43.171875 3.515625 47.015625 3.515625 L 47.015625 0 L 19.484375 0 L 19.484375 3.515625 Q 23.34375 3.515625 26.265625 4.078125 Q 29.203125 4.640625 29.203125 6.6875 L 29.203125 16.5 zM 6.109375 20.015625 L 29.78125 20.015625 L 29.78125 55.421875 z" id="x-3-eq_Cmr10-34" stroke-linecap="butt" stroke-linejoin="round"></path></defs><g style="fill:#666666;" transform="translate(0 9.118125)scale(0.12 -0.12)"><use transform="translate(0 0.6875)" xlink:href="#x-3-eq_Cmmi10-58"></use><use transform="translate(82.8125 -16.31875)scale(0.7)" xlink:href="#x-3-eq_Cmr10-34"></use></g></g></g><g id="p-joint-eq_figure_1"><g id="p-joint-eq_patch_1"><path d="M 0 12 L 92.52 12 L 92.52 0 L 0 0 z" stroke-linecap="butt" stroke-linejoin="round" style="fill:none;"></path></g><g id="p-joint-eq_text_1"><!-- $p(x_1, x_2, x_3, x_4)=$ --><defs><path d="M -2.484375 -19.390625 Q -3.421875 -19.390625 -3.421875 -18.109375 Q -3.078125 -15.921875 -2.09375 -15.921875 Q 1.03125 -15.921875 2.265625 -15.359375 Q 3.515625 -14.796875 4.203125 -12.5 L 15.484375 32.515625 Q 16.21875 34.375 16.21875 37.3125 Q 16.21875 41.609375 13.28125 41.609375 Q 10.15625 41.609375 8.640625 37.859375 Q 7.125 34.125 5.71875 28.421875 Q 5.71875 27.78125 4.890625 27.78125 L 3.71875 27.78125 Q 3.46875 27.78125 3.171875 28.140625 Q 2.875 28.515625 2.875 28.8125 Q 3.953125 33.15625 4.953125 36.171875 Q 5.953125 39.203125 8.078125 41.6875 Q 10.203125 44.1875 13.375 44.1875 Q 16.796875 44.1875 19.375 42.25 Q 21.96875 40.328125 22.703125 37.015625 Q 25.4375 40.1875 28.75 42.1875 Q 32.078125 44.1875 35.59375 44.1875 Q 39.796875 44.1875 42.890625 41.9375 Q 46 39.703125 47.5625 36.0625 Q 49.125 32.421875 49.125 28.21875 Q 49.125 21.78125 45.828125 14.890625 Q 42.53125 8.015625 36.890625 3.4375 Q 31.25 -1.125 24.8125 -1.125 Q 21.875 -1.125 19.5 0.53125 Q 17.140625 2.203125 15.828125 4.890625 L 11.28125 -12.890625 Q 11.03125 -14.359375 10.984375 -14.59375 Q 10.984375 -15.921875 17.578125 -15.921875 Q 18.609375 -15.921875 18.609375 -17.1875 Q 18.265625 -18.5 18.046875 -18.9375 Q 17.828125 -19.390625 16.890625 -19.390625 zM 24.90625 1.515625 Q 28.375 1.515625 31.34375 4.375 Q 34.328125 7.234375 36.1875 10.796875 Q 37.546875 13.484375 38.734375 17.359375 Q 39.9375 21.234375 40.8125 25.625 Q 41.703125 30.03125 41.703125 32.625 Q 41.703125 34.90625 41.09375 36.90625 Q 40.484375 38.921875 39.09375 40.265625 Q 37.703125 41.609375 35.40625 41.609375 Q 31.734375 41.609375 28.484375 38.984375 Q 25.25 36.375 22.609375 32.515625 L 22.609375 32.171875 L 17.09375 10.109375 Q 17.78125 6.546875 19.734375 4.03125 Q 21.6875 1.515625 24.90625 1.515625 z" id="p-joint-eq_Cmmi10-70" stroke-linecap="butt" stroke-linejoin="round"></path><path d="M 31 -24.8125 Q 25.4375 -20.40625 21.40625 -14.71875 Q 17.390625 -9.03125 14.8125 -2.578125 Q 12.25 3.859375 10.984375 10.890625 Q 9.71875 17.921875 9.71875 25 Q 9.71875 32.171875 10.984375 39.203125 Q 12.25 46.234375 14.859375 52.734375 Q 17.484375 59.234375 21.53125 64.890625 Q 25.59375 70.5625 31 74.8125 Q 31 75 31.5 75 L 32.421875 75 Q 32.71875 75 32.953125 74.734375 Q 33.203125 74.46875 33.203125 74.125 Q 33.203125 73.6875 33.015625 73.484375 Q 28.125 68.703125 24.875 63.234375 Q 21.625 57.765625 19.640625 51.578125 Q 17.671875 45.40625 16.796875 38.78125 Q 15.921875 32.171875 15.921875 25 Q 15.921875 -6.78125 32.90625 -23.296875 Q 33.203125 -23.578125 33.203125 -24.125 Q 33.203125 -24.359375 32.9375 -24.671875 Q 32.671875 -25 32.421875 -25 L 31.5 -25 Q 31 -25 31 -24.8125 z" id="p-joint-eq_Cmr10-28" stroke-linecap="butt" stroke-linejoin="round"></path><path d="M 7.8125 2.875 Q 9.578125 1.515625 12.796875 1.515625 Q 15.921875 1.515625 18.3125 4.515625 Q 20.703125 7.515625 21.578125 11.078125 L 26.125 28.8125 Q 27.203125 33.640625 27.203125 35.40625 Q 27.203125 37.890625 25.8125 39.75 Q 24.421875 41.609375 21.921875 41.609375 Q 18.75 41.609375 15.96875 39.625 Q 13.1875 37.640625 11.28125 34.59375 Q 9.375 31.546875 8.59375 28.421875 Q 8.40625 27.78125 7.8125 27.78125 L 6.59375 27.78125 Q 5.8125 27.78125 5.8125 28.71875 L 5.8125 29 Q 6.78125 32.71875 9.125 36.25 Q 11.46875 39.796875 14.859375 41.984375 Q 18.265625 44.1875 22.125 44.1875 Q 25.78125 44.1875 28.734375 42.234375 Q 31.6875 40.28125 32.90625 36.921875 Q 34.625 39.984375 37.28125 42.078125 Q 39.9375 44.1875 43.109375 44.1875 Q 45.265625 44.1875 47.5 43.421875 Q 49.75 42.671875 51.171875 41.109375 Q 52.59375 39.546875 52.59375 37.203125 Q 52.59375 34.671875 50.953125 32.828125 Q 49.3125 31 46.78125 31 Q 45.171875 31 44.09375 32.03125 Q 43.015625 33.0625 43.015625 34.625 Q 43.015625 36.71875 44.453125 38.296875 Q 45.90625 39.890625 47.90625 40.1875 Q 46.09375 41.609375 42.921875 41.609375 Q 39.703125 41.609375 37.328125 38.625 Q 34.96875 35.640625 33.984375 31.984375 L 29.59375 14.3125 Q 28.515625 10.296875 28.515625 7.71875 Q 28.515625 5.171875 29.953125 3.34375 Q 31.390625 1.515625 33.796875 1.515625 Q 38.484375 1.515625 42.15625 5.640625 Q 45.84375 9.765625 47.015625 14.703125 Q 47.21875 15.28125 47.796875 15.28125 L 49.03125 15.28125 Q 49.421875 15.28125 49.65625 15.015625 Q 49.90625 14.75 49.90625 14.40625 Q 49.90625 14.3125 49.8125 14.109375 Q 48.390625 8.15625 43.84375 3.515625 Q 39.3125 -1.125 33.59375 -1.125 Q 29.9375 -1.125 26.984375 0.84375 Q 24.03125 2.828125 22.796875 6.203125 Q 21.234375 3.265625 18.46875 1.0625 Q 15.71875 -1.125 12.59375 -1.125 Q 10.453125 -1.125 8.171875 -0.359375 Q 5.90625 0.390625 4.484375 1.953125 Q 3.078125 3.515625 3.078125 5.90625 Q 3.078125 8.25 4.703125 10.171875 Q 6.34375 12.109375 8.796875 12.109375 Q 10.453125 12.109375 11.578125 11.109375 Q 12.703125 10.109375 12.703125 8.5 Q 12.703125 6.390625 11.296875 4.828125 Q 9.90625 3.265625 7.8125 2.875 z" id="p-joint-eq_Cmmi10-78" stroke-linecap="butt" stroke-linejoin="round"></path><path d="M 9.28125 0 L 9.28125 3.515625 Q 21.78125 3.515625 21.78125 6.6875 L 21.78125 59.1875 Q 16.609375 56.6875 8.6875 56.6875 L 8.6875 60.203125 Q 20.953125 60.203125 27.203125 66.609375 L 28.609375 66.609375 Q 28.953125 66.609375 29.265625 66.328125 Q 29.59375 66.0625 29.59375 65.71875 L 29.59375 6.6875 Q 29.59375 3.515625 42.09375 3.515625 L 42.09375 0 z" id="p-joint-eq_Cmr10-31" stroke-linecap="butt" stroke-linejoin="round"></path><path d="M 9.90625 -18.015625 Q 9.90625 -17.578125 10.296875 -17.1875 Q 13.921875 -13.71875 15.921875 -9.171875 Q 17.921875 -4.640625 17.921875 0.390625 L 17.921875 1.609375 Q 16.3125 0 13.921875 0 Q 11.625 0 10.015625 1.609375 Q 8.40625 3.21875 8.40625 5.515625 Q 8.40625 7.859375 10.015625 9.421875 Q 11.625 10.984375 13.921875 10.984375 Q 17.484375 10.984375 19 7.6875 Q 20.515625 4.390625 20.515625 0.390625 Q 20.515625 -5.171875 18.28125 -10.171875 Q 16.0625 -15.1875 12.015625 -19.1875 Q 11.625 -19.390625 11.375 -19.390625 Q 10.890625 -19.390625 10.390625 -18.9375 Q 9.90625 -18.5 9.90625 -18.015625 z" id="p-joint-eq_Cmmi10-3b" stroke-linecap="butt" stroke-linejoin="round"></path><path d="M 4.984375 0 L 4.984375 2.6875 Q 4.984375 2.9375 5.171875 3.21875 L 20.703125 20.40625 Q 24.21875 24.21875 26.40625 26.796875 Q 28.609375 29.390625 30.75 32.765625 Q 32.90625 36.140625 34.15625 39.625 Q 35.40625 43.109375 35.40625 47.015625 Q 35.40625 51.125 33.890625 54.859375 Q 32.375 58.59375 29.375 60.84375 Q 26.375 63.09375 22.125 63.09375 Q 17.78125 63.09375 14.3125 60.46875 Q 10.84375 57.859375 9.421875 53.71875 Q 9.8125 53.8125 10.5 53.8125 Q 12.75 53.8125 14.328125 52.296875 Q 15.921875 50.78125 15.921875 48.390625 Q 15.921875 46.09375 14.328125 44.5 Q 12.75 42.921875 10.5 42.921875 Q 8.15625 42.921875 6.5625 44.546875 Q 4.984375 46.1875 4.984375 48.390625 Q 4.984375 52.15625 6.390625 55.4375 Q 7.8125 58.734375 10.46875 61.296875 Q 13.140625 63.875 16.484375 65.234375 Q 19.828125 66.609375 23.578125 66.609375 Q 29.296875 66.609375 34.21875 64.1875 Q 39.15625 61.765625 42.03125 57.34375 Q 44.921875 52.9375 44.921875 47.015625 Q 44.921875 42.671875 43.015625 38.765625 Q 41.109375 34.859375 38.125 31.65625 Q 35.15625 28.46875 30.515625 24.40625 Q 25.875 20.359375 24.421875 19 L 13.09375 8.109375 L 22.703125 8.109375 Q 29.78125 8.109375 34.546875 8.21875 Q 39.3125 8.34375 39.59375 8.59375 Q 40.765625 9.859375 42 17.828125 L 44.921875 17.828125 L 42.09375 0 z" id="p-joint-eq_Cmr10-32" stroke-linecap="butt" stroke-linejoin="round"></path><path d="M 9.515625 7.71875 Q 11.859375 4.296875 15.8125 2.640625 Q 19.78125 0.984375 24.3125 0.984375 Q 30.125 0.984375 32.5625 5.9375 Q 35.015625 10.890625 35.015625 17.1875 Q 35.015625 20.015625 34.5 22.84375 Q 33.984375 25.6875 32.765625 28.125 Q 31.546875 30.5625 29.421875 32.03125 Q 27.296875 33.5 24.21875 33.5 L 17.578125 33.5 Q 16.703125 33.5 16.703125 34.421875 L 16.703125 35.296875 Q 16.703125 36.078125 17.578125 36.078125 L 23.09375 36.53125 Q 26.609375 36.53125 28.921875 39.15625 Q 31.25 41.796875 32.328125 45.578125 Q 33.40625 49.359375 33.40625 52.78125 Q 33.40625 57.5625 31.15625 60.640625 Q 28.90625 63.71875 24.3125 63.71875 Q 20.515625 63.71875 17.046875 62.28125 Q 13.578125 60.84375 11.53125 57.90625 Q 11.71875 57.953125 11.859375 57.984375 Q 12.015625 58.015625 12.203125 58.015625 Q 14.453125 58.015625 15.96875 56.453125 Q 17.484375 54.890625 17.484375 52.6875 Q 17.484375 50.53125 15.96875 48.96875 Q 14.453125 47.40625 12.203125 47.40625 Q 10.015625 47.40625 8.453125 48.96875 Q 6.890625 50.53125 6.890625 52.6875 Q 6.890625 56.984375 9.46875 60.15625 Q 12.0625 63.328125 16.140625 64.96875 Q 20.21875 66.609375 24.3125 66.609375 Q 27.34375 66.609375 30.703125 65.703125 Q 34.078125 64.796875 36.8125 63.109375 Q 39.546875 61.421875 41.28125 58.78125 Q 43.015625 56.15625 43.015625 52.78125 Q 43.015625 48.578125 41.140625 45.015625 Q 39.265625 41.453125 35.984375 38.859375 Q 32.71875 36.28125 28.8125 35.015625 Q 33.15625 34.1875 37.0625 31.734375 Q 40.96875 29.296875 43.328125 25.484375 Q 45.703125 21.6875 45.703125 17.28125 Q 45.703125 11.765625 42.671875 7.296875 Q 39.65625 2.828125 34.71875 0.3125 Q 29.78125 -2.203125 24.3125 -2.203125 Q 19.625 -2.203125 14.90625 -0.40625 Q 10.203125 1.375 7.203125 4.9375 Q 4.203125 8.5 4.203125 13.484375 Q 4.203125 15.96875 5.859375 17.625 Q 7.515625 19.28125 10.015625 19.28125 Q 11.625 19.28125 12.96875 18.53125 Q 14.3125 17.78125 15.0625 16.40625 Q 15.828125 15.046875 15.828125 13.484375 Q 15.828125 11.03125 14.109375 9.375 Q 12.40625 7.71875 10.015625 7.71875 z" id="p-joint-eq_Cmr10-33" stroke-linecap="butt" stroke-linejoin="round"></path><path d="M 2.78125 16.5 L 2.78125 20.015625 L 33.6875 66.109375 Q 34.03125 66.609375 34.71875 66.609375 L 36.1875 66.609375 Q 37.3125 66.609375 37.3125 65.484375 L 37.3125 20.015625 L 47.125 20.015625 L 47.125 16.5 L 37.3125 16.5 L 37.3125 6.6875 Q 37.3125 4.640625 40.234375 4.078125 Q 43.171875 3.515625 47.015625 3.515625 L 47.015625 0 L 19.484375 0 L 19.484375 3.515625 Q 23.34375 3.515625 26.265625 4.078125 Q 29.203125 4.640625 29.203125 6.6875 L 29.203125 16.5 zM 6.109375 20.015625 L 29.78125 20.015625 L 29.78125 55.421875 z" id="p-joint-eq_Cmr10-34" stroke-linecap="butt" stroke-linejoin="round"></path><path d="M 6.5 -25 Q 5.609375 -25 5.609375 -24.125 Q 5.609375 -23.6875 5.8125 -23.484375 Q 22.90625 -6.78125 22.90625 25 Q 22.90625 56.78125 6 73.296875 Q 5.609375 73.53125 5.609375 74.125 Q 5.609375 74.46875 5.875 74.734375 Q 6.15625 75 6.5 75 L 7.421875 75 Q 7.71875 75 7.90625 74.8125 Q 15.09375 69.140625 19.875 61.03125 Q 24.65625 52.9375 26.875 43.75 Q 29.109375 34.578125 29.109375 25 Q 29.109375 17.921875 27.90625 11.0625 Q 26.703125 4.203125 24.09375 -2.453125 Q 21.484375 -9.125 17.484375 -14.765625 Q 13.484375 -20.40625 7.90625 -24.8125 Q 7.71875 -25 7.421875 -25 z" id="p-joint-eq_Cmr10-29" stroke-linecap="butt" stroke-linejoin="round"></path><path d="M 7.515625 13.28125 Q 6.6875 13.28125 6.140625 13.90625 Q 5.609375 14.546875 5.609375 15.28125 Q 5.609375 16.109375 6.140625 16.6875 Q 6.6875 17.28125 7.515625 17.28125 L 70.3125 17.28125 Q 71.046875 17.28125 71.578125 16.6875 Q 72.125 16.109375 72.125 15.28125 Q 72.125 14.546875 71.578125 13.90625 Q 71.046875 13.28125 70.3125 13.28125 zM 7.515625 32.71875 Q 6.6875 32.71875 6.140625 33.296875 Q 5.609375 33.890625 5.609375 34.71875 Q 5.609375 35.453125 6.140625 36.078125 Q 6.6875 36.71875 7.515625 36.71875 L 70.3125 36.71875 Q 71.046875 36.71875 71.578125 36.078125 Q 72.125 35.453125 72.125 34.71875 Q 72.125 33.890625 71.578125 33.296875 Q 71.046875 32.71875 70.3125 32.71875 z" id="p-joint-eq_Cmr10-3d" stroke-linecap="butt" stroke-linejoin="round"></path></defs><g style="fill:#666666;" transform="translate(0 9)scale(0.12 -0.12)"><use xlink:href="#p-joint-eq_Cmmi10-70"></use><use transform="translate(50.292969 0)" xlink:href="#p-joint-eq_Cmr10-28"></use><use transform="translate(89.111328 0)" xlink:href="#p-joint-eq_Cmmi10-78"></use><use transform="translate(146.191406 -17.00625)scale(0.7)" xlink:href="#p-joint-eq_Cmr10-31"></use><use transform="translate(187.56875 0)" xlink:href="#p-joint-eq_Cmmi10-3b"></use><use transform="translate(232.812891 0)" xlink:href="#p-joint-eq_Cmmi10-78"></use><use transform="translate(289.892969 -17.00625)scale(0.7)" xlink:href="#p-joint-eq_Cmr10-32"></use><use transform="translate(331.270312 0)" xlink:href="#p-joint-eq_Cmmi10-3b"></use><use transform="translate(376.514453 0)" xlink:href="#p-joint-eq_Cmmi10-78"></use><use transform="translate(433.594531 -17.00625)scale(0.7)" xlink:href="#p-joint-eq_Cmr10-33"></use><use transform="translate(474.971875 0)" xlink:href="#p-joint-eq_Cmmi10-3b"></use><use transform="translate(520.216016 0)" xlink:href="#p-joint-eq_Cmmi10-78"></use><use transform="translate(577.296094 -17.00625)scale(0.7)" xlink:href="#p-joint-eq_Cmr10-34"></use><use transform="translate(618.673437 0)" xlink:href="#p-joint-eq_Cmr10-29"></use><use transform="translate(675.050391 0)" xlink:href="#p-joint-eq_Cmr10-3d"></use></g></g></g><g id="p-cond-0-eq_figure_1"><g id="p-cond-0-eq_patch_1"><path d="M 0 12 L 27.24 12 L 27.24 0 L 0 0 z" stroke-linecap="butt" stroke-linejoin="round" style="fill:none;"></path></g><g id="p-cond-0-eq_text_1"><!-- $p(x_1)$ --><defs><path d="M -2.484375 -19.390625 Q -3.421875 -19.390625 -3.421875 -18.109375 Q -3.078125 -15.921875 -2.09375 -15.921875 Q 1.03125 -15.921875 2.265625 -15.359375 Q 3.515625 -14.796875 4.203125 -12.5 L 15.484375 32.515625 Q 16.21875 34.375 16.21875 37.3125 Q 16.21875 41.609375 13.28125 41.609375 Q 10.15625 41.609375 8.640625 37.859375 Q 7.125 34.125 5.71875 28.421875 Q 5.71875 27.78125 4.890625 27.78125 L 3.71875 27.78125 Q 3.46875 27.78125 3.171875 28.140625 Q 2.875 28.515625 2.875 28.8125 Q 3.953125 33.15625 4.953125 36.171875 Q 5.953125 39.203125 8.078125 41.6875 Q 10.203125 44.1875 13.375 44.1875 Q 16.796875 44.1875 19.375 42.25 Q 21.96875 40.328125 22.703125 37.015625 Q 25.4375 40.1875 28.75 42.1875 Q 32.078125 44.1875 35.59375 44.1875 Q 39.796875 44.1875 42.890625 41.9375 Q 46 39.703125 47.5625 36.0625 Q 49.125 32.421875 49.125 28.21875 Q 49.125 21.78125 45.828125 14.890625 Q 42.53125 8.015625 36.890625 3.4375 Q 31.25 -1.125 24.8125 -1.125 Q 21.875 -1.125 19.5 0.53125 Q 17.140625 2.203125 15.828125 4.890625 L 11.28125 -12.890625 Q 11.03125 -14.359375 10.984375 -14.59375 Q 10.984375 -15.921875 17.578125 -15.921875 Q 18.609375 -15.921875 18.609375 -17.1875 Q 18.265625 -18.5 18.046875 -18.9375 Q 17.828125 -19.390625 16.890625 -19.390625 zM 24.90625 1.515625 Q 28.375 1.515625 31.34375 4.375 Q 34.328125 7.234375 36.1875 10.796875 Q 37.546875 13.484375 38.734375 17.359375 Q 39.9375 21.234375 40.8125 25.625 Q 41.703125 30.03125 41.703125 32.625 Q 41.703125 34.90625 41.09375 36.90625 Q 40.484375 38.921875 39.09375 40.265625 Q 37.703125 41.609375 35.40625 41.609375 Q 31.734375 41.609375 28.484375 38.984375 Q 25.25 36.375 22.609375 32.515625 L 22.609375 32.171875 L 17.09375 10.109375 Q 17.78125 6.546875 19.734375 4.03125 Q 21.6875 1.515625 24.90625 1.515625 z" id="p-cond-0-eq_Cmmi10-70" stroke-linecap="butt" stroke-linejoin="round"></path><path d="M 31 -24.8125 Q 25.4375 -20.40625 21.40625 -14.71875 Q 17.390625 -9.03125 14.8125 -2.578125 Q 12.25 3.859375 10.984375 10.890625 Q 9.71875 17.921875 9.71875 25 Q 9.71875 32.171875 10.984375 39.203125 Q 12.25 46.234375 14.859375 52.734375 Q 17.484375 59.234375 21.53125 64.890625 Q 25.59375 70.5625 31 74.8125 Q 31 75 31.5 75 L 32.421875 75 Q 32.71875 75 32.953125 74.734375 Q 33.203125 74.46875 33.203125 74.125 Q 33.203125 73.6875 33.015625 73.484375 Q 28.125 68.703125 24.875 63.234375 Q 21.625 57.765625 19.640625 51.578125 Q 17.671875 45.40625 16.796875 38.78125 Q 15.921875 32.171875 15.921875 25 Q 15.921875 -6.78125 32.90625 -23.296875 Q 33.203125 -23.578125 33.203125 -24.125 Q 33.203125 -24.359375 32.9375 -24.671875 Q 32.671875 -25 32.421875 -25 L 31.5 -25 Q 31 -25 31 -24.8125 z" id="p-cond-0-eq_Cmr10-28" stroke-linecap="butt" stroke-linejoin="round"></path><path d="M 7.8125 2.875 Q 9.578125 1.515625 12.796875 1.515625 Q 15.921875 1.515625 18.3125 4.515625 Q 20.703125 7.515625 21.578125 11.078125 L 26.125 28.8125 Q 27.203125 33.640625 27.203125 35.40625 Q 27.203125 37.890625 25.8125 39.75 Q 24.421875 41.609375 21.921875 41.609375 Q 18.75 41.609375 15.96875 39.625 Q 13.1875 37.640625 11.28125 34.59375 Q 9.375 31.546875 8.59375 28.421875 Q 8.40625 27.78125 7.8125 27.78125 L 6.59375 27.78125 Q 5.8125 27.78125 5.8125 28.71875 L 5.8125 29 Q 6.78125 32.71875 9.125 36.25 Q 11.46875 39.796875 14.859375 41.984375 Q 18.265625 44.1875 22.125 44.1875 Q 25.78125 44.1875 28.734375 42.234375 Q 31.6875 40.28125 32.90625 36.921875 Q 34.625 39.984375 37.28125 42.078125 Q 39.9375 44.1875 43.109375 44.1875 Q 45.265625 44.1875 47.5 43.421875 Q 49.75 42.671875 51.171875 41.109375 Q 52.59375 39.546875 52.59375 37.203125 Q 52.59375 34.671875 50.953125 32.828125 Q 49.3125 31 46.78125 31 Q 45.171875 31 44.09375 32.03125 Q 43.015625 33.0625 43.015625 34.625 Q 43.015625 36.71875 44.453125 38.296875 Q 45.90625 39.890625 47.90625 40.1875 Q 46.09375 41.609375 42.921875 41.609375 Q 39.703125 41.609375 37.328125 38.625 Q 34.96875 35.640625 33.984375 31.984375 L 29.59375 14.3125 Q 28.515625 10.296875 28.515625 7.71875 Q 28.515625 5.171875 29.953125 3.34375 Q 31.390625 1.515625 33.796875 1.515625 Q 38.484375 1.515625 42.15625 5.640625 Q 45.84375 9.765625 47.015625 14.703125 Q 47.21875 15.28125 47.796875 15.28125 L 49.03125 15.28125 Q 49.421875 15.28125 49.65625 15.015625 Q 49.90625 14.75 49.90625 14.40625 Q 49.90625 14.3125 49.8125 14.109375 Q 48.390625 8.15625 43.84375 3.515625 Q 39.3125 -1.125 33.59375 -1.125 Q 29.9375 -1.125 26.984375 0.84375 Q 24.03125 2.828125 22.796875 6.203125 Q 21.234375 3.265625 18.46875 1.0625 Q 15.71875 -1.125 12.59375 -1.125 Q 10.453125 -1.125 8.171875 -0.359375 Q 5.90625 0.390625 4.484375 1.953125 Q 3.078125 3.515625 3.078125 5.90625 Q 3.078125 8.25 4.703125 10.171875 Q 6.34375 12.109375 8.796875 12.109375 Q 10.453125 12.109375 11.578125 11.109375 Q 12.703125 10.109375 12.703125 8.5 Q 12.703125 6.390625 11.296875 4.828125 Q 9.90625 3.265625 7.8125 2.875 z" id="p-cond-0-eq_Cmmi10-78" stroke-linecap="butt" stroke-linejoin="round"></path><path d="M 9.28125 0 L 9.28125 3.515625 Q 21.78125 3.515625 21.78125 6.6875 L 21.78125 59.1875 Q 16.609375 56.6875 8.6875 56.6875 L 8.6875 60.203125 Q 20.953125 60.203125 27.203125 66.609375 L 28.609375 66.609375 Q 28.953125 66.609375 29.265625 66.328125 Q 29.59375 66.0625 29.59375 65.71875 L 29.59375 6.6875 Q 29.59375 3.515625 42.09375 3.515625 L 42.09375 0 z" id="p-cond-0-eq_Cmr10-31" stroke-linecap="butt" stroke-linejoin="round"></path><path d="M 6.5 -25 Q 5.609375 -25 5.609375 -24.125 Q 5.609375 -23.6875 5.8125 -23.484375 Q 22.90625 -6.78125 22.90625 25 Q 22.90625 56.78125 6 73.296875 Q 5.609375 73.53125 5.609375 74.125 Q 5.609375 74.46875 5.875 74.734375 Q 6.15625 75 6.5 75 L 7.421875 75 Q 7.71875 75 7.90625 74.8125 Q 15.09375 69.140625 19.875 61.03125 Q 24.65625 52.9375 26.875 43.75 Q 29.109375 34.578125 29.109375 25 Q 29.109375 17.921875 27.90625 11.0625 Q 26.703125 4.203125 24.09375 -2.453125 Q 21.484375 -9.125 17.484375 -14.765625 Q 13.484375 -20.40625 7.90625 -24.8125 Q 7.71875 -25 7.421875 -25 z" id="p-cond-0-eq_Cmr10-29" stroke-linecap="butt" stroke-linejoin="round"></path></defs><g style="fill:#666666;" transform="translate(0 9)scale(0.12 -0.12)"><use xlink:href="#p-cond-0-eq_Cmmi10-70"></use><use transform="translate(50.292969 0)" xlink:href="#p-cond-0-eq_Cmr10-28"></use><use transform="translate(89.111328 0)" xlink:href="#p-cond-0-eq_Cmmi10-78"></use><use transform="translate(146.191406 -17.00625)scale(0.7)" xlink:href="#p-cond-0-eq_Cmr10-31"></use><use transform="translate(187.56875 0)" xlink:href="#p-cond-0-eq_Cmr10-29"></use></g></g></g><g id="p-cond-1-eq_figure_1"><g id="p-cond-1-eq_patch_1"><path d="M 0 12 L 46.56 12 L 46.56 0 L 0 0 z" stroke-linecap="butt" stroke-linejoin="round" style="fill:none;"></path></g><g id="p-cond-1-eq_text_1"><!-- $p(x_2 \mid x_1)$ --><defs><path d="M -2.484375 -19.390625 Q -3.421875 -19.390625 -3.421875 -18.109375 Q -3.078125 -15.921875 -2.09375 -15.921875 Q 1.03125 -15.921875 2.265625 -15.359375 Q 3.515625 -14.796875 4.203125 -12.5 L 15.484375 32.515625 Q 16.21875 34.375 16.21875 37.3125 Q 16.21875 41.609375 13.28125 41.609375 Q 10.15625 41.609375 8.640625 37.859375 Q 7.125 34.125 5.71875 28.421875 Q 5.71875 27.78125 4.890625 27.78125 L 3.71875 27.78125 Q 3.46875 27.78125 3.171875 28.140625 Q 2.875 28.515625 2.875 28.8125 Q 3.953125 33.15625 4.953125 36.171875 Q 5.953125 39.203125 8.078125 41.6875 Q 10.203125 44.1875 13.375 44.1875 Q 16.796875 44.1875 19.375 42.25 Q 21.96875 40.328125 22.703125 37.015625 Q 25.4375 40.1875 28.75 42.1875 Q 32.078125 44.1875 35.59375 44.1875 Q 39.796875 44.1875 42.890625 41.9375 Q 46 39.703125 47.5625 36.0625 Q 49.125 32.421875 49.125 28.21875 Q 49.125 21.78125 45.828125 14.890625 Q 42.53125 8.015625 36.890625 3.4375 Q 31.25 -1.125 24.8125 -1.125 Q 21.875 -1.125 19.5 0.53125 Q 17.140625 2.203125 15.828125 4.890625 L 11.28125 -12.890625 Q 11.03125 -14.359375 10.984375 -14.59375 Q 10.984375 -15.921875 17.578125 -15.921875 Q 18.609375 -15.921875 18.609375 -17.1875 Q 18.265625 -18.5 18.046875 -18.9375 Q 17.828125 -19.390625 16.890625 -19.390625 zM 24.90625 1.515625 Q 28.375 1.515625 31.34375 4.375 Q 34.328125 7.234375 36.1875 10.796875 Q 37.546875 13.484375 38.734375 17.359375 Q 39.9375 21.234375 40.8125 25.625 Q 41.703125 30.03125 41.703125 32.625 Q 41.703125 34.90625 41.09375 36.90625 Q 40.484375 38.921875 39.09375 40.265625 Q 37.703125 41.609375 35.40625 41.609375 Q 31.734375 41.609375 28.484375 38.984375 Q 25.25 36.375 22.609375 32.515625 L 22.609375 32.171875 L 17.09375 10.109375 Q 17.78125 6.546875 19.734375 4.03125 Q 21.6875 1.515625 24.90625 1.515625 z" id="p-cond-1-eq_Cmmi10-70" stroke-linecap="butt" stroke-linejoin="round"></path><path d="M 31 -24.8125 Q 25.4375 -20.40625 21.40625 -14.71875 Q 17.390625 -9.03125 14.8125 -2.578125 Q 12.25 3.859375 10.984375 10.890625 Q 9.71875 17.921875 9.71875 25 Q 9.71875 32.171875 10.984375 39.203125 Q 12.25 46.234375 14.859375 52.734375 Q 17.484375 59.234375 21.53125 64.890625 Q 25.59375 70.5625 31 74.8125 Q 31 75 31.5 75 L 32.421875 75 Q 32.71875 75 32.953125 74.734375 Q 33.203125 74.46875 33.203125 74.125 Q 33.203125 73.6875 33.015625 73.484375 Q 28.125 68.703125 24.875 63.234375 Q 21.625 57.765625 19.640625 51.578125 Q 17.671875 45.40625 16.796875 38.78125 Q 15.921875 32.171875 15.921875 25 Q 15.921875 -6.78125 32.90625 -23.296875 Q 33.203125 -23.578125 33.203125 -24.125 Q 33.203125 -24.359375 32.9375 -24.671875 Q 32.671875 -25 32.421875 -25 L 31.5 -25 Q 31 -25 31 -24.8125 z" id="p-cond-1-eq_Cmr10-28" stroke-linecap="butt" stroke-linejoin="round"></path><path d="M 7.8125 2.875 Q 9.578125 1.515625 12.796875 1.515625 Q 15.921875 1.515625 18.3125 4.515625 Q 20.703125 7.515625 21.578125 11.078125 L 26.125 28.8125 Q 27.203125 33.640625 27.203125 35.40625 Q 27.203125 37.890625 25.8125 39.75 Q 24.421875 41.609375 21.921875 41.609375 Q 18.75 41.609375 15.96875 39.625 Q 13.1875 37.640625 11.28125 34.59375 Q 9.375 31.546875 8.59375 28.421875 Q 8.40625 27.78125 7.8125 27.78125 L 6.59375 27.78125 Q 5.8125 27.78125 5.8125 28.71875 L 5.8125 29 Q 6.78125 32.71875 9.125 36.25 Q 11.46875 39.796875 14.859375 41.984375 Q 18.265625 44.1875 22.125 44.1875 Q 25.78125 44.1875 28.734375 42.234375 Q 31.6875 40.28125 32.90625 36.921875 Q 34.625 39.984375 37.28125 42.078125 Q 39.9375 44.1875 43.109375 44.1875 Q 45.265625 44.1875 47.5 43.421875 Q 49.75 42.671875 51.171875 41.109375 Q 52.59375 39.546875 52.59375 37.203125 Q 52.59375 34.671875 50.953125 32.828125 Q 49.3125 31 46.78125 31 Q 45.171875 31 44.09375 32.03125 Q 43.015625 33.0625 43.015625 34.625 Q 43.015625 36.71875 44.453125 38.296875 Q 45.90625 39.890625 47.90625 40.1875 Q 46.09375 41.609375 42.921875 41.609375 Q 39.703125 41.609375 37.328125 38.625 Q 34.96875 35.640625 33.984375 31.984375 L 29.59375 14.3125 Q 28.515625 10.296875 28.515625 7.71875 Q 28.515625 5.171875 29.953125 3.34375 Q 31.390625 1.515625 33.796875 1.515625 Q 38.484375 1.515625 42.15625 5.640625 Q 45.84375 9.765625 47.015625 14.703125 Q 47.21875 15.28125 47.796875 15.28125 L 49.03125 15.28125 Q 49.421875 15.28125 49.65625 15.015625 Q 49.90625 14.75 49.90625 14.40625 Q 49.90625 14.3125 49.8125 14.109375 Q 48.390625 8.15625 43.84375 3.515625 Q 39.3125 -1.125 33.59375 -1.125 Q 29.9375 -1.125 26.984375 0.84375 Q 24.03125 2.828125 22.796875 6.203125 Q 21.234375 3.265625 18.46875 1.0625 Q 15.71875 -1.125 12.59375 -1.125 Q 10.453125 -1.125 8.171875 -0.359375 Q 5.90625 0.390625 4.484375 1.953125 Q 3.078125 3.515625 3.078125 5.90625 Q 3.078125 8.25 4.703125 10.171875 Q 6.34375 12.109375 8.796875 12.109375 Q 10.453125 12.109375 11.578125 11.109375 Q 12.703125 10.109375 12.703125 8.5 Q 12.703125 6.390625 11.296875 4.828125 Q 9.90625 3.265625 7.8125 2.875 z" id="p-cond-1-eq_Cmmi10-78" stroke-linecap="butt" stroke-linejoin="round"></path><path d="M 4.984375 0 L 4.984375 2.6875 Q 4.984375 2.9375 5.171875 3.21875 L 20.703125 20.40625 Q 24.21875 24.21875 26.40625 26.796875 Q 28.609375 29.390625 30.75 32.765625 Q 32.90625 36.140625 34.15625 39.625 Q 35.40625 43.109375 35.40625 47.015625 Q 35.40625 51.125 33.890625 54.859375 Q 32.375 58.59375 29.375 60.84375 Q 26.375 63.09375 22.125 63.09375 Q 17.78125 63.09375 14.3125 60.46875 Q 10.84375 57.859375 9.421875 53.71875 Q 9.8125 53.8125 10.5 53.8125 Q 12.75 53.8125 14.328125 52.296875 Q 15.921875 50.78125 15.921875 48.390625 Q 15.921875 46.09375 14.328125 44.5 Q 12.75 42.921875 10.5 42.921875 Q 8.15625 42.921875 6.5625 44.546875 Q 4.984375 46.1875 4.984375 48.390625 Q 4.984375 52.15625 6.390625 55.4375 Q 7.8125 58.734375 10.46875 61.296875 Q 13.140625 63.875 16.484375 65.234375 Q 19.828125 66.609375 23.578125 66.609375 Q 29.296875 66.609375 34.21875 64.1875 Q 39.15625 61.765625 42.03125 57.34375 Q 44.921875 52.9375 44.921875 47.015625 Q 44.921875 42.671875 43.015625 38.765625 Q 41.109375 34.859375 38.125 31.65625 Q 35.15625 28.46875 30.515625 24.40625 Q 25.875 20.359375 24.421875 19 L 13.09375 8.109375 L 22.703125 8.109375 Q 29.78125 8.109375 34.546875 8.21875 Q 39.3125 8.34375 39.59375 8.59375 Q 40.765625 9.859375 42 17.828125 L 44.921875 17.828125 L 42.09375 0 z" id="p-cond-1-eq_Cmr10-32" stroke-linecap="butt" stroke-linejoin="round"></path><path d="M 11.921875 -23.1875 L 11.921875 73.1875 Q 11.921875 73.96875 12.5 74.484375 Q 13.09375 75 13.921875 75 Q 14.65625 75 15.28125 74.484375 Q 15.921875 73.96875 15.921875 73.1875 L 15.921875 -23.1875 Q 15.921875 -23.96875 15.28125 -24.484375 Q 14.65625 -25 13.921875 -25 Q 13.09375 -25 12.5 -24.484375 Q 11.921875 -23.96875 11.921875 -23.1875 z" id="p-cond-1-eq_Cmsy10-6a" stroke-linecap="butt" stroke-linejoin="round"></path><path d="M 9.28125 0 L 9.28125 3.515625 Q 21.78125 3.515625 21.78125 6.6875 L 21.78125 59.1875 Q 16.609375 56.6875 8.6875 56.6875 L 8.6875 60.203125 Q 20.953125 60.203125 27.203125 66.609375 L 28.609375 66.609375 Q 28.953125 66.609375 29.265625 66.328125 Q 29.59375 66.0625 29.59375 65.71875 L 29.59375 6.6875 Q 29.59375 3.515625 42.09375 3.515625 L 42.09375 0 z" id="p-cond-1-eq_Cmr10-31" stroke-linecap="butt" stroke-linejoin="round"></path><path d="M 6.5 -25 Q 5.609375 -25 5.609375 -24.125 Q 5.609375 -23.6875 5.8125 -23.484375 Q 22.90625 -6.78125 22.90625 25 Q 22.90625 56.78125 6 73.296875 Q 5.609375 73.53125 5.609375 74.125 Q 5.609375 74.46875 5.875 74.734375 Q 6.15625 75 6.5 75 L 7.421875 75 Q 7.71875 75 7.90625 74.8125 Q 15.09375 69.140625 19.875 61.03125 Q 24.65625 52.9375 26.875 43.75 Q 29.109375 34.578125 29.109375 25 Q 29.109375 17.921875 27.90625 11.0625 Q 26.703125 4.203125 24.09375 -2.453125 Q 21.484375 -9.125 17.484375 -14.765625 Q 13.484375 -20.40625 7.90625 -24.8125 Q 7.71875 -25 7.421875 -25 z" id="p-cond-1-eq_Cmr10-29" stroke-linecap="butt" stroke-linejoin="round"></path></defs><g style="fill:#666666;" transform="translate(0 9)scale(0.12 -0.12)"><use xlink:href="#p-cond-1-eq_Cmmi10-70"></use><use transform="translate(50.292969 0)" xlink:href="#p-cond-1-eq_Cmr10-28"></use><use transform="translate(89.111328 0)" xlink:href="#p-cond-1-eq_Cmmi10-78"></use><use transform="translate(146.191406 -17.00625)scale(0.7)" xlink:href="#p-cond-1-eq_Cmr10-32"></use><use transform="translate(205.127344 0)" xlink:href="#p-cond-1-eq_Cmsy10-6a"></use><use transform="translate(250.371484 0)" xlink:href="#p-cond-1-eq_Cmmi10-78"></use><use transform="translate(307.451563 -17.00625)scale(0.7)" xlink:href="#p-cond-1-eq_Cmr10-31"></use><use transform="translate(348.828906 0)" xlink:href="#p-cond-1-eq_Cmr10-29"></use></g></g></g><g id="p-cond-2-eq_figure_1"><g id="p-cond-2-eq_patch_1"><path d="M 0 12 L 63.84 12 L 63.84 0 L 0 0 z" stroke-linecap="butt" stroke-linejoin="round" style="fill:none;"></path></g><g id="p-cond-2-eq_text_1"><!-- $p(x_3 \mid x_1, x_2)$ --><defs><path d="M -2.484375 -19.390625 Q -3.421875 -19.390625 -3.421875 -18.109375 Q -3.078125 -15.921875 -2.09375 -15.921875 Q 1.03125 -15.921875 2.265625 -15.359375 Q 3.515625 -14.796875 4.203125 -12.5 L 15.484375 32.515625 Q 16.21875 34.375 16.21875 37.3125 Q 16.21875 41.609375 13.28125 41.609375 Q 10.15625 41.609375 8.640625 37.859375 Q 7.125 34.125 5.71875 28.421875 Q 5.71875 27.78125 4.890625 27.78125 L 3.71875 27.78125 Q 3.46875 27.78125 3.171875 28.140625 Q 2.875 28.515625 2.875 28.8125 Q 3.953125 33.15625 4.953125 36.171875 Q 5.953125 39.203125 8.078125 41.6875 Q 10.203125 44.1875 13.375 44.1875 Q 16.796875 44.1875 19.375 42.25 Q 21.96875 40.328125 22.703125 37.015625 Q 25.4375 40.1875 28.75 42.1875 Q 32.078125 44.1875 35.59375 44.1875 Q 39.796875 44.1875 42.890625 41.9375 Q 46 39.703125 47.5625 36.0625 Q 49.125 32.421875 49.125 28.21875 Q 49.125 21.78125 45.828125 14.890625 Q 42.53125 8.015625 36.890625 3.4375 Q 31.25 -1.125 24.8125 -1.125 Q 21.875 -1.125 19.5 0.53125 Q 17.140625 2.203125 15.828125 4.890625 L 11.28125 -12.890625 Q 11.03125 -14.359375 10.984375 -14.59375 Q 10.984375 -15.921875 17.578125 -15.921875 Q 18.609375 -15.921875 18.609375 -17.1875 Q 18.265625 -18.5 18.046875 -18.9375 Q 17.828125 -19.390625 16.890625 -19.390625 zM 24.90625 1.515625 Q 28.375 1.515625 31.34375 4.375 Q 34.328125 7.234375 36.1875 10.796875 Q 37.546875 13.484375 38.734375 17.359375 Q 39.9375 21.234375 40.8125 25.625 Q 41.703125 30.03125 41.703125 32.625 Q 41.703125 34.90625 41.09375 36.90625 Q 40.484375 38.921875 39.09375 40.265625 Q 37.703125 41.609375 35.40625 41.609375 Q 31.734375 41.609375 28.484375 38.984375 Q 25.25 36.375 22.609375 32.515625 L 22.609375 32.171875 L 17.09375 10.109375 Q 17.78125 6.546875 19.734375 4.03125 Q 21.6875 1.515625 24.90625 1.515625 z" id="p-cond-2-eq_Cmmi10-70" stroke-linecap="butt" stroke-linejoin="round"></path><path d="M 31 -24.8125 Q 25.4375 -20.40625 21.40625 -14.71875 Q 17.390625 -9.03125 14.8125 -2.578125 Q 12.25 3.859375 10.984375 10.890625 Q 9.71875 17.921875 9.71875 25 Q 9.71875 32.171875 10.984375 39.203125 Q 12.25 46.234375 14.859375 52.734375 Q 17.484375 59.234375 21.53125 64.890625 Q 25.59375 70.5625 31 74.8125 Q 31 75 31.5 75 L 32.421875 75 Q 32.71875 75 32.953125 74.734375 Q 33.203125 74.46875 33.203125 74.125 Q 33.203125 73.6875 33.015625 73.484375 Q 28.125 68.703125 24.875 63.234375 Q 21.625 57.765625 19.640625 51.578125 Q 17.671875 45.40625 16.796875 38.78125 Q 15.921875 32.171875 15.921875 25 Q 15.921875 -6.78125 32.90625 -23.296875 Q 33.203125 -23.578125 33.203125 -24.125 Q 33.203125 -24.359375 32.9375 -24.671875 Q 32.671875 -25 32.421875 -25 L 31.5 -25 Q 31 -25 31 -24.8125 z" id="p-cond-2-eq_Cmr10-28" stroke-linecap="butt" stroke-linejoin="round"></path><path d="M 7.8125 2.875 Q 9.578125 1.515625 12.796875 1.515625 Q 15.921875 1.515625 18.3125 4.515625 Q 20.703125 7.515625 21.578125 11.078125 L 26.125 28.8125 Q 27.203125 33.640625 27.203125 35.40625 Q 27.203125 37.890625 25.8125 39.75 Q 24.421875 41.609375 21.921875 41.609375 Q 18.75 41.609375 15.96875 39.625 Q 13.1875 37.640625 11.28125 34.59375 Q 9.375 31.546875 8.59375 28.421875 Q 8.40625 27.78125 7.8125 27.78125 L 6.59375 27.78125 Q 5.8125 27.78125 5.8125 28.71875 L 5.8125 29 Q 6.78125 32.71875 9.125 36.25 Q 11.46875 39.796875 14.859375 41.984375 Q 18.265625 44.1875 22.125 44.1875 Q 25.78125 44.1875 28.734375 42.234375 Q 31.6875 40.28125 32.90625 36.921875 Q 34.625 39.984375 37.28125 42.078125 Q 39.9375 44.1875 43.109375 44.1875 Q 45.265625 44.1875 47.5 43.421875 Q 49.75 42.671875 51.171875 41.109375 Q 52.59375 39.546875 52.59375 37.203125 Q 52.59375 34.671875 50.953125 32.828125 Q 49.3125 31 46.78125 31 Q 45.171875 31 44.09375 32.03125 Q 43.015625 33.0625 43.015625 34.625 Q 43.015625 36.71875 44.453125 38.296875 Q 45.90625 39.890625 47.90625 40.1875 Q 46.09375 41.609375 42.921875 41.609375 Q 39.703125 41.609375 37.328125 38.625 Q 34.96875 35.640625 33.984375 31.984375 L 29.59375 14.3125 Q 28.515625 10.296875 28.515625 7.71875 Q 28.515625 5.171875 29.953125 3.34375 Q 31.390625 1.515625 33.796875 1.515625 Q 38.484375 1.515625 42.15625 5.640625 Q 45.84375 9.765625 47.015625 14.703125 Q 47.21875 15.28125 47.796875 15.28125 L 49.03125 15.28125 Q 49.421875 15.28125 49.65625 15.015625 Q 49.90625 14.75 49.90625 14.40625 Q 49.90625 14.3125 49.8125 14.109375 Q 48.390625 8.15625 43.84375 3.515625 Q 39.3125 -1.125 33.59375 -1.125 Q 29.9375 -1.125 26.984375 0.84375 Q 24.03125 2.828125 22.796875 6.203125 Q 21.234375 3.265625 18.46875 1.0625 Q 15.71875 -1.125 12.59375 -1.125 Q 10.453125 -1.125 8.171875 -0.359375 Q 5.90625 0.390625 4.484375 1.953125 Q 3.078125 3.515625 3.078125 5.90625 Q 3.078125 8.25 4.703125 10.171875 Q 6.34375 12.109375 8.796875 12.109375 Q 10.453125 12.109375 11.578125 11.109375 Q 12.703125 10.109375 12.703125 8.5 Q 12.703125 6.390625 11.296875 4.828125 Q 9.90625 3.265625 7.8125 2.875 z" id="p-cond-2-eq_Cmmi10-78" stroke-linecap="butt" stroke-linejoin="round"></path><path d="M 9.515625 7.71875 Q 11.859375 4.296875 15.8125 2.640625 Q 19.78125 0.984375 24.3125 0.984375 Q 30.125 0.984375 32.5625 5.9375 Q 35.015625 10.890625 35.015625 17.1875 Q 35.015625 20.015625 34.5 22.84375 Q 33.984375 25.6875 32.765625 28.125 Q 31.546875 30.5625 29.421875 32.03125 Q 27.296875 33.5 24.21875 33.5 L 17.578125 33.5 Q 16.703125 33.5 16.703125 34.421875 L 16.703125 35.296875 Q 16.703125 36.078125 17.578125 36.078125 L 23.09375 36.53125 Q 26.609375 36.53125 28.921875 39.15625 Q 31.25 41.796875 32.328125 45.578125 Q 33.40625 49.359375 33.40625 52.78125 Q 33.40625 57.5625 31.15625 60.640625 Q 28.90625 63.71875 24.3125 63.71875 Q 20.515625 63.71875 17.046875 62.28125 Q 13.578125 60.84375 11.53125 57.90625 Q 11.71875 57.953125 11.859375 57.984375 Q 12.015625 58.015625 12.203125 58.015625 Q 14.453125 58.015625 15.96875 56.453125 Q 17.484375 54.890625 17.484375 52.6875 Q 17.484375 50.53125 15.96875 48.96875 Q 14.453125 47.40625 12.203125 47.40625 Q 10.015625 47.40625 8.453125 48.96875 Q 6.890625 50.53125 6.890625 52.6875 Q 6.890625 56.984375 9.46875 60.15625 Q 12.0625 63.328125 16.140625 64.96875 Q 20.21875 66.609375 24.3125 66.609375 Q 27.34375 66.609375 30.703125 65.703125 Q 34.078125 64.796875 36.8125 63.109375 Q 39.546875 61.421875 41.28125 58.78125 Q 43.015625 56.15625 43.015625 52.78125 Q 43.015625 48.578125 41.140625 45.015625 Q 39.265625 41.453125 35.984375 38.859375 Q 32.71875 36.28125 28.8125 35.015625 Q 33.15625 34.1875 37.0625 31.734375 Q 40.96875 29.296875 43.328125 25.484375 Q 45.703125 21.6875 45.703125 17.28125 Q 45.703125 11.765625 42.671875 7.296875 Q 39.65625 2.828125 34.71875 0.3125 Q 29.78125 -2.203125 24.3125 -2.203125 Q 19.625 -2.203125 14.90625 -0.40625 Q 10.203125 1.375 7.203125 4.9375 Q 4.203125 8.5 4.203125 13.484375 Q 4.203125 15.96875 5.859375 17.625 Q 7.515625 19.28125 10.015625 19.28125 Q 11.625 19.28125 12.96875 18.53125 Q 14.3125 17.78125 15.0625 16.40625 Q 15.828125 15.046875 15.828125 13.484375 Q 15.828125 11.03125 14.109375 9.375 Q 12.40625 7.71875 10.015625 7.71875 z" id="p-cond-2-eq_Cmr10-33" stroke-linecap="butt" stroke-linejoin="round"></path><path d="M 11.921875 -23.1875 L 11.921875 73.1875 Q 11.921875 73.96875 12.5 74.484375 Q 13.09375 75 13.921875 75 Q 14.65625 75 15.28125 74.484375 Q 15.921875 73.96875 15.921875 73.1875 L 15.921875 -23.1875 Q 15.921875 -23.96875 15.28125 -24.484375 Q 14.65625 -25 13.921875 -25 Q 13.09375 -25 12.5 -24.484375 Q 11.921875 -23.96875 11.921875 -23.1875 z" id="p-cond-2-eq_Cmsy10-6a" stroke-linecap="butt" stroke-linejoin="round"></path><path d="M 9.28125 0 L 9.28125 3.515625 Q 21.78125 3.515625 21.78125 6.6875 L 21.78125 59.1875 Q 16.609375 56.6875 8.6875 56.6875 L 8.6875 60.203125 Q 20.953125 60.203125 27.203125 66.609375 L 28.609375 66.609375 Q 28.953125 66.609375 29.265625 66.328125 Q 29.59375 66.0625 29.59375 65.71875 L 29.59375 6.6875 Q 29.59375 3.515625 42.09375 3.515625 L 42.09375 0 z" id="p-cond-2-eq_Cmr10-31" stroke-linecap="butt" stroke-linejoin="round"></path><path d="M 9.90625 -18.015625 Q 9.90625 -17.578125 10.296875 -17.1875 Q 13.921875 -13.71875 15.921875 -9.171875 Q 17.921875 -4.640625 17.921875 0.390625 L 17.921875 1.609375 Q 16.3125 0 13.921875 0 Q 11.625 0 10.015625 1.609375 Q 8.40625 3.21875 8.40625 5.515625 Q 8.40625 7.859375 10.015625 9.421875 Q 11.625 10.984375 13.921875 10.984375 Q 17.484375 10.984375 19 7.6875 Q 20.515625 4.390625 20.515625 0.390625 Q 20.515625 -5.171875 18.28125 -10.171875 Q 16.0625 -15.1875 12.015625 -19.1875 Q 11.625 -19.390625 11.375 -19.390625 Q 10.890625 -19.390625 10.390625 -18.9375 Q 9.90625 -18.5 9.90625 -18.015625 z" id="p-cond-2-eq_Cmmi10-3b" stroke-linecap="butt" stroke-linejoin="round"></path><path d="M 4.984375 0 L 4.984375 2.6875 Q 4.984375 2.9375 5.171875 3.21875 L 20.703125 20.40625 Q 24.21875 24.21875 26.40625 26.796875 Q 28.609375 29.390625 30.75 32.765625 Q 32.90625 36.140625 34.15625 39.625 Q 35.40625 43.109375 35.40625 47.015625 Q 35.40625 51.125 33.890625 54.859375 Q 32.375 58.59375 29.375 60.84375 Q 26.375 63.09375 22.125 63.09375 Q 17.78125 63.09375 14.3125 60.46875 Q 10.84375 57.859375 9.421875 53.71875 Q 9.8125 53.8125 10.5 53.8125 Q 12.75 53.8125 14.328125 52.296875 Q 15.921875 50.78125 15.921875 48.390625 Q 15.921875 46.09375 14.328125 44.5 Q 12.75 42.921875 10.5 42.921875 Q 8.15625 42.921875 6.5625 44.546875 Q 4.984375 46.1875 4.984375 48.390625 Q 4.984375 52.15625 6.390625 55.4375 Q 7.8125 58.734375 10.46875 61.296875 Q 13.140625 63.875 16.484375 65.234375 Q 19.828125 66.609375 23.578125 66.609375 Q 29.296875 66.609375 34.21875 64.1875 Q 39.15625 61.765625 42.03125 57.34375 Q 44.921875 52.9375 44.921875 47.015625 Q 44.921875 42.671875 43.015625 38.765625 Q 41.109375 34.859375 38.125 31.65625 Q 35.15625 28.46875 30.515625 24.40625 Q 25.875 20.359375 24.421875 19 L 13.09375 8.109375 L 22.703125 8.109375 Q 29.78125 8.109375 34.546875 8.21875 Q 39.3125 8.34375 39.59375 8.59375 Q 40.765625 9.859375 42 17.828125 L 44.921875 17.828125 L 42.09375 0 z" id="p-cond-2-eq_Cmr10-32" stroke-linecap="butt" stroke-linejoin="round"></path><path d="M 6.5 -25 Q 5.609375 -25 5.609375 -24.125 Q 5.609375 -23.6875 5.8125 -23.484375 Q 22.90625 -6.78125 22.90625 25 Q 22.90625 56.78125 6 73.296875 Q 5.609375 73.53125 5.609375 74.125 Q 5.609375 74.46875 5.875 74.734375 Q 6.15625 75 6.5 75 L 7.421875 75 Q 7.71875 75 7.90625 74.8125 Q 15.09375 69.140625 19.875 61.03125 Q 24.65625 52.9375 26.875 43.75 Q 29.109375 34.578125 29.109375 25 Q 29.109375 17.921875 27.90625 11.0625 Q 26.703125 4.203125 24.09375 -2.453125 Q 21.484375 -9.125 17.484375 -14.765625 Q 13.484375 -20.40625 7.90625 -24.8125 Q 7.71875 -25 7.421875 -25 z" id="p-cond-2-eq_Cmr10-29" stroke-linecap="butt" stroke-linejoin="round"></path></defs><g style="fill:#666666;" transform="translate(0 9)scale(0.12 -0.12)"><use xlink:href="#p-cond-2-eq_Cmmi10-70"></use><use transform="translate(50.292969 0)" xlink:href="#p-cond-2-eq_Cmr10-28"></use><use transform="translate(89.111328 0)" xlink:href="#p-cond-2-eq_Cmmi10-78"></use><use transform="translate(146.191406 -17.00625)scale(0.7)" xlink:href="#p-cond-2-eq_Cmr10-33"></use><use transform="translate(205.127344 0)" xlink:href="#p-cond-2-eq_Cmsy10-6a"></use><use transform="translate(250.371484 0)" xlink:href="#p-cond-2-eq_Cmmi10-78"></use><use transform="translate(307.451563 -17.00625)scale(0.7)" xlink:href="#p-cond-2-eq_Cmr10-31"></use><use transform="translate(348.828906 0)" xlink:href="#p-cond-2-eq_Cmmi10-3b"></use><use transform="translate(394.073047 0)" xlink:href="#p-cond-2-eq_Cmmi10-78"></use><use transform="translate(451.153125 -17.00625)scale(0.7)" xlink:href="#p-cond-2-eq_Cmr10-32"></use><use transform="translate(492.530469 0)" xlink:href="#p-cond-2-eq_Cmr10-29"></use></g></g></g><g id="p-cond-3-eq_figure_1"><g id="p-cond-3-eq_patch_1"><path d="M 0 12 L 81.12 12 L 81.12 0 L 0 0 z" stroke-linecap="butt" stroke-linejoin="round" style="fill:none;"></path></g><g id="p-cond-3-eq_text_1"><!-- $p(x_4 \mid x_1, x_2, x_3)$ --><defs><path d="M -2.484375 -19.390625 Q -3.421875 -19.390625 -3.421875 -18.109375 Q -3.078125 -15.921875 -2.09375 -15.921875 Q 1.03125 -15.921875 2.265625 -15.359375 Q 3.515625 -14.796875 4.203125 -12.5 L 15.484375 32.515625 Q 16.21875 34.375 16.21875 37.3125 Q 16.21875 41.609375 13.28125 41.609375 Q 10.15625 41.609375 8.640625 37.859375 Q 7.125 34.125 5.71875 28.421875 Q 5.71875 27.78125 4.890625 27.78125 L 3.71875 27.78125 Q 3.46875 27.78125 3.171875 28.140625 Q 2.875 28.515625 2.875 28.8125 Q 3.953125 33.15625 4.953125 36.171875 Q 5.953125 39.203125 8.078125 41.6875 Q 10.203125 44.1875 13.375 44.1875 Q 16.796875 44.1875 19.375 42.25 Q 21.96875 40.328125 22.703125 37.015625 Q 25.4375 40.1875 28.75 42.1875 Q 32.078125 44.1875 35.59375 44.1875 Q 39.796875 44.1875 42.890625 41.9375 Q 46 39.703125 47.5625 36.0625 Q 49.125 32.421875 49.125 28.21875 Q 49.125 21.78125 45.828125 14.890625 Q 42.53125 8.015625 36.890625 3.4375 Q 31.25 -1.125 24.8125 -1.125 Q 21.875 -1.125 19.5 0.53125 Q 17.140625 2.203125 15.828125 4.890625 L 11.28125 -12.890625 Q 11.03125 -14.359375 10.984375 -14.59375 Q 10.984375 -15.921875 17.578125 -15.921875 Q 18.609375 -15.921875 18.609375 -17.1875 Q 18.265625 -18.5 18.046875 -18.9375 Q 17.828125 -19.390625 16.890625 -19.390625 zM 24.90625 1.515625 Q 28.375 1.515625 31.34375 4.375 Q 34.328125 7.234375 36.1875 10.796875 Q 37.546875 13.484375 38.734375 17.359375 Q 39.9375 21.234375 40.8125 25.625 Q 41.703125 30.03125 41.703125 32.625 Q 41.703125 34.90625 41.09375 36.90625 Q 40.484375 38.921875 39.09375 40.265625 Q 37.703125 41.609375 35.40625 41.609375 Q 31.734375 41.609375 28.484375 38.984375 Q 25.25 36.375 22.609375 32.515625 L 22.609375 32.171875 L 17.09375 10.109375 Q 17.78125 6.546875 19.734375 4.03125 Q 21.6875 1.515625 24.90625 1.515625 z" id="p-cond-3-eq_Cmmi10-70" stroke-linecap="butt" stroke-linejoin="round"></path><path d="M 31 -24.8125 Q 25.4375 -20.40625 21.40625 -14.71875 Q 17.390625 -9.03125 14.8125 -2.578125 Q 12.25 3.859375 10.984375 10.890625 Q 9.71875 17.921875 9.71875 25 Q 9.71875 32.171875 10.984375 39.203125 Q 12.25 46.234375 14.859375 52.734375 Q 17.484375 59.234375 21.53125 64.890625 Q 25.59375 70.5625 31 74.8125 Q 31 75 31.5 75 L 32.421875 75 Q 32.71875 75 32.953125 74.734375 Q 33.203125 74.46875 33.203125 74.125 Q 33.203125 73.6875 33.015625 73.484375 Q 28.125 68.703125 24.875 63.234375 Q 21.625 57.765625 19.640625 51.578125 Q 17.671875 45.40625 16.796875 38.78125 Q 15.921875 32.171875 15.921875 25 Q 15.921875 -6.78125 32.90625 -23.296875 Q 33.203125 -23.578125 33.203125 -24.125 Q 33.203125 -24.359375 32.9375 -24.671875 Q 32.671875 -25 32.421875 -25 L 31.5 -25 Q 31 -25 31 -24.8125 z" id="p-cond-3-eq_Cmr10-28" stroke-linecap="butt" stroke-linejoin="round"></path><path d="M 7.8125 2.875 Q 9.578125 1.515625 12.796875 1.515625 Q 15.921875 1.515625 18.3125 4.515625 Q 20.703125 7.515625 21.578125 11.078125 L 26.125 28.8125 Q 27.203125 33.640625 27.203125 35.40625 Q 27.203125 37.890625 25.8125 39.75 Q 24.421875 41.609375 21.921875 41.609375 Q 18.75 41.609375 15.96875 39.625 Q 13.1875 37.640625 11.28125 34.59375 Q 9.375 31.546875 8.59375 28.421875 Q 8.40625 27.78125 7.8125 27.78125 L 6.59375 27.78125 Q 5.8125 27.78125 5.8125 28.71875 L 5.8125 29 Q 6.78125 32.71875 9.125 36.25 Q 11.46875 39.796875 14.859375 41.984375 Q 18.265625 44.1875 22.125 44.1875 Q 25.78125 44.1875 28.734375 42.234375 Q 31.6875 40.28125 32.90625 36.921875 Q 34.625 39.984375 37.28125 42.078125 Q 39.9375 44.1875 43.109375 44.1875 Q 45.265625 44.1875 47.5 43.421875 Q 49.75 42.671875 51.171875 41.109375 Q 52.59375 39.546875 52.59375 37.203125 Q 52.59375 34.671875 50.953125 32.828125 Q 49.3125 31 46.78125 31 Q 45.171875 31 44.09375 32.03125 Q 43.015625 33.0625 43.015625 34.625 Q 43.015625 36.71875 44.453125 38.296875 Q 45.90625 39.890625 47.90625 40.1875 Q 46.09375 41.609375 42.921875 41.609375 Q 39.703125 41.609375 37.328125 38.625 Q 34.96875 35.640625 33.984375 31.984375 L 29.59375 14.3125 Q 28.515625 10.296875 28.515625 7.71875 Q 28.515625 5.171875 29.953125 3.34375 Q 31.390625 1.515625 33.796875 1.515625 Q 38.484375 1.515625 42.15625 5.640625 Q 45.84375 9.765625 47.015625 14.703125 Q 47.21875 15.28125 47.796875 15.28125 L 49.03125 15.28125 Q 49.421875 15.28125 49.65625 15.015625 Q 49.90625 14.75 49.90625 14.40625 Q 49.90625 14.3125 49.8125 14.109375 Q 48.390625 8.15625 43.84375 3.515625 Q 39.3125 -1.125 33.59375 -1.125 Q 29.9375 -1.125 26.984375 0.84375 Q 24.03125 2.828125 22.796875 6.203125 Q 21.234375 3.265625 18.46875 1.0625 Q 15.71875 -1.125 12.59375 -1.125 Q 10.453125 -1.125 8.171875 -0.359375 Q 5.90625 0.390625 4.484375 1.953125 Q 3.078125 3.515625 3.078125 5.90625 Q 3.078125 8.25 4.703125 10.171875 Q 6.34375 12.109375 8.796875 12.109375 Q 10.453125 12.109375 11.578125 11.109375 Q 12.703125 10.109375 12.703125 8.5 Q 12.703125 6.390625 11.296875 4.828125 Q 9.90625 3.265625 7.8125 2.875 z" id="p-cond-3-eq_Cmmi10-78" stroke-linecap="butt" stroke-linejoin="round"></path><path d="M 2.78125 16.5 L 2.78125 20.015625 L 33.6875 66.109375 Q 34.03125 66.609375 34.71875 66.609375 L 36.1875 66.609375 Q 37.3125 66.609375 37.3125 65.484375 L 37.3125 20.015625 L 47.125 20.015625 L 47.125 16.5 L 37.3125 16.5 L 37.3125 6.6875 Q 37.3125 4.640625 40.234375 4.078125 Q 43.171875 3.515625 47.015625 3.515625 L 47.015625 0 L 19.484375 0 L 19.484375 3.515625 Q 23.34375 3.515625 26.265625 4.078125 Q 29.203125 4.640625 29.203125 6.6875 L 29.203125 16.5 zM 6.109375 20.015625 L 29.78125 20.015625 L 29.78125 55.421875 z" id="p-cond-3-eq_Cmr10-34" stroke-linecap="butt" stroke-linejoin="round"></path><path d="M 11.921875 -23.1875 L 11.921875 73.1875 Q 11.921875 73.96875 12.5 74.484375 Q 13.09375 75 13.921875 75 Q 14.65625 75 15.28125 74.484375 Q 15.921875 73.96875 15.921875 73.1875 L 15.921875 -23.1875 Q 15.921875 -23.96875 15.28125 -24.484375 Q 14.65625 -25 13.921875 -25 Q 13.09375 -25 12.5 -24.484375 Q 11.921875 -23.96875 11.921875 -23.1875 z" id="p-cond-3-eq_Cmsy10-6a" stroke-linecap="butt" stroke-linejoin="round"></path><path d="M 9.28125 0 L 9.28125 3.515625 Q 21.78125 3.515625 21.78125 6.6875 L 21.78125 59.1875 Q 16.609375 56.6875 8.6875 56.6875 L 8.6875 60.203125 Q 20.953125 60.203125 27.203125 66.609375 L 28.609375 66.609375 Q 28.953125 66.609375 29.265625 66.328125 Q 29.59375 66.0625 29.59375 65.71875 L 29.59375 6.6875 Q 29.59375 3.515625 42.09375 3.515625 L 42.09375 0 z" id="p-cond-3-eq_Cmr10-31" stroke-linecap="butt" stroke-linejoin="round"></path><path d="M 9.90625 -18.015625 Q 9.90625 -17.578125 10.296875 -17.1875 Q 13.921875 -13.71875 15.921875 -9.171875 Q 17.921875 -4.640625 17.921875 0.390625 L 17.921875 1.609375 Q 16.3125 0 13.921875 0 Q 11.625 0 10.015625 1.609375 Q 8.40625 3.21875 8.40625 5.515625 Q 8.40625 7.859375 10.015625 9.421875 Q 11.625 10.984375 13.921875 10.984375 Q 17.484375 10.984375 19 7.6875 Q 20.515625 4.390625 20.515625 0.390625 Q 20.515625 -5.171875 18.28125 -10.171875 Q 16.0625 -15.1875 12.015625 -19.1875 Q 11.625 -19.390625 11.375 -19.390625 Q 10.890625 -19.390625 10.390625 -18.9375 Q 9.90625 -18.5 9.90625 -18.015625 z" id="p-cond-3-eq_Cmmi10-3b" stroke-linecap="butt" stroke-linejoin="round"></path><path d="M 4.984375 0 L 4.984375 2.6875 Q 4.984375 2.9375 5.171875 3.21875 L 20.703125 20.40625 Q 24.21875 24.21875 26.40625 26.796875 Q 28.609375 29.390625 30.75 32.765625 Q 32.90625 36.140625 34.15625 39.625 Q 35.40625 43.109375 35.40625 47.015625 Q 35.40625 51.125 33.890625 54.859375 Q 32.375 58.59375 29.375 60.84375 Q 26.375 63.09375 22.125 63.09375 Q 17.78125 63.09375 14.3125 60.46875 Q 10.84375 57.859375 9.421875 53.71875 Q 9.8125 53.8125 10.5 53.8125 Q 12.75 53.8125 14.328125 52.296875 Q 15.921875 50.78125 15.921875 48.390625 Q 15.921875 46.09375 14.328125 44.5 Q 12.75 42.921875 10.5 42.921875 Q 8.15625 42.921875 6.5625 44.546875 Q 4.984375 46.1875 4.984375 48.390625 Q 4.984375 52.15625 6.390625 55.4375 Q 7.8125 58.734375 10.46875 61.296875 Q 13.140625 63.875 16.484375 65.234375 Q 19.828125 66.609375 23.578125 66.609375 Q 29.296875 66.609375 34.21875 64.1875 Q 39.15625 61.765625 42.03125 57.34375 Q 44.921875 52.9375 44.921875 47.015625 Q 44.921875 42.671875 43.015625 38.765625 Q 41.109375 34.859375 38.125 31.65625 Q 35.15625 28.46875 30.515625 24.40625 Q 25.875 20.359375 24.421875 19 L 13.09375 8.109375 L 22.703125 8.109375 Q 29.78125 8.109375 34.546875 8.21875 Q 39.3125 8.34375 39.59375 8.59375 Q 40.765625 9.859375 42 17.828125 L 44.921875 17.828125 L 42.09375 0 z" id="p-cond-3-eq_Cmr10-32" stroke-linecap="butt" stroke-linejoin="round"></path><path d="M 9.515625 7.71875 Q 11.859375 4.296875 15.8125 2.640625 Q 19.78125 0.984375 24.3125 0.984375 Q 30.125 0.984375 32.5625 5.9375 Q 35.015625 10.890625 35.015625 17.1875 Q 35.015625 20.015625 34.5 22.84375 Q 33.984375 25.6875 32.765625 28.125 Q 31.546875 30.5625 29.421875 32.03125 Q 27.296875 33.5 24.21875 33.5 L 17.578125 33.5 Q 16.703125 33.5 16.703125 34.421875 L 16.703125 35.296875 Q 16.703125 36.078125 17.578125 36.078125 L 23.09375 36.53125 Q 26.609375 36.53125 28.921875 39.15625 Q 31.25 41.796875 32.328125 45.578125 Q 33.40625 49.359375 33.40625 52.78125 Q 33.40625 57.5625 31.15625 60.640625 Q 28.90625 63.71875 24.3125 63.71875 Q 20.515625 63.71875 17.046875 62.28125 Q 13.578125 60.84375 11.53125 57.90625 Q 11.71875 57.953125 11.859375 57.984375 Q 12.015625 58.015625 12.203125 58.015625 Q 14.453125 58.015625 15.96875 56.453125 Q 17.484375 54.890625 17.484375 52.6875 Q 17.484375 50.53125 15.96875 48.96875 Q 14.453125 47.40625 12.203125 47.40625 Q 10.015625 47.40625 8.453125 48.96875 Q 6.890625 50.53125 6.890625 52.6875 Q 6.890625 56.984375 9.46875 60.15625 Q 12.0625 63.328125 16.140625 64.96875 Q 20.21875 66.609375 24.3125 66.609375 Q 27.34375 66.609375 30.703125 65.703125 Q 34.078125 64.796875 36.8125 63.109375 Q 39.546875 61.421875 41.28125 58.78125 Q 43.015625 56.15625 43.015625 52.78125 Q 43.015625 48.578125 41.140625 45.015625 Q 39.265625 41.453125 35.984375 38.859375 Q 32.71875 36.28125 28.8125 35.015625 Q 33.15625 34.1875 37.0625 31.734375 Q 40.96875 29.296875 43.328125 25.484375 Q 45.703125 21.6875 45.703125 17.28125 Q 45.703125 11.765625 42.671875 7.296875 Q 39.65625 2.828125 34.71875 0.3125 Q 29.78125 -2.203125 24.3125 -2.203125 Q 19.625 -2.203125 14.90625 -0.40625 Q 10.203125 1.375 7.203125 4.9375 Q 4.203125 8.5 4.203125 13.484375 Q 4.203125 15.96875 5.859375 17.625 Q 7.515625 19.28125 10.015625 19.28125 Q 11.625 19.28125 12.96875 18.53125 Q 14.3125 17.78125 15.0625 16.40625 Q 15.828125 15.046875 15.828125 13.484375 Q 15.828125 11.03125 14.109375 9.375 Q 12.40625 7.71875 10.015625 7.71875 z" id="p-cond-3-eq_Cmr10-33" stroke-linecap="butt" stroke-linejoin="round"></path><path d="M 6.5 -25 Q 5.609375 -25 5.609375 -24.125 Q 5.609375 -23.6875 5.8125 -23.484375 Q 22.90625 -6.78125 22.90625 25 Q 22.90625 56.78125 6 73.296875 Q 5.609375 73.53125 5.609375 74.125 Q 5.609375 74.46875 5.875 74.734375 Q 6.15625 75 6.5 75 L 7.421875 75 Q 7.71875 75 7.90625 74.8125 Q 15.09375 69.140625 19.875 61.03125 Q 24.65625 52.9375 26.875 43.75 Q 29.109375 34.578125 29.109375 25 Q 29.109375 17.921875 27.90625 11.0625 Q 26.703125 4.203125 24.09375 -2.453125 Q 21.484375 -9.125 17.484375 -14.765625 Q 13.484375 -20.40625 7.90625 -24.8125 Q 7.71875 -25 7.421875 -25 z" id="p-cond-3-eq_Cmr10-29" stroke-linecap="butt" stroke-linejoin="round"></path></defs><g style="fill:#666666;" transform="translate(0 9)scale(0.12 -0.12)"><use xlink:href="#p-cond-3-eq_Cmmi10-70"></use><use transform="translate(50.292969 0)" xlink:href="#p-cond-3-eq_Cmr10-28"></use><use transform="translate(89.111328 0)" xlink:href="#p-cond-3-eq_Cmmi10-78"></use><use transform="translate(146.191406 -17.00625)scale(0.7)" xlink:href="#p-cond-3-eq_Cmr10-34"></use><use transform="translate(205.127344 0)" xlink:href="#p-cond-3-eq_Cmsy10-6a"></use><use transform="translate(250.371484 0)" xlink:href="#p-cond-3-eq_Cmmi10-78"></use><use transform="translate(307.451563 -17.00625)scale(0.7)" xlink:href="#p-cond-3-eq_Cmr10-31"></use><use transform="translate(348.828906 0)" xlink:href="#p-cond-3-eq_Cmmi10-3b"></use><use transform="translate(394.073047 0)" xlink:href="#p-cond-3-eq_Cmmi10-78"></use><use transform="translate(451.153125 -17.00625)scale(0.7)" xlink:href="#p-cond-3-eq_Cmr10-32"></use><use transform="translate(492.530469 0)" xlink:href="#p-cond-3-eq_Cmmi10-3b"></use><use transform="translate(537.774609 0)" xlink:href="#p-cond-3-eq_Cmmi10-78"></use><use transform="translate(594.854687 -17.00625)scale(0.7)" xlink:href="#p-cond-3-eq_Cmr10-33"></use><use transform="translate(636.232031 0)" xlink:href="#p-cond-3-eq_Cmr10-29"></use></g></g></g></defs><path d="M 0.7704 0.0558 A 1 1 0 0 1 2.2296 0.0558" fill="none" id="path-0-1-red" opacity="0" stroke="#8c2323" stroke-dasharray="0.5" stroke-dashoffset="0" stroke-linecap="butt" stroke-linejoin="round" stroke-width="0.2"></path><path d="M 0.75 0.067 A 1 1 0 0 1 2.25 0.067" fill="none" id="path-0-1" stroke="#666666" stroke-dasharray="3.1416" stroke-dashoffset="3.1416" stroke-linecap="round" stroke-linejoin="round" stroke-width="0.05"></path><path d="M 0.6352 -0.0021 A 2 2 0 0 1 4.3648 -0.0021" fill="none" id="path-0-2-red" opacity="0" stroke="#8c2323" stroke-dasharray="0.5" stroke-dashoffset="0" stroke-linecap="butt" stroke-linejoin="round" stroke-width="0.2"></path><path d="M 0.625 0.0159 A 2 2 0 0 1 4.375 0.0159" fill="none" id="path-0-2" stroke="#666666" stroke-dasharray="6.2832" stroke-dashoffset="6.2832" stroke-linecap="round" stroke-linejoin="round" stroke-width="0.05"></path><path d="M 0.5901 -0.0121 A 3 3 0 0 1 6.4099 -0.0121" fill="none" id="path-0-3-red" opacity="0" stroke="#8c2323" stroke-dasharray="0.5" stroke-dashoffset="0" stroke-linecap="butt" stroke-linejoin="round" stroke-width="0.2"></path><path d="M 0.5833 0.007 A 3 3 0 0 1 6.4167 0.007" fill="none" id="path-0-3" stroke="#666666" stroke-dasharray="9.4248" stroke-dashoffset="9.4248" stroke-linecap="round" stroke-linejoin="round" stroke-width="0.05"></path><path d="M 2.7704 0.0558 A 1 1 0 0 1 4.2296 0.0558" fill="none" id="path-1-2-red" opacity="0" stroke="#8c2323" stroke-dasharray="0.5" stroke-dashoffset="0" stroke-linecap="butt" stroke-linejoin="round" stroke-width="0.2"></path><path d="M 2.75 0.067 A 1 1 0 0 1 4.25 0.067" fill="none" id="path-1-2" stroke="#666666" stroke-dasharray="3.1416" stroke-dashoffset="3.1416" stroke-linecap="round" stroke-linejoin="round" stroke-width="0.05"></path><path d="M 2.6352 -0.0021 A 2 2 0 0 1 6.3648 -0.0021" fill="none" id="path-1-3-red" opacity="0" stroke="#8c2323" stroke-dasharray="0.5" stroke-dashoffset="0" stroke-linecap="butt" stroke-linejoin="round" stroke-width="0.2"></path><path d="M 2.625 0.0159 A 2 2 0 0 1 6.375 0.0159" fill="none" id="path-1-3" stroke="#666666" stroke-dasharray="6.2832" stroke-dashoffset="6.2832" stroke-linecap="round" stroke-linejoin="round" stroke-width="0.05"></path><path d="M 4.7704 0.0558 A 1 1 0 0 1 6.2296 0.0558" fill="none" id="path-2-3-red" opacity="0" stroke="#8c2323" stroke-dasharray="0.5" stroke-dashoffset="0" stroke-linecap="butt" stroke-linejoin="round" stroke-width="0.2"></path><path d="M 4.75 0.067 A 1 1 0 0 1 6.25 0.067" fill="none" id="path-2-3" stroke="#666666" stroke-dasharray="3.1416" stroke-dashoffset="3.1416" stroke-linecap="round" stroke-linejoin="round" stroke-width="0.05"></path><circle cx="0.5" cy="0.5" fill="#8c2323" fill-opacity="1" id="x-0-red" opacity="0" r="0.5" stroke="#666666" stroke-width="0.05"></circle><use id="x-0-eq" opacity="0" transform="scale(0.05)" x="3" xlink:href="#x-0-eq_figure_1" y="4.5"></use><circle cx="0.5" cy="0.5" fill="#8c2323" fill-opacity="0" id="x-0" opacity="1" r="0.5" stroke="#666666" stroke-width="0.05"></circle><circle cx="2.5" cy="0.5" fill="#8c2323" fill-opacity="1" id="x-1-red" opacity="0" r="0.5" stroke="#666666" stroke-width="0.05"></circle><use id="x-1-eq" opacity="0" transform="scale(0.05)" x="43" xlink:href="#x-1-eq_figure_1" y="4.5"></use><circle cx="0.5" cy="0.5" fill="#8c2323" fill-opacity="0" id="x-1" opacity="1" r="0.5" stroke="#666666" stroke-width="0.05"></circle><circle cx="4.5" cy="0.5" fill="#8c2323" fill-opacity="1" id="x-2-red" opacity="0" r="0.5" stroke="#666666" stroke-width="0.05"></circle><use id="x-2-eq" opacity="0" transform="scale(0.05)" x="83" xlink:href="#x-2-eq_figure_1" y="4.5"></use><circle cx="0.5" cy="0.5" fill="#8c2323" fill-opacity="0" id="x-2" opacity="1" r="0.5" stroke="#666666" stroke-width="0.05"></circle><circle cx="6.5" cy="0.5" fill="#8c2323" fill-opacity="1" id="x-3-red" opacity="0" r="0.5" stroke="#666666" stroke-width="0.05"></circle><use id="x-3-eq" opacity="0" transform="scale(0.05)" x="123" xlink:href="#x-3-eq_figure_1" y="4.5"></use><circle cx="0.5" cy="0.5" fill="#8c2323" fill-opacity="0" id="x-3" opacity="1" r="0.5" stroke="#666666" stroke-width="0.05"></circle><animate attributeName="width" begin="mouseenter + 0s;mouseover + 0s;touchstart + 0s" dur="0.001s" fill="freeze" from="9" id="close-revealer" to="0" xlink:href="#revealer"></animate><animate attributeName="cx" begin="close-revealer.begin + 0s" dur="0.0s" fill="freeze" from="0.5" id="shift-x-0" to="0.5" xlink:href="#x-0"></animate><animate attributeName="opacity" begin="close-revealer.begin + 0.0s" dur="0.5s" fill="freeze" from="0" id="fade-in-x-eq-0" to="1" xlink:href="#x-0-eq"></animate><animate attributeName="opacity" begin="close-revealer.begin + 0.0s" dur="0.5s" fill="freeze" from="0" id="fade-in-p-cond-0-eq" to="1" xlink:href="#p-cond-0-eq"></animate><animate attributeName="cx" begin="close-revealer.begin + 0s" dur="0.3333333333333333s" fill="freeze" from="0.5" id="shift-x-1" to="2.5" xlink:href="#x-1"></animate><animate attributeName="opacity" begin="close-revealer.begin + 0.3333333333333333s" dur="0.5s" fill="freeze" from="0" id="fade-in-x-eq-1" to="1" xlink:href="#x-1-eq"></animate><animate attributeName="opacity" begin="close-revealer.begin + 0.3333333333333333s" dur="0.5s" fill="freeze" from="0" id="fade-in-p-cond-1-eq" to="1" xlink:href="#p-cond-1-eq"></animate><animate attributeName="cx" begin="close-revealer.begin + 0s" dur="0.6666666666666666s" fill="freeze" from="0.5" id="shift-x-2" to="4.5" xlink:href="#x-2"></animate><animate attributeName="opacity" begin="close-revealer.begin + 0.6666666666666666s" dur="0.5s" fill="freeze" from="0" id="fade-in-x-eq-2" to="1" xlink:href="#x-2-eq"></animate><animate attributeName="opacity" begin="close-revealer.begin + 0.6666666666666666s" dur="0.5s" fill="freeze" from="0" id="fade-in-p-cond-2-eq" to="1" xlink:href="#p-cond-2-eq"></animate><animate attributeName="cx" begin="close-revealer.begin + 0s" dur="1.0s" fill="freeze" from="0.5" id="shift-x-3" to="6.5" xlink:href="#x-3"></animate><animate attributeName="opacity" begin="close-revealer.begin + 1.0s" dur="0.5s" fill="freeze" from="0" id="fade-in-x-eq-3" to="1" xlink:href="#x-3-eq"></animate><animate attributeName="opacity" begin="close-revealer.begin + 1.0s" dur="0.5s" fill="freeze" from="0" id="fade-in-p-cond-3-eq" to="1" xlink:href="#p-cond-3-eq"></animate><animate attributeName="opacity" begin="close-revealer.begin + 0s" dur="0.5s" fill="freeze" from="0" id="fade-in-p-joint-eq" to="1" xlink:href="#p-joint-eq"></animate><animate attributeName="stroke-dashoffset" begin="close-revealer.begin + 1.0s" dur="0.5s" fill="freeze" from="3.1416" id="trace-path-0-1" to="0" xlink:href="#path-0-1"></animate><animate attributeName="marker-end" begin="close-revealer.begin + 1.5s" dur="0.001s" fill="freeze" id="arrow-path-0-1" to="url(#arrowhead)" xlink:href="#path-0-1"></animate><animate attributeName="stroke-dashoffset" begin="close-revealer.begin + 1.0s" dur="0.5s" fill="freeze" from="6.2832" id="trace-path-0-2" to="0" xlink:href="#path-0-2"></animate><animate attributeName="marker-end" begin="close-revealer.begin + 1.5s" dur="0.001s" fill="freeze" id="arrow-path-0-2" to="url(#arrowhead)" xlink:href="#path-0-2"></animate><animate attributeName="stroke-dashoffset" begin="close-revealer.begin + 1.0s" dur="0.5s" fill="freeze" from="9.4248" id="trace-path-0-3" to="0" xlink:href="#path-0-3"></animate><animate attributeName="marker-end" begin="close-revealer.begin + 1.5s" dur="0.001s" fill="freeze" id="arrow-path-0-3" to="url(#arrowhead)" xlink:href="#path-0-3"></animate><animate attributeName="stroke-dashoffset" begin="close-revealer.begin + 1.0s" dur="0.5s" fill="freeze" from="3.1416" id="trace-path-1-2" to="0" xlink:href="#path-1-2"></animate><animate attributeName="marker-end" begin="close-revealer.begin + 1.5s" dur="0.001s" fill="freeze" id="arrow-path-1-2" to="url(#arrowhead)" xlink:href="#path-1-2"></animate><animate attributeName="stroke-dashoffset" begin="close-revealer.begin + 1.0s" dur="0.5s" fill="freeze" from="6.2832" id="trace-path-1-3" to="0" xlink:href="#path-1-3"></animate><animate attributeName="marker-end" begin="close-revealer.begin + 1.5s" dur="0.001s" fill="freeze" id="arrow-path-1-3" to="url(#arrowhead)" xlink:href="#path-1-3"></animate><animate attributeName="stroke-dashoffset" begin="close-revealer.begin + 1.0s" dur="0.5s" fill="freeze" from="3.1416" id="trace-path-2-3" to="0" xlink:href="#path-2-3"></animate><animate attributeName="marker-end" begin="close-revealer.begin + 1.5s" dur="0.001s" fill="freeze" id="arrow-path-2-3" to="url(#arrowhead)" xlink:href="#path-2-3"></animate><use id="p-joint-eq" opacity="0" transform="scale(0.0333)" x="59" xlink:href="#p-joint-eq_figure_1" y="42"></use><rect fill="#8c2323" height="0.6" id="highlighter-0-bg" opacity="0" rx="1%" stroke="rgb(0,0,0)" stroke-width="0" width="1.1" x="-0.2167" y="1.9"></rect><use id="p-cond-0-eq" opacity="0" transform="scale(0.0333)" x="-3.5" xlink:href="#p-cond-0-eq_figure_1" y="60"></use><rect fill="#8c2323" height="0.4" id="highlighter-0" opacity="0" stroke="rgb(0,0,0)" stroke-width="0" width="0.9" x="-0.1167" y="2"></rect><animate attributeName="opacity" begin="highlighter-0.mouseenter + 0s;x-0.mouseenter + 0s;highlighter-0.mouseover + 0s;x-0.mouseover + 0s;highlighter-0.touchstart + 0s;x-0.touchstart + 0s" dur="0.5s" fill="freeze" from="0.0" id="highlight-node-0" to="0.5" xlink:href="#x-0-red"></animate><animate attributeName="opacity" begin="highlight-node-0.begin + 0s" dur="0.5s" fill="freeze" from="0.0" id="highlight-eq-0" to="0.5" xlink:href="#highlighter-0-bg"></animate><animate attributeName="opacity" begin="highlighter-0.mouseleave + 0s;x-0.mouseleave + 0s;highlighter-0.mouseout + 0s;x-0.mouseout + 0s;highlighter-0.touchend + 0s;x-0.touchend + 0s" dur="0.5s" fill="freeze" from="0.5" id="regular-node-0" to="0.0" xlink:href="#x-0-red"></animate><animate attributeName="opacity" begin="regular-node-0.begin + 0s" dur="0.5s" fill="freeze" from="0.5" id="regular-eq-0" to="0.0" xlink:href="#highlighter-0-bg"></animate><rect fill="#8c2323" height="0.6" id="highlighter-1-bg" opacity="0" rx="1%" stroke="rgb(0,0,0)" stroke-width="0" width="1.7333" x="0.6833" y="1.9"></rect><use id="p-cond-1-eq" opacity="0" transform="scale(0.0333)" x="23.5" xlink:href="#p-cond-1-eq_figure_1" y="60"></use><rect fill="#8c2323" height="0.4" id="highlighter-1" opacity="0" stroke="rgb(0,0,0)" stroke-width="0" width="1.5333" x="0.7833" y="2"></rect><animate attributeName="opacity" begin="highlighter-1.mouseenter + 0s;x-1.mouseenter + 0s;highlighter-1.mouseover + 0s;x-1.mouseover + 0s;highlighter-1.touchstart + 0s;x-1.touchstart + 0s" dur="0.5s" fill="freeze" from="0.0" id="highlight-node-1" to="0.5" xlink:href="#x-1-red"></animate><animate attributeName="opacity" begin="highlight-node-1.begin + 0s" dur="0.5s" fill="freeze" from="0.0" id="highlight-eq-1" to="0.5" xlink:href="#highlighter-1-bg"></animate><animate attributeName="opacity" begin="highlight-node-1.begin + 0s" dur="0.5s" fill="freeze" from="0.0" id="highlight-path-0-1" to="0.5" xlink:href="#path-0-1-red"></animate><animate attributeName="opacity" begin="highlighter-1.mouseleave + 0s;x-1.mouseleave + 0s;highlighter-1.mouseout + 0s;x-1.mouseout + 0s;highlighter-1.touchend + 0s;x-1.touchend + 0s" dur="0.5s" fill="freeze" from="0.5" id="regular-node-1" to="0.0" xlink:href="#x-1-red"></animate><animate attributeName="opacity" begin="regular-node-1.begin + 0s" dur="0.5s" fill="freeze" from="0.5" id="regular-eq-1" to="0.0" xlink:href="#highlighter-1-bg"></animate><animate attributeName="opacity" begin="regular-node-1.begin + 0s" dur="0.5s" fill="freeze" from="0.5" id="regular-path-0-1" to="0.0" xlink:href="#path-0-1-red"></animate><animate attributeName="stroke-dashoffset" begin="0s" dur="0.5s" fill="freeze" from="0" id="move-dash-path-0-1" repeatCount="indefinite" to="-1.0" xlink:href="#path-0-1-red"></animate><rect fill="#8c2323" height="0.6" id="highlighter-2-bg" opacity="0" rx="1%" stroke="rgb(0,0,0)" stroke-width="0" width="2.3" x="2.2167" y="1.9"></rect><use id="p-cond-2-eq" opacity="0" transform="scale(0.0333)" x="69.5" xlink:href="#p-cond-2-eq_figure_1" y="60"></use><rect fill="#8c2323" height="0.4" id="highlighter-2" opacity="0" stroke="rgb(0,0,0)" stroke-width="0" width="2.1" x="2.3167" y="2"></rect><animate attributeName="opacity" begin="highlighter-2.mouseenter + 0s;x-2.mouseenter + 0s;highlighter-2.mouseover + 0s;x-2.mouseover + 0s;highlighter-2.touchstart + 0s;x-2.touchstart + 0s" dur="0.5s" fill="freeze" from="0.0" id="highlight-node-2" to="0.5" xlink:href="#x-2-red"></animate><animate attributeName="opacity" begin="highlight-node-2.begin + 0s" dur="0.5s" fill="freeze" from="0.0" id="highlight-eq-2" to="0.5" xlink:href="#highlighter-2-bg"></animate><animate attributeName="opacity" begin="highlight-node-2.begin + 0s" dur="0.5s" fill="freeze" from="0.0" id="highlight-path-0-2" to="0.5" xlink:href="#path-0-2-red"></animate><animate attributeName="opacity" begin="highlight-node-2.begin + 0s" dur="0.5s" fill="freeze" from="0.0" id="highlight-path-1-2" to="0.5" xlink:href="#path-1-2-red"></animate><animate attributeName="opacity" begin="highlighter-2.mouseleave + 0s;x-2.mouseleave + 0s;highlighter-2.mouseout + 0s;x-2.mouseout + 0s;highlighter-2.touchend + 0s;x-2.touchend + 0s" dur="0.5s" fill="freeze" from="0.5" id="regular-node-2" to="0.0" xlink:href="#x-2-red"></animate><animate attributeName="opacity" begin="regular-node-2.begin + 0s" dur="0.5s" fill="freeze" from="0.5" id="regular-eq-2" to="0.0" xlink:href="#highlighter-2-bg"></animate><animate attributeName="opacity" begin="regular-node-2.begin + 0s" dur="0.5s" fill="freeze" from="0.5" id="regular-path-0-2" to="0.0" xlink:href="#path-0-2-red"></animate><animate attributeName="stroke-dashoffset" begin="0s" dur="0.5s" fill="freeze" from="0" id="move-dash-path-0-2" repeatCount="indefinite" to="-1.0" xlink:href="#path-0-2-red"></animate><animate attributeName="opacity" begin="regular-node-2.begin + 0s" dur="0.5s" fill="freeze" from="0.5" id="regular-path-1-2" to="0.0" xlink:href="#path-1-2-red"></animate><animate attributeName="stroke-dashoffset" begin="0s" dur="0.5s" fill="freeze" from="0" id="move-dash-path-1-2" repeatCount="indefinite" to="-1.0" xlink:href="#path-1-2-red"></animate><rect fill="#8c2323" height="0.6" id="highlighter-3-bg" opacity="0" rx="1%" stroke="rgb(0,0,0)" stroke-width="0" width="2.9" x="4.3167" y="1.9"></rect><use id="p-cond-3-eq" opacity="0" transform="scale(0.0333)" x="132.5" xlink:href="#p-cond-3-eq_figure_1" y="60"></use><rect fill="#8c2323" height="0.4" id="highlighter-3" opacity="0" stroke="rgb(0,0,0)" stroke-width="0" width="2.7" x="4.4167" y="2"></rect><animate attributeName="opacity" begin="highlighter-3.mouseenter + 0s;x-3.mouseenter + 0s;highlighter-3.mouseover + 0s;x-3.mouseover + 0s;highlighter-3.touchstart + 0s;x-3.touchstart + 0s" dur="0.5s" fill="freeze" from="0.0" id="highlight-node-3" to="0.5" xlink:href="#x-3-red"></animate><animate attributeName="opacity" begin="highlight-node-3.begin + 0s" dur="0.5s" fill="freeze" from="0.0" id="highlight-eq-3" to="0.5" xlink:href="#highlighter-3-bg"></animate><animate attributeName="opacity" begin="highlight-node-3.begin + 0s" dur="0.5s" fill="freeze" from="0.0" id="highlight-path-0-3" to="0.5" xlink:href="#path-0-3-red"></animate><animate attributeName="opacity" begin="highlight-node-3.begin + 0s" dur="0.5s" fill="freeze" from="0.0" id="highlight-path-1-3" to="0.5" xlink:href="#path-1-3-red"></animate><animate attributeName="opacity" begin="highlight-node-3.begin + 0s" dur="0.5s" fill="freeze" from="0.0" id="highlight-path-2-3" to="0.5" xlink:href="#path-2-3-red"></animate><animate attributeName="opacity" begin="highlighter-3.mouseleave + 0s;x-3.mouseleave + 0s;highlighter-3.mouseout + 0s;x-3.mouseout + 0s;highlighter-3.touchend + 0s;x-3.touchend + 0s" dur="0.5s" fill="freeze" from="0.5" id="regular-node-3" to="0.0" xlink:href="#x-3-red"></animate><animate attributeName="opacity" begin="regular-node-3.begin + 0s" dur="0.5s" fill="freeze" from="0.5" id="regular-eq-3" to="0.0" xlink:href="#highlighter-3-bg"></animate><animate attributeName="opacity" begin="regular-node-3.begin + 0s" dur="0.5s" fill="freeze" from="0.5" id="regular-path-0-3" to="0.0" xlink:href="#path-0-3-red"></animate><animate attributeName="stroke-dashoffset" begin="0s" dur="0.5s" fill="freeze" from="0" id="move-dash-path-0-3" repeatCount="indefinite" to="-1.0" xlink:href="#path-0-3-red"></animate><animate attributeName="opacity" begin="regular-node-3.begin + 0s" dur="0.5s" fill="freeze" from="0.5" id="regular-path-1-3" to="0.0" xlink:href="#path-1-3-red"></animate><animate attributeName="stroke-dashoffset" begin="0s" dur="0.5s" fill="freeze" from="0" id="move-dash-path-1-3" repeatCount="indefinite" to="-1.0" xlink:href="#path-1-3-red"></animate><animate attributeName="opacity" begin="regular-node-3.begin + 0s" dur="0.5s" fill="freeze" from="0.5" id="regular-path-2-3" to="0.0" xlink:href="#path-2-3-red"></animate><animate attributeName="stroke-dashoffset" begin="0s" dur="0.5s" fill="freeze" from="0" id="move-dash-path-2-3" repeatCount="indefinite" to="-1.0" xlink:href="#path-2-3-red"></animate><!--made by Laurent Dinh--><rect fill="rgb(255,255,255)" height="5.5" id="revealer" opacity="0" stroke="rgb(255,255,255)" width="9" x="-1" y="-2.5"></rect></svg>