<?xml version="1.0" encoding="utf-8" standalone="no"?>
<!DOCTYPE svg PUBLIC "-//W3C//DTD SVG 1.1//EN"
  "http://www.w3.org/Graphics/SVG/1.1/DTD/svg11.dtd">
<!-- Created with matplotlib (http://matplotlib.org/) -->
<svg height="575pt" version="1.1" viewBox="0 0 579 575" width="579pt" xmlns="http://www.w3.org/2000/svg" xmlns:xlink="http://www.w3.org/1999/xlink">
 <defs>
  <style type="text/css">
*{stroke-linecap:butt;stroke-linejoin:round;}
  </style>
 </defs>
 <g id="figure_1">
  <g id="patch_1">
   <path d="M 0 575.8 
L 579.4 575.8 
L 579.4 0 
L 0 0 
z
" style="fill:none;"/>
  </g>
  <g id="axes_1">
   <g id="patch_2">
    <path d="M 10.7 565.1 
L 568.7 565.1 
L 568.7 10.7 
L 10.7 10.7 
z
" style="fill:none;"/>
   </g>
   <g id="matplotlib.axis_1"/>
   <g id="matplotlib.axis_2"/>
   <g id="line2d_1">
    <path clip-path="url(#pf0aada8b73)" d="M 10.979 565.1 
L 158.849 564.996748 
L 167.219 564.758577 
L 172.799 564.390169 
L 177.263 563.869667 
L 180.611 563.278055 
L 183.959 562.446123 
L 186.749 561.513489 
L 188.981 560.572109 
L 191.213 559.422624 
L 193.445 558.029025 
L 195.677 556.351355 
L 197.909 554.345746 
L 200.141 551.964571 
L 202.373 549.156724 
L 204.605 545.868043 
L 206.837 542.041885 
L 209.069 537.619864 
L 211.301 532.542746 
L 213.533 526.751519 
L 215.765 520.188603 
L 217.997 512.799209 
L 220.229 504.532811 
L 222.461 495.344714 
L 224.693 485.197675 
L 226.925 474.063546 
L 229.157 461.924886 
L 231.947 445.332306 
L 234.737 427.18325 
L 237.527 407.534932 
L 240.875 382.117396 
L 244.223 354.92925 
L 248.129 321.420437 
L 254.267 266.47269 
L 260.963 206.758718 
L 264.869 173.88866 
L 267.659 151.987797 
L 270.449 131.797671 
L 272.681 117.09788 
L 274.913 103.856548 
L 277.145 92.21243 
L 278.819 84.601173 
L 280.493 78.000961 
L 282.167 72.449175 
L 283.283 69.345759 
L 284.399 66.729211 
L 285.515 64.605312 
L 286.631 62.978366 
L 287.747 61.851193 
L 288.863 61.225123 
L 289.421 61.10001 
L 289.979 61.1 
L 290.537 61.224841 
L 291.095 61.474194 
L 292.211 62.344615 
L 293.327 63.706741 
L 294.443 65.554649 
L 295.559 67.88105 
L 296.675 70.677335 
L 297.791 73.933625 
L 299.465 79.655976 
L 301.139 86.345837 
L 302.813 93.955592 
L 304.487 102.432809 
L 306.719 114.986665 
L 308.951 128.837402 
L 311.741 147.740887 
L 315.089 172.344347 
L 318.995 202.998289 
L 325.133 253.430278 
L 332.945 317.372235 
L 337.409 351.955065 
L 341.315 380.323725 
L 344.663 402.963434 
L 348.011 423.903508 
L 350.801 439.993156 
L 353.591 454.822766 
L 356.381 468.394098 
L 359.171 480.72831 
L 361.961 491.862897 
L 364.193 499.940592 
L 366.425 507.313725 
L 368.657 514.016507 
L 370.889 520.08561 
L 373.121 525.559375 
L 375.353 530.477103 
L 377.585 534.878415 
L 379.817 538.802702 
L 382.049 542.288644 
L 384.281 545.373817 
L 386.513 548.094368 
L 388.745 550.48476 
L 390.977 552.577582 
L 393.209 554.403419 
L 395.441 555.990769 
L 398.231 557.679565 
L 401.021 559.083653 
L 403.811 560.244855 
L 407.159 561.369441 
L 410.507 562.252611 
L 414.413 563.039737 
L 418.877 563.692169 
L 423.899 564.195384 
L 430.037 564.583498 
L 438.407 564.867705 
L 450.683 565.033032 
L 475.793 565.095947 
L 568.421 565.1 
L 568.421 565.1 
" style="fill:none;stroke:#666666;stroke-linecap:square;stroke-width:10;"/>
   </g>
   <g id="patch_3">
    <path d="M 10.7 565.1 
L 10.7 10.7 
" style="fill:none;stroke:#666666;stroke-linecap:square;stroke-linejoin:miter;stroke-width:0.8;"/>
   </g>
   <g id="patch_4">
    <path d="M 568.7 565.1 
L 568.7 10.7 
" style="fill:none;stroke:#666666;stroke-linecap:square;stroke-linejoin:miter;stroke-width:0.8;"/>
   </g>
   <g id="patch_5">
    <path d="M 10.7 565.1 
L 568.7 565.1 
" style="fill:none;stroke:#666666;stroke-linecap:square;stroke-linejoin:miter;stroke-width:0.8;"/>
   </g>
   <g id="patch_6">
    <path d="M 10.7 10.7 
L 568.7 10.7 
" style="fill:none;stroke:#666666;stroke-linecap:square;stroke-linejoin:miter;stroke-width:0.8;"/>
   </g>
  </g>
 </g>
 <defs>
  <clipPath id="pf0aada8b73">
   <rect height="554.4" width="558" x="10.7" y="10.7"/>
  </clipPath>
 </defs>
</svg>
