<?xml version="1.0" encoding="utf-8" standalone="no"?>
<!DOCTYPE svg PUBLIC "-//W3C//DTD SVG 1.1//EN"
  "http://www.w3.org/Graphics/SVG/1.1/DTD/svg11.dtd">
<!-- Created with matplotlib (http://matplotlib.org/) -->
<svg height="575pt" version="1.1" viewBox="0 0 579 575" width="579pt" xmlns="http://www.w3.org/2000/svg" xmlns:xlink="http://www.w3.org/1999/xlink">
 <defs>
  <style type="text/css">
*{stroke-linecap:butt;stroke-linejoin:round;}
  </style>
 </defs>
 <g id="figure_1">
  <g id="patch_1">
   <path d="M 0 575.8 
L 579.4 575.8 
L 579.4 0 
L 0 0 
z
" style="fill:none;"/>
  </g>
  <g id="axes_1">
   <g id="patch_2">
    <path d="M 10.7 565.1 
L 568.7 565.1 
L 568.7 10.7 
L 10.7 10.7 
z
" style="fill:none;"/>
   </g>
   <g id="matplotlib.axis_1"/>
   <g id="matplotlib.axis_2"/>
   <g id="line2d_1">
    <path clip-path="url(#p297a0526b3)" d="M 10.979 565.1 
L 264.311 565.019842 
L 265.985 564.851253 
L 267.101 564.594041 
L 268.217 564.107003 
L 269.333 563.219265 
L 269.891 562.545857 
L 270.449 561.661836 
L 271.007 560.512453 
L 271.565 559.032416 
L 272.123 557.144983 
L 272.681 554.761319 
L 273.239 551.780238 
L 273.797 548.088456 
L 274.355 543.561504 
L 274.913 538.065405 
L 276.029 523.598772 
L 277.145 503.549231 
L 278.261 476.892973 
L 279.377 442.938334 
L 280.493 401.571731 
L 282.167 327.40672 
L 286.073 141.005898 
L 287.189 100.821008 
L 287.747 85.307199 
L 288.305 73.344746 
L 288.863 65.212687 
L 289.421 61.100344 
L 289.979 61.1 
L 290.537 65.203482 
L 291.095 73.302821 
L 291.653 85.194946 
L 292.211 100.59011 
L 293.327 140.369914 
L 294.443 189.093592 
L 298.907 397.511606 
L 300.023 438.640886 
L 301.139 472.643504 
L 302.255 499.597703 
L 303.371 520.12641 
L 304.487 535.171149 
L 305.603 545.793524 
L 306.719 553.026176 
L 307.835 557.779117 
L 308.393 559.464871 
L 308.951 560.795663 
L 310.067 562.645744 
L 311.183 563.742778 
L 312.299 564.371978 
L 313.415 564.721168 
L 315.089 564.965642 
L 317.879 565.079459 
L 328.481 565.099997 
L 568.421 565.1 
L 568.421 565.1 
" style="fill:none;stroke:#666666;stroke-linecap:square;stroke-width:10;"/>
   </g>
   <g id="patch_3">
    <path d="M 10.7 565.1 
L 10.7 10.7 
" style="fill:none;stroke:#666666;stroke-linecap:square;stroke-linejoin:miter;stroke-width:0.8;"/>
   </g>
   <g id="patch_4">
    <path d="M 568.7 565.1 
L 568.7 10.7 
" style="fill:none;stroke:#666666;stroke-linecap:square;stroke-linejoin:miter;stroke-width:0.8;"/>
   </g>
   <g id="patch_5">
    <path d="M 10.7 565.1 
L 568.7 565.1 
" style="fill:none;stroke:#666666;stroke-linecap:square;stroke-linejoin:miter;stroke-width:0.8;"/>
   </g>
   <g id="patch_6">
    <path d="M 10.7 10.7 
L 568.7 10.7 
" style="fill:none;stroke:#666666;stroke-linecap:square;stroke-linejoin:miter;stroke-width:0.8;"/>
   </g>
  </g>
 </g>
 <defs>
  <clipPath id="p297a0526b3">
   <rect height="554.4" width="558" x="10.7" y="10.7"/>
  </clipPath>
 </defs>
</svg>
