<?xml version="1.0" encoding="utf-8" standalone="no"?>
<!DOCTYPE svg PUBLIC "-//W3C//DTD SVG 1.1//EN"
  "http://www.w3.org/Graphics/SVG/1.1/DTD/svg11.dtd">
<!-- Created with matplotlib (http://matplotlib.org/) -->
<svg height="575pt" version="1.1" viewBox="0 0 579 575" width="579pt" xmlns="http://www.w3.org/2000/svg" xmlns:xlink="http://www.w3.org/1999/xlink">
 <defs>
  <style type="text/css">
*{stroke-linecap:butt;stroke-linejoin:round;}
  </style>
 </defs>
 <g id="figure_1">
  <g id="patch_1">
   <path d="M 0 575.8 
L 579.4 575.8 
L 579.4 0 
L 0 0 
z
" style="fill:none;"/>
  </g>
  <g id="axes_1">
   <g id="patch_2">
    <path d="M 10.7 565.1 
L 568.7 565.1 
L 568.7 10.7 
L 10.7 10.7 
z
" style="fill:none;"/>
   </g>
   <g id="matplotlib.axis_1"/>
   <g id="matplotlib.axis_2"/>
   <g id="line2d_1">
    <path clip-path="url(#p723c3c24c9)" d="M 10.979 565.1 
L 194.561 564.992494 
L 200.699 564.76378 
L 205.163 564.3749 
L 208.511 563.8508 
L 211.301 563.17476 
L 213.533 562.414784 
L 215.765 561.398232 
L 217.439 560.425863 
L 219.113 559.235719 
L 220.787 557.788982 
L 222.461 556.042283 
L 224.135 553.947689 
L 225.809 551.452823 
L 227.483 548.50112 
L 229.157 545.032271 
L 230.831 540.982846 
L 232.505 536.287123 
L 234.179 530.878133 
L 235.853 524.688909 
L 237.527 517.65396 
L 239.201 509.71092 
L 240.875 500.802387 
L 242.549 490.877878 
L 244.223 479.895895 
L 246.455 463.557575 
L 248.687 445.251953 
L 250.919 424.994046 
L 253.151 402.855888 
L 255.941 372.750559 
L 259.289 333.61754 
L 263.753 278.069774 
L 270.449 194.390165 
L 273.239 162.145777 
L 275.471 138.48606 
L 277.703 117.264117 
L 279.377 103.223234 
L 281.051 90.982244 
L 282.725 80.690878 
L 283.841 74.975887 
L 284.957 70.213848 
L 286.073 66.429451 
L 287.189 63.641509 
L 287.747 62.625443 
L 288.305 61.862809 
L 288.863 61.354249 
L 289.421 61.100021 
L 289.979 61.1 
L 290.537 61.353678 
L 291.095 61.860167 
L 291.653 62.618204 
L 292.211 63.626155 
L 293.327 66.38343 
L 294.443 70.111702 
L 295.559 74.78516 
L 296.675 80.37276 
L 297.791 86.83856 
L 299.465 98.094222 
L 301.139 111.080343 
L 302.813 125.626044 
L 305.045 147.125651 
L 307.835 176.727825 
L 311.183 215.014352 
L 322.901 351.735964 
L 325.691 381.017926 
L 328.481 408.056809 
L 331.271 432.610463 
L 333.503 450.377751 
L 335.735 466.459668 
L 337.967 480.879056 
L 340.199 493.689523 
L 342.431 504.969172 
L 344.663 514.814507 
L 346.337 521.322619 
L 348.011 527.134314 
L 349.685 532.299998 
L 351.359 536.870429 
L 353.033 540.895896 
L 354.707 544.425525 
L 356.381 547.506708 
L 358.055 550.184661 
L 359.729 552.502085 
L 361.403 554.498926 
L 363.077 556.212233 
L 364.751 557.676084 
L 366.983 559.293192 
L 369.215 560.587501 
L 371.447 561.615944 
L 373.679 562.427273 
L 376.469 563.198371 
L 379.817 563.852559 
L 383.723 564.350839 
L 388.187 564.691437 
L 394.325 564.929576 
L 404.369 565.063137 
L 430.595 565.099619 
L 568.421 565.1 
L 568.421 565.1 
" style="fill:none;stroke:#666666;stroke-linecap:square;stroke-width:10;"/>
   </g>
   <g id="patch_3">
    <path d="M 10.7 565.1 
L 10.7 10.7 
" style="fill:none;stroke:#666666;stroke-linecap:square;stroke-linejoin:miter;stroke-width:0.8;"/>
   </g>
   <g id="patch_4">
    <path d="M 568.7 565.1 
L 568.7 10.7 
" style="fill:none;stroke:#666666;stroke-linecap:square;stroke-linejoin:miter;stroke-width:0.8;"/>
   </g>
   <g id="patch_5">
    <path d="M 10.7 565.1 
L 568.7 565.1 
" style="fill:none;stroke:#666666;stroke-linecap:square;stroke-linejoin:miter;stroke-width:0.8;"/>
   </g>
   <g id="patch_6">
    <path d="M 10.7 10.7 
L 568.7 10.7 
" style="fill:none;stroke:#666666;stroke-linecap:square;stroke-linejoin:miter;stroke-width:0.8;"/>
   </g>
  </g>
 </g>
 <defs>
  <clipPath id="p723c3c24c9">
   <rect height="554.4" width="558" x="10.7" y="10.7"/>
  </clipPath>
 </defs>
</svg>
