<?xml version="1.0" encoding="utf-8" standalone="no"?>
<!DOCTYPE svg PUBLIC "-//W3C//DTD SVG 1.1//EN"
  "http://www.w3.org/Graphics/SVG/1.1/DTD/svg11.dtd">
<!-- Created with matplotlib (http://matplotlib.org/) -->
<svg height="575pt" version="1.1" viewBox="0 0 579 575" width="579pt" xmlns="http://www.w3.org/2000/svg" xmlns:xlink="http://www.w3.org/1999/xlink">
 <defs>
  <style type="text/css">
*{stroke-linecap:butt;stroke-linejoin:round;}
  </style>
 </defs>
 <g id="figure_1">
  <g id="patch_1">
   <path d="M 0 575.8 
L 579.4 575.8 
L 579.4 0 
L 0 0 
z
" style="fill:none;"/>
  </g>
  <g id="axes_1">
   <g id="patch_2">
    <path d="M 10.7 565.1 
L 568.7 565.1 
L 568.7 10.7 
L 10.7 10.7 
z
" style="fill:none;"/>
   </g>
   <g id="matplotlib.axis_1"/>
   <g id="matplotlib.axis_2"/>
   <g id="line2d_1">
    <path clip-path="url(#pf151f7b3b5)" d="M 10.979 565.1 
L 113.651 564.994916 
L 123.695 564.755486 
L 130.391 564.396855 
L 135.971 563.879088 
L 140.435 563.250092 
L 144.341 562.485786 
L 147.689 561.627702 
L 151.037 560.538976 
L 153.827 559.421811 
L 156.617 558.081731 
L 159.407 556.485766 
L 162.197 554.598329 
L 164.987 552.381411 
L 167.219 550.343729 
L 169.451 548.048109 
L 171.683 545.47256 
L 173.915 542.594667 
L 176.147 539.391786 
L 178.379 535.841252 
L 180.611 531.92062 
L 182.843 527.607912 
L 185.075 522.881888 
L 187.307 517.722335 
L 190.097 510.634611 
L 192.887 502.806847 
L 195.677 494.210705 
L 198.467 484.823693 
L 201.257 474.630075 
L 204.047 463.621742 
L 206.837 451.799004 
L 210.185 436.55067 
L 213.533 420.178569 
L 216.881 402.738815 
L 220.787 381.148342 
L 225.251 355.034556 
L 230.273 324.191232 
L 237.527 277.962492 
L 247.571 213.974969 
L 252.035 186.864438 
L 255.941 164.393979 
L 259.289 146.330357 
L 262.637 129.583414 
L 265.427 116.768557 
L 268.217 105.096961 
L 270.449 96.643271 
L 272.681 89.019591 
L 274.913 82.262105 
L 276.587 77.781393 
L 278.261 73.816821 
L 279.935 70.377946 
L 281.609 67.472601 
L 283.283 65.10687 
L 284.399 63.831707 
L 285.515 62.799174 
L 286.631 62.009762 
L 287.747 61.46362 
L 288.863 61.160547 
L 289.979 61.1 
L 291.095 61.281096 
L 292.211 61.702617 
L 293.327 62.363014 
L 294.443 63.260414 
L 295.559 64.392624 
L 296.675 65.757141 
L 298.349 68.233271 
L 300.023 71.214997 
L 301.697 74.690183 
L 303.371 78.645338 
L 305.045 83.065703 
L 307.277 89.655454 
L 309.509 97.002955 
L 311.741 105.064317 
L 314.531 116.073717 
L 317.321 128.029769 
L 320.669 143.485486 
L 324.017 159.981791 
L 327.923 180.300667 
L 332.945 207.680943 
L 340.757 251.779215 
L 350.801 308.28743 
L 356.381 338.371605 
L 360.845 361.341116 
L 365.309 383.129671 
L 369.215 401.113429 
L 373.121 418.015856 
L 376.469 431.60863 
L 379.817 444.358483 
L 383.165 456.260628 
L 386.513 467.319788 
L 389.861 477.54906 
L 393.209 486.968776 
L 395.999 494.219038 
L 398.789 500.943369 
L 401.579 507.161751 
L 404.369 512.895753 
L 407.159 518.168152 
L 409.949 523.002588 
L 412.739 527.423238 
L 415.529 531.454532 
L 418.319 535.120892 
L 421.109 538.446502 
L 423.899 541.455115 
L 426.689 544.169879 
L 429.479 546.613198 
L 432.269 548.806618 
L 435.617 551.137783 
L 438.965 553.172347 
L 442.313 554.941738 
L 445.661 556.475107 
L 449.567 558.001432 
L 453.473 559.281716 
L 457.937 560.48793 
L 462.401 561.463528 
L 467.423 562.334274 
L 473.003 563.075435 
L 479.699 563.722574 
L 487.511 564.234017 
L 496.997 564.617445 
L 509.273 564.881201 
L 528.245 565.040205 
L 568.421 565.097142 
L 568.421 565.097142 
" style="fill:none;stroke:#666666;stroke-linecap:square;stroke-width:10;"/>
   </g>
   <g id="patch_3">
    <path d="M 10.7 565.1 
L 10.7 10.7 
" style="fill:none;stroke:#666666;stroke-linecap:square;stroke-linejoin:miter;stroke-width:0.8;"/>
   </g>
   <g id="patch_4">
    <path d="M 568.7 565.1 
L 568.7 10.7 
" style="fill:none;stroke:#666666;stroke-linecap:square;stroke-linejoin:miter;stroke-width:0.8;"/>
   </g>
   <g id="patch_5">
    <path d="M 10.7 565.1 
L 568.7 565.1 
" style="fill:none;stroke:#666666;stroke-linecap:square;stroke-linejoin:miter;stroke-width:0.8;"/>
   </g>
   <g id="patch_6">
    <path d="M 10.7 10.7 
L 568.7 10.7 
" style="fill:none;stroke:#666666;stroke-linecap:square;stroke-linejoin:miter;stroke-width:0.8;"/>
   </g>
  </g>
 </g>
 <defs>
  <clipPath id="pf151f7b3b5">
   <rect height="554.4" width="558" x="10.7" y="10.7"/>
  </clipPath>
 </defs>
</svg>
