<?xml version="1.0" encoding="utf-8" standalone="no"?>
<!DOCTYPE svg PUBLIC "-//W3C//DTD SVG 1.1//EN"
  "http://www.w3.org/Graphics/SVG/1.1/DTD/svg11.dtd">
<!-- Created with matplotlib (http://matplotlib.org/) -->
<svg height="575pt" version="1.1" viewBox="0 0 579 575" width="579pt" xmlns="http://www.w3.org/2000/svg" xmlns:xlink="http://www.w3.org/1999/xlink">
 <defs>
  <style type="text/css">
*{stroke-linecap:butt;stroke-linejoin:round;}
  </style>
 </defs>
 <g id="figure_1">
  <g id="patch_1">
   <path d="M 0 575.8 
L 579.4 575.8 
L 579.4 0 
L 0 0 
z
" style="fill:none;"/>
  </g>
  <g id="axes_1">
   <g id="patch_2">
    <path d="M 10.7 565.1 
L 568.7 565.1 
L 568.7 10.7 
L 10.7 10.7 
z
" style="fill:none;"/>
   </g>
   <g id="matplotlib.axis_1"/>
   <g id="matplotlib.axis_2"/>
   <g id="line2d_1">
    <path clip-path="url(#p63bf7d20b3)" d="M 10.979 565.099998 
L 20.465 565.003333 
L 26.045 564.725897 
L 30.509 564.297648 
L 34.415 563.72778 
L 38.321 562.940295 
L 42.227 561.902647 
L 45.575 560.79052 
L 48.923 559.453123 
L 52.271 557.872806 
L 55.619 556.032968 
L 58.967 553.918119 
L 62.315 551.513952 
L 65.663 548.807398 
L 69.011 545.786686 
L 72.359 542.441387 
L 75.707 538.76246 
L 79.055 534.742289 
L 82.403 530.374712 
L 85.751 525.655048 
L 89.099 520.580115 
L 92.447 515.148239 
L 96.353 508.359788 
L 100.259 501.087697 
L 104.165 493.337107 
L 108.071 485.115913 
L 112.535 475.157733 
L 116.999 464.618859 
L 121.463 453.523688 
L 126.485 440.41239 
L 131.507 426.679921 
L 137.087 410.757169 
L 143.225 392.526999 
L 149.921 371.918489 
L 157.733 347.137817 
L 168.893 310.890726 
L 187.307 251.006348 
L 195.119 226.373347 
L 201.815 205.95276 
L 207.953 187.954171 
L 213.533 172.300477 
L 218.555 158.86631 
L 223.019 147.496673 
L 227.483 136.707007 
L 231.947 126.534315 
L 235.853 118.165999 
L 239.759 110.316601 
L 243.665 103.004719 
L 247.013 97.177813 
L 250.361 91.767219 
L 253.709 86.781006 
L 257.057 82.226105 
L 259.847 78.764034 
L 262.637 75.608259 
L 265.427 72.760966 
L 268.217 70.223798 
L 271.007 67.997853 
L 273.797 66.083691 
L 276.587 64.481346 
L 279.377 63.190329 
L 281.609 62.381016 
L 283.841 61.769578 
L 286.073 61.35507 
L 288.305 61.13635 
L 290.537 61.112083 
L 292.769 61.280743 
L 295.001 61.640622 
L 297.233 62.189833 
L 299.465 62.926314 
L 302.255 64.106853 
L 305.045 65.571793 
L 307.835 67.316042 
L 310.625 69.334143 
L 313.415 71.620298 
L 316.205 74.168377 
L 319.553 77.562735 
L 322.901 81.313325 
L 326.249 85.407939 
L 329.597 89.83387 
L 333.503 95.398629 
L 337.409 101.374853 
L 341.315 107.740337 
L 345.779 115.462638 
L 350.243 123.629055 
L 355.265 133.303386 
L 360.287 143.444852 
L 365.867 155.199386 
L 372.005 168.640516 
L 379.259 185.094835 
L 387.629 204.664528 
L 398.789 231.371928 
L 425.573 295.724109 
L 435.059 317.819874 
L 443.429 336.750484 
L 450.683 352.638947 
L 457.937 367.983212 
L 464.633 381.621178 
L 470.771 393.651163 
L 476.909 405.21025 
L 483.047 416.283787 
L 488.627 425.920506 
L 494.207 435.142458 
L 499.787 443.947318 
L 505.367 452.335131 
L 510.947 460.308113 
L 516.527 467.870461 
L 522.107 475.028151 
L 527.129 481.130313 
L 532.151 486.917303 
L 537.173 492.396424 
L 542.195 497.575682 
L 547.217 502.463688 
L 552.239 507.069561 
L 557.261 511.402836 
L 562.841 515.909881 
L 568.421 520.10646 
L 568.421 520.10646 
" style="fill:none;stroke:#666666;stroke-linecap:square;stroke-width:10;"/>
   </g>
   <g id="patch_3">
    <path d="M 10.7 565.1 
L 10.7 10.7 
" style="fill:none;stroke:#666666;stroke-linecap:square;stroke-linejoin:miter;stroke-width:0.8;"/>
   </g>
   <g id="patch_4">
    <path d="M 568.7 565.1 
L 568.7 10.7 
" style="fill:none;stroke:#666666;stroke-linecap:square;stroke-linejoin:miter;stroke-width:0.8;"/>
   </g>
   <g id="patch_5">
    <path d="M 10.7 565.1 
L 568.7 565.1 
" style="fill:none;stroke:#666666;stroke-linecap:square;stroke-linejoin:miter;stroke-width:0.8;"/>
   </g>
   <g id="patch_6">
    <path d="M 10.7 10.7 
L 568.7 10.7 
" style="fill:none;stroke:#666666;stroke-linecap:square;stroke-linejoin:miter;stroke-width:0.8;"/>
   </g>
  </g>
 </g>
 <defs>
  <clipPath id="p63bf7d20b3">
   <rect height="554.4" width="558" x="10.7" y="10.7"/>
  </clipPath>
 </defs>
</svg>
