<?xml version="1.0" encoding="utf-8" standalone="no"?>
<!DOCTYPE svg PUBLIC "-//W3C//DTD SVG 1.1//EN"
  "http://www.w3.org/Graphics/SVG/1.1/DTD/svg11.dtd">
<!-- Created with matplotlib (http://matplotlib.org/) -->
<svg height="575pt" version="1.1" viewBox="0 0 579 575" width="579pt" xmlns="http://www.w3.org/2000/svg" xmlns:xlink="http://www.w3.org/1999/xlink">
 <defs>
  <style type="text/css">
*{stroke-linecap:butt;stroke-linejoin:round;}
  </style>
 </defs>
 <g id="figure_1">
  <g id="patch_1">
   <path d="M 0 575.8 
L 579.4 575.8 
L 579.4 0 
L 0 0 
z
" style="fill:none;"/>
  </g>
  <g id="axes_1">
   <g id="patch_2">
    <path d="M 10.7 565.1 
L 568.7 565.1 
L 568.7 10.7 
L 10.7 10.7 
z
" style="fill:none;"/>
   </g>
   <g id="matplotlib.axis_1"/>
   <g id="matplotlib.axis_2"/>
   <g id="line2d_1">
    <path clip-path="url(#pcb2c0bf226)" d="M 10.979 565.1 
L 220.787 565.000838 
L 225.809 564.75104 
L 228.599 564.430816 
L 230.831 564.000317 
L 233.063 563.33075 
L 234.737 562.607067 
L 236.411 561.628101 
L 238.085 560.320262 
L 239.201 559.222462 
L 240.317 557.909011 
L 241.433 556.346203 
L 242.549 554.496934 
L 243.665 552.32073 
L 244.781 549.773873 
L 245.897 546.809625 
L 247.013 543.378566 
L 248.129 539.42906 
L 249.245 534.907853 
L 250.919 526.935668 
L 252.593 517.37376 
L 254.267 506.048681 
L 255.941 492.804542 
L 257.615 477.513558 
L 259.289 460.08727 
L 260.963 440.487892 
L 262.637 418.739087 
L 264.869 386.571679 
L 267.101 351.20252 
L 269.891 303.585659 
L 277.703 167.915063 
L 279.935 134.463578 
L 281.609 112.576015 
L 283.283 94.034993 
L 284.399 83.765883 
L 285.515 75.306573 
L 286.631 68.750949 
L 287.747 64.170372 
L 288.305 62.636543 
L 288.863 61.612402 
L 289.421 61.100043 
L 289.979 61.1 
L 290.537 61.611251 
L 291.095 62.631226 
L 291.653 64.155824 
L 292.211 66.179442 
L 293.327 71.694015 
L 294.443 79.101473 
L 295.559 88.307111 
L 296.675 99.196969 
L 298.349 118.399313 
L 300.023 140.593745 
L 302.255 173.883868 
L 305.045 219.496168 
L 312.857 350.109753 
L 315.647 391.609942 
L 317.879 421.399013 
L 320.111 447.825694 
L 321.785 465.374127 
L 323.459 480.993401 
L 325.133 494.746356 
L 326.807 506.729394 
L 328.481 517.063715 
L 330.155 525.887145 
L 331.829 533.34681 
L 333.503 539.592854 
L 335.177 544.773272 
L 336.851 549.029868 
L 338.525 552.495291 
L 340.199 555.291053 
L 341.873 557.526393 
L 343.547 559.297859 
L 345.221 560.689447 
L 346.895 561.773167 
L 348.569 562.609905 
L 350.801 563.427871 
L 353.033 563.99231 
L 355.823 564.450475 
L 359.171 564.767052 
L 364.193 564.984485 
L 372.563 565.082935 
L 405.485 565.099998 
L 568.421 565.1 
L 568.421 565.1 
" style="fill:none;stroke:#666666;stroke-linecap:square;stroke-width:10;"/>
   </g>
   <g id="patch_3">
    <path d="M 10.7 565.1 
L 10.7 10.7 
" style="fill:none;stroke:#666666;stroke-linecap:square;stroke-linejoin:miter;stroke-width:0.8;"/>
   </g>
   <g id="patch_4">
    <path d="M 568.7 565.1 
L 568.7 10.7 
" style="fill:none;stroke:#666666;stroke-linecap:square;stroke-linejoin:miter;stroke-width:0.8;"/>
   </g>
   <g id="patch_5">
    <path d="M 10.7 565.1 
L 568.7 565.1 
" style="fill:none;stroke:#666666;stroke-linecap:square;stroke-linejoin:miter;stroke-width:0.8;"/>
   </g>
   <g id="patch_6">
    <path d="M 10.7 10.7 
L 568.7 10.7 
" style="fill:none;stroke:#666666;stroke-linecap:square;stroke-linejoin:miter;stroke-width:0.8;"/>
   </g>
  </g>
 </g>
 <defs>
  <clipPath id="pcb2c0bf226">
   <rect height="554.4" width="558" x="10.7" y="10.7"/>
  </clipPath>
 </defs>
</svg>
