<?xml version="1.0" encoding="utf-8" standalone="no"?>
<!DOCTYPE svg PUBLIC "-//W3C//DTD SVG 1.1//EN"
  "http://www.w3.org/Graphics/SVG/1.1/DTD/svg11.dtd">
<!-- Created with matplotlib (http://matplotlib.org/) -->
<svg height="575pt" version="1.1" viewBox="0 0 579 575" width="579pt" xmlns="http://www.w3.org/2000/svg" xmlns:xlink="http://www.w3.org/1999/xlink">
 <defs>
  <style type="text/css">
*{stroke-linecap:butt;stroke-linejoin:round;}
  </style>
 </defs>
 <g id="figure_1">
  <g id="patch_1">
   <path d="M 0 575.8 
L 579.4 575.8 
L 579.4 0 
L 0 0 
z
" style="fill:none;"/>
  </g>
  <g id="axes_1">
   <g id="patch_2">
    <path d="M 10.7 565.1 
L 568.7 565.1 
L 568.7 10.7 
L 10.7 10.7 
z
" style="fill:none;"/>
   </g>
   <g id="matplotlib.axis_1"/>
   <g id="matplotlib.axis_2"/>
   <g id="line2d_1">
    <path clip-path="url(#p187b23b35d)" d="M 10.979 565.1 
L 280.493 565.03857 
L 281.051 564.92166 
L 281.609 564.61613 
L 282.167 563.872877 
L 282.725 562.190702 
L 283.283 558.651021 
L 283.841 551.73228 
L 284.399 539.185175 
L 284.957 518.10797 
L 285.515 485.384046 
L 286.073 438.576521 
L 287.189 303.899165 
L 288.305 151.19066 
L 288.863 93.10346 
L 289.421 61.102752 
L 289.979 61.1 
L 290.537 93.033865 
L 291.095 150.908032 
L 293.327 437.04931 
L 293.885 483.901078 
L 294.443 516.829967 
L 295.001 538.195918 
L 295.559 551.038684 
L 296.117 558.207852 
L 296.675 561.931473 
L 297.233 563.73357 
L 297.791 564.547163 
L 298.349 564.890135 
L 299.465 565.075006 
L 303.371 565.099998 
L 568.421 565.1 
L 568.421 565.1 
" style="fill:none;stroke:#666666;stroke-linecap:square;stroke-width:10;"/>
   </g>
   <g id="patch_3">
    <path d="M 10.7 565.1 
L 10.7 10.7 
" style="fill:none;stroke:#666666;stroke-linecap:square;stroke-linejoin:miter;stroke-width:0.8;"/>
   </g>
   <g id="patch_4">
    <path d="M 568.7 565.1 
L 568.7 10.7 
" style="fill:none;stroke:#666666;stroke-linecap:square;stroke-linejoin:miter;stroke-width:0.8;"/>
   </g>
   <g id="patch_5">
    <path d="M 10.7 565.1 
L 568.7 565.1 
" style="fill:none;stroke:#666666;stroke-linecap:square;stroke-linejoin:miter;stroke-width:0.8;"/>
   </g>
   <g id="patch_6">
    <path d="M 10.7 10.7 
L 568.7 10.7 
" style="fill:none;stroke:#666666;stroke-linecap:square;stroke-linejoin:miter;stroke-width:0.8;"/>
   </g>
  </g>
 </g>
 <defs>
  <clipPath id="p187b23b35d">
   <rect height="554.4" width="558" x="10.7" y="10.7"/>
  </clipPath>
 </defs>
</svg>
