<?xml version="1.0" encoding="utf-8" standalone="no"?>
<!DOCTYPE svg PUBLIC "-//W3C//DTD SVG 1.1//EN"
  "http://www.w3.org/Graphics/SVG/1.1/DTD/svg11.dtd">
<!-- Created with matplotlib (http://matplotlib.org/) -->
<svg height="575pt" version="1.1" viewBox="0 0 579 575" width="579pt" xmlns="http://www.w3.org/2000/svg" xmlns:xlink="http://www.w3.org/1999/xlink">
 <defs>
  <style type="text/css">
*{stroke-linecap:butt;stroke-linejoin:round;}
  </style>
 </defs>
 <g id="figure_1">
  <g id="patch_1">
   <path d="M 0 575.8 
L 579.4 575.8 
L 579.4 0 
L 0 0 
z
" style="fill:none;"/>
  </g>
  <g id="axes_1">
   <g id="patch_2">
    <path d="M 10.7 565.1 
L 568.7 565.1 
L 568.7 10.7 
L 10.7 10.7 
z
" style="fill:none;"/>
   </g>
   <g id="matplotlib.axis_1"/>
   <g id="matplotlib.axis_2"/>
   <g id="line2d_1">
    <path clip-path="url(#p8e8ac76a01)" d="M 10.979 565.1 
L 62.315 564.99019 
L 72.359 564.737782 
L 79.613 564.343851 
L 85.193 563.841997 
L 90.215 563.181712 
L 94.679 562.379095 
L 98.585 561.470782 
L 102.491 560.332333 
L 105.839 559.143458 
L 109.187 557.729827 
L 112.535 556.063334 
L 115.883 554.114666 
L 118.673 552.25342 
L 121.463 550.157361 
L 124.253 547.808464 
L 127.043 545.188681 
L 129.833 542.280101 
L 132.623 539.06512 
L 135.413 535.52661 
L 138.203 531.648101 
L 140.993 527.413964 
L 143.783 522.809594 
L 146.573 517.821593 
L 149.363 512.437955 
L 152.711 505.440767 
L 156.059 497.84421 
L 159.407 489.63758 
L 162.755 480.81454 
L 166.103 471.373451 
L 169.451 461.317657 
L 173.357 448.820693 
L 177.263 435.521794 
L 181.169 421.454059 
L 185.633 404.49136 
L 190.097 386.662592 
L 195.119 365.692655 
L 200.699 341.452991 
L 207.953 308.879225 
L 229.157 212.824449 
L 234.737 188.965117 
L 239.201 170.756877 
L 243.665 153.508692 
L 247.571 139.326669 
L 250.919 127.924663 
L 254.267 117.278953 
L 257.615 107.441932 
L 260.405 99.896548 
L 263.195 92.97045 
L 265.985 86.685616 
L 268.217 82.132456 
L 270.449 78.010564 
L 272.681 74.327261 
L 274.913 71.088664 
L 277.145 68.299669 
L 278.819 66.505233 
L 280.493 64.966891 
L 282.167 63.685358 
L 283.841 62.660964 
L 285.515 61.893662 
L 287.189 61.383025 
L 288.863 61.128256 
L 290.537 61.128193 
L 292.211 61.381311 
L 293.885 61.885735 
L 295.559 62.639244 
L 297.233 63.639278 
L 298.907 64.882954 
L 300.581 66.367066 
L 302.255 68.088103 
L 304.487 70.744745 
L 306.719 73.805972 
L 308.951 77.261119 
L 311.183 81.098719 
L 313.973 86.414875 
L 316.763 92.284128 
L 319.553 98.679615 
L 322.343 105.573135 
L 325.691 114.461367 
L 329.039 123.971921 
L 332.945 135.781884 
L 336.851 148.27747 
L 341.315 163.283632 
L 346.337 180.931667 
L 352.475 203.339759 
L 360.845 234.818681 
L 379.259 304.323702 
L 385.955 328.64596 
L 392.093 350.129315 
L 397.673 368.849137 
L 402.695 384.955936 
L 407.717 400.304881 
L 412.181 413.279521 
L 416.645 425.603841 
L 421.109 437.265449 
L 425.573 448.258719 
L 429.479 457.329859 
L 433.385 465.89347 
L 437.291 473.956312 
L 441.197 481.527729 
L 445.103 488.619331 
L 449.009 495.244678 
L 452.915 501.418976 
L 456.821 507.158794 
L 460.727 512.481785 
L 464.633 517.406431 
L 468.539 521.951811 
L 472.445 526.137376 
L 476.351 529.982756 
L 480.257 533.507581 
L 484.163 536.731321 
L 488.069 539.673149 
L 491.975 542.351821 
L 495.881 544.785571 
L 500.345 547.289685 
L 504.809 549.522146 
L 509.273 551.506939 
L 513.737 553.266726 
L 518.759 555.003989 
L 523.781 556.511592 
L 529.361 557.948868 
L 535.499 559.277996 
L 541.637 560.380641 
L 548.333 561.365244 
L 556.145 562.275794 
L 564.515 563.022577 
L 568.421 563.304813 
L 568.421 563.304813 
" style="fill:none;stroke:#666666;stroke-linecap:square;stroke-width:10;"/>
   </g>
   <g id="patch_3">
    <path d="M 10.7 565.1 
L 10.7 10.7 
" style="fill:none;stroke:#666666;stroke-linecap:square;stroke-linejoin:miter;stroke-width:0.8;"/>
   </g>
   <g id="patch_4">
    <path d="M 568.7 565.1 
L 568.7 10.7 
" style="fill:none;stroke:#666666;stroke-linecap:square;stroke-linejoin:miter;stroke-width:0.8;"/>
   </g>
   <g id="patch_5">
    <path d="M 10.7 565.1 
L 568.7 565.1 
" style="fill:none;stroke:#666666;stroke-linecap:square;stroke-linejoin:miter;stroke-width:0.8;"/>
   </g>
   <g id="patch_6">
    <path d="M 10.7 10.7 
L 568.7 10.7 
" style="fill:none;stroke:#666666;stroke-linecap:square;stroke-linejoin:miter;stroke-width:0.8;"/>
   </g>
  </g>
 </g>
 <defs>
  <clipPath id="p8e8ac76a01">
   <rect height="554.4" width="558" x="10.7" y="10.7"/>
  </clipPath>
 </defs>
</svg>
