<svg height="350pt" id="arm" version="2.0" viewBox="-1 -0.5 9 7" width="450pt" xmlns="http://www.w3.org/2000/svg" xmlns:xlink="http://www.w3.org/1999/xlink"><defs><marker id="arrowhead" markerHeight="3" markerUnits="strokeWidth" markerWidth="3" orient="auto" refX="3" refY="1.5"><polygon fill="#666666" id="arrowshape" points="0 0, 3 1.5, 0 3" stroke="#666666" stroke-width="0.05"></polygon></marker><marker id="inv-arrowhead" markerHeight="3" markerUnits="strokeWidth" markerWidth="3" orient="auto" refX="0" refY="1.5"><polygon fill="#666666" id="inv-arrowshape" points="3 0, 0 1.5, 3 3" stroke="#666666" stroke-width="0.05"></polygon></marker><g id="x1-eq_figure_1"><g id="x1-eq_patch_1"><path d="M 0 11.61375 L 15 11.61375 L 15 0 L 0 0 z" stroke-linecap="butt" stroke-linejoin="round" style="fill:none;"></path></g><g id="x1-eq_text_1"><!-- $X_{1}$ --><defs><path d="M 3.609375 0 Q 2.59375 0 2.59375 1.3125 Q 2.640625 1.5625 2.8125 2.1875 Q 2.984375 2.828125 3.25 3.171875 Q 3.515625 3.515625 4 3.515625 Q 13.09375 3.515625 19.578125 10.296875 Q 19.671875 10.40625 19.796875 10.453125 Q 19.921875 10.5 19.921875 10.5 L 41.796875 34.078125 L 29.890625 62.796875 Q 28.859375 64.109375 26.5625 64.453125 Q 24.265625 64.796875 21.1875 64.796875 Q 20.21875 64.796875 20.21875 66.109375 Q 20.5625 67.390625 20.75 67.84375 Q 20.953125 68.3125 21.921875 68.3125 L 46.921875 68.3125 Q 47.90625 68.3125 47.90625 67 Q 47.859375 66.75 47.6875 66.109375 Q 47.515625 65.484375 47.234375 65.140625 Q 46.96875 64.796875 46.484375 64.796875 Q 44.625 64.796875 42.640625 64.1875 Q 40.671875 63.578125 39.890625 62.203125 L 48.484375 41.5 L 64.890625 59.078125 Q 65.046875 59.421875 65.578125 60.28125 Q 66.109375 61.140625 66.109375 61.921875 Q 66.109375 63.375 64.84375 64.078125 Q 63.578125 64.796875 61.8125 64.796875 Q 60.796875 64.796875 60.796875 66.109375 Q 61.140625 67.390625 61.328125 67.84375 Q 61.53125 68.3125 62.5 68.3125 L 84.1875 68.3125 Q 84.71875 68.3125 84.953125 67.921875 Q 85.203125 67.53125 85.203125 67 Q 85.15625 66.75 85 66.15625 Q 84.859375 65.578125 84.609375 65.1875 Q 84.375 64.796875 83.890625 64.796875 Q 79.25 64.796875 75.359375 63.109375 Q 71.484375 61.421875 68.21875 58.015625 Q 68.171875 57.953125 68.09375 57.921875 Q 68.015625 57.90625 67.921875 57.8125 L 49.8125 38.28125 L 63.484375 5.515625 Q 65.09375 3.515625 72.21875 3.515625 Q 73.1875 3.515625 73.1875 2.203125 Q 72.859375 0.875 72.625 0.4375 Q 72.40625 0 71.484375 0 L 46.484375 0 Q 45.515625 0 45.515625 1.3125 Q 45.5625 1.5625 45.703125 2.171875 Q 45.84375 2.78125 46.109375 3.140625 Q 46.390625 3.515625 46.78125 3.515625 Q 48.734375 3.515625 50.734375 4.125 Q 52.734375 4.734375 53.515625 6.109375 L 43.109375 31 L 22.90625 9.1875 Q 22.75 8.84375 22.21875 8 Q 21.6875 7.171875 21.6875 6.390625 Q 21.6875 4.9375 23.046875 4.21875 Q 24.421875 3.515625 25.984375 3.515625 Q 27 3.515625 27 2.203125 Q 26.65625 0.78125 26.453125 0.390625 Q 26.265625 0 25.296875 0 z" id="x1-eq_Cmmi10-58" stroke-linecap="butt" stroke-linejoin="round"></path><path d="M 9.28125 0 L 9.28125 3.515625 Q 21.78125 3.515625 21.78125 6.6875 L 21.78125 59.1875 Q 16.609375 56.6875 8.6875 56.6875 L 8.6875 60.203125 Q 20.953125 60.203125 27.203125 66.609375 L 28.609375 66.609375 Q 28.953125 66.609375 29.265625 66.328125 Q 29.59375 66.0625 29.59375 65.71875 L 29.59375 6.6875 Q 29.59375 3.515625 42.09375 3.515625 L 42.09375 0 z" id="x1-eq_Cmr10-31" stroke-linecap="butt" stroke-linejoin="round"></path></defs><g style="fill:#666666;" transform="translate(0 9.118125)scale(0.12 -0.12)"><use transform="translate(0 0.6875)" xlink:href="#x1-eq_Cmmi10-58"></use><use transform="translate(82.8125 -16.31875)scale(0.7)" xlink:href="#x1-eq_Cmr10-31"></use></g></g></g><g id="y1-eq_figure_1"><g id="y1-eq_patch_1"><path d="M 0 11.61375 L 12 11.61375 L 12 0 L 0 0 z" stroke-linecap="butt" stroke-linejoin="round" style="fill:none;"></path></g><g id="y1-eq_text_1"><!-- $Y_{1}$ --><defs><path d="M 8.890625 1.3125 Q 8.9375 1.5625 9.078125 2.140625 Q 9.234375 2.734375 9.46875 3.125 Q 9.71875 3.515625 10.203125 3.515625 Q 16.3125 3.515625 18.703125 4.203125 Q 19.1875 4.34375 19.59375 4.875 Q 20.015625 5.421875 20.265625 6 Q 20.515625 6.59375 20.703125 7.171875 L 25.6875 27.296875 L 12.796875 62.796875 Q 11.921875 64.109375 9.625 64.453125 Q 7.328125 64.796875 4.296875 64.796875 Q 3.328125 64.796875 3.328125 66.109375 Q 3.609375 67.328125 3.859375 67.8125 Q 4.109375 68.3125 4.984375 68.3125 L 30.171875 68.3125 Q 31.109375 68.3125 31.109375 67 Q 30.71875 64.796875 29.78125 64.796875 Q 22.703125 64.796875 22.703125 62.59375 L 33.984375 31.78125 L 57.625 59.078125 Q 57.8125 59.578125 58.296875 60.28125 Q 58.796875 60.984375 59.03125 61.46875 Q 59.28125 61.96875 59.28125 62.59375 Q 59.28125 64.796875 55.171875 64.796875 Q 54.203125 64.796875 54.203125 66.109375 Q 54.390625 66.890625 54.515625 67.328125 Q 54.640625 67.78125 54.953125 68.046875 Q 55.28125 68.3125 55.90625 68.3125 L 75.296875 68.3125 Q 75.734375 68.3125 76.015625 67.875 Q 76.3125 67.4375 76.3125 67 Q 76.125 66.265625 76.015625 65.9375 Q 75.921875 65.625 75.671875 65.203125 Q 75.4375 64.796875 74.90625 64.796875 Q 70.90625 64.796875 67.328125 63.0625 Q 63.765625 61.328125 61.078125 58.203125 Q 60.984375 58.109375 60.859375 58.03125 Q 60.75 57.953125 60.59375 57.8125 L 34.1875 27.296875 L 29 6.59375 Q 29 6.34375 28.90625 5.859375 Q 28.8125 5.375 28.8125 5.078125 Q 28.8125 4.6875 28.921875 4.421875 Q 29.046875 4.15625 29.265625 4.078125 Q 29.5 4 29.984375 3.90625 Q 31.890625 3.515625 37.203125 3.515625 Q 38.1875 3.515625 38.1875 2.203125 Q 37.84375 0.78125 37.640625 0.390625 Q 37.453125 0 36.53125 0 L 9.90625 0 Q 8.890625 0 8.890625 1.3125 z" id="y1-eq_Cmmi10-59" stroke-linecap="butt" stroke-linejoin="round"></path><path d="M 9.28125 0 L 9.28125 3.515625 Q 21.78125 3.515625 21.78125 6.6875 L 21.78125 59.1875 Q 16.609375 56.6875 8.6875 56.6875 L 8.6875 60.203125 Q 20.953125 60.203125 27.203125 66.609375 L 28.609375 66.609375 Q 28.953125 66.609375 29.265625 66.328125 Q 29.59375 66.0625 29.59375 65.71875 L 29.59375 6.6875 Q 29.59375 3.515625 42.09375 3.515625 L 42.09375 0 z" id="y1-eq_Cmr10-31" stroke-linecap="butt" stroke-linejoin="round"></path></defs><g style="fill:#666666;" transform="translate(0 9.118125)scale(0.12 -0.12)"><use transform="translate(0 0.6875)" xlink:href="#y1-eq_Cmmi10-59"></use><use transform="translate(58.007812 -16.31875)scale(0.7)" xlink:href="#y1-eq_Cmr10-31"></use></g></g></g><g id="x2-eq_figure_1"><g id="x2-eq_patch_1"><path d="M 0 11.61375 L 15 11.61375 L 15 0 L 0 0 z" stroke-linecap="butt" stroke-linejoin="round" style="fill:none;"></path></g><g id="x2-eq_text_1"><!-- $X_{2}$ --><defs><path d="M 3.609375 0 Q 2.59375 0 2.59375 1.3125 Q 2.640625 1.5625 2.8125 2.1875 Q 2.984375 2.828125 3.25 3.171875 Q 3.515625 3.515625 4 3.515625 Q 13.09375 3.515625 19.578125 10.296875 Q 19.671875 10.40625 19.796875 10.453125 Q 19.921875 10.5 19.921875 10.5 L 41.796875 34.078125 L 29.890625 62.796875 Q 28.859375 64.109375 26.5625 64.453125 Q 24.265625 64.796875 21.1875 64.796875 Q 20.21875 64.796875 20.21875 66.109375 Q 20.5625 67.390625 20.75 67.84375 Q 20.953125 68.3125 21.921875 68.3125 L 46.921875 68.3125 Q 47.90625 68.3125 47.90625 67 Q 47.859375 66.75 47.6875 66.109375 Q 47.515625 65.484375 47.234375 65.140625 Q 46.96875 64.796875 46.484375 64.796875 Q 44.625 64.796875 42.640625 64.1875 Q 40.671875 63.578125 39.890625 62.203125 L 48.484375 41.5 L 64.890625 59.078125 Q 65.046875 59.421875 65.578125 60.28125 Q 66.109375 61.140625 66.109375 61.921875 Q 66.109375 63.375 64.84375 64.078125 Q 63.578125 64.796875 61.8125 64.796875 Q 60.796875 64.796875 60.796875 66.109375 Q 61.140625 67.390625 61.328125 67.84375 Q 61.53125 68.3125 62.5 68.3125 L 84.1875 68.3125 Q 84.71875 68.3125 84.953125 67.921875 Q 85.203125 67.53125 85.203125 67 Q 85.15625 66.75 85 66.15625 Q 84.859375 65.578125 84.609375 65.1875 Q 84.375 64.796875 83.890625 64.796875 Q 79.25 64.796875 75.359375 63.109375 Q 71.484375 61.421875 68.21875 58.015625 Q 68.171875 57.953125 68.09375 57.921875 Q 68.015625 57.90625 67.921875 57.8125 L 49.8125 38.28125 L 63.484375 5.515625 Q 65.09375 3.515625 72.21875 3.515625 Q 73.1875 3.515625 73.1875 2.203125 Q 72.859375 0.875 72.625 0.4375 Q 72.40625 0 71.484375 0 L 46.484375 0 Q 45.515625 0 45.515625 1.3125 Q 45.5625 1.5625 45.703125 2.171875 Q 45.84375 2.78125 46.109375 3.140625 Q 46.390625 3.515625 46.78125 3.515625 Q 48.734375 3.515625 50.734375 4.125 Q 52.734375 4.734375 53.515625 6.109375 L 43.109375 31 L 22.90625 9.1875 Q 22.75 8.84375 22.21875 8 Q 21.6875 7.171875 21.6875 6.390625 Q 21.6875 4.9375 23.046875 4.21875 Q 24.421875 3.515625 25.984375 3.515625 Q 27 3.515625 27 2.203125 Q 26.65625 0.78125 26.453125 0.390625 Q 26.265625 0 25.296875 0 z" id="x2-eq_Cmmi10-58" stroke-linecap="butt" stroke-linejoin="round"></path><path d="M 4.984375 0 L 4.984375 2.6875 Q 4.984375 2.9375 5.171875 3.21875 L 20.703125 20.40625 Q 24.21875 24.21875 26.40625 26.796875 Q 28.609375 29.390625 30.75 32.765625 Q 32.90625 36.140625 34.15625 39.625 Q 35.40625 43.109375 35.40625 47.015625 Q 35.40625 51.125 33.890625 54.859375 Q 32.375 58.59375 29.375 60.84375 Q 26.375 63.09375 22.125 63.09375 Q 17.78125 63.09375 14.3125 60.46875 Q 10.84375 57.859375 9.421875 53.71875 Q 9.8125 53.8125 10.5 53.8125 Q 12.75 53.8125 14.328125 52.296875 Q 15.921875 50.78125 15.921875 48.390625 Q 15.921875 46.09375 14.328125 44.5 Q 12.75 42.921875 10.5 42.921875 Q 8.15625 42.921875 6.5625 44.546875 Q 4.984375 46.1875 4.984375 48.390625 Q 4.984375 52.15625 6.390625 55.4375 Q 7.8125 58.734375 10.46875 61.296875 Q 13.140625 63.875 16.484375 65.234375 Q 19.828125 66.609375 23.578125 66.609375 Q 29.296875 66.609375 34.21875 64.1875 Q 39.15625 61.765625 42.03125 57.34375 Q 44.921875 52.9375 44.921875 47.015625 Q 44.921875 42.671875 43.015625 38.765625 Q 41.109375 34.859375 38.125 31.65625 Q 35.15625 28.46875 30.515625 24.40625 Q 25.875 20.359375 24.421875 19 L 13.09375 8.109375 L 22.703125 8.109375 Q 29.78125 8.109375 34.546875 8.21875 Q 39.3125 8.34375 39.59375 8.59375 Q 40.765625 9.859375 42 17.828125 L 44.921875 17.828125 L 42.09375 0 z" id="x2-eq_Cmr10-32" stroke-linecap="butt" stroke-linejoin="round"></path></defs><g style="fill:#666666;" transform="translate(0 9.118125)scale(0.12 -0.12)"><use transform="translate(0 0.6875)" xlink:href="#x2-eq_Cmmi10-58"></use><use transform="translate(82.8125 -16.31875)scale(0.7)" xlink:href="#x2-eq_Cmr10-32"></use></g></g></g><g id="y2-eq_figure_1"><g id="y2-eq_patch_1"><path d="M 0 11.61375 L 12 11.61375 L 12 0 L 0 0 z" stroke-linecap="butt" stroke-linejoin="round" style="fill:none;"></path></g><g id="y2-eq_text_1"><!-- $Y_{2}$ --><defs><path d="M 8.890625 1.3125 Q 8.9375 1.5625 9.078125 2.140625 Q 9.234375 2.734375 9.46875 3.125 Q 9.71875 3.515625 10.203125 3.515625 Q 16.3125 3.515625 18.703125 4.203125 Q 19.1875 4.34375 19.59375 4.875 Q 20.015625 5.421875 20.265625 6 Q 20.515625 6.59375 20.703125 7.171875 L 25.6875 27.296875 L 12.796875 62.796875 Q 11.921875 64.109375 9.625 64.453125 Q 7.328125 64.796875 4.296875 64.796875 Q 3.328125 64.796875 3.328125 66.109375 Q 3.609375 67.328125 3.859375 67.8125 Q 4.109375 68.3125 4.984375 68.3125 L 30.171875 68.3125 Q 31.109375 68.3125 31.109375 67 Q 30.71875 64.796875 29.78125 64.796875 Q 22.703125 64.796875 22.703125 62.59375 L 33.984375 31.78125 L 57.625 59.078125 Q 57.8125 59.578125 58.296875 60.28125 Q 58.796875 60.984375 59.03125 61.46875 Q 59.28125 61.96875 59.28125 62.59375 Q 59.28125 64.796875 55.171875 64.796875 Q 54.203125 64.796875 54.203125 66.109375 Q 54.390625 66.890625 54.515625 67.328125 Q 54.640625 67.78125 54.953125 68.046875 Q 55.28125 68.3125 55.90625 68.3125 L 75.296875 68.3125 Q 75.734375 68.3125 76.015625 67.875 Q 76.3125 67.4375 76.3125 67 Q 76.125 66.265625 76.015625 65.9375 Q 75.921875 65.625 75.671875 65.203125 Q 75.4375 64.796875 74.90625 64.796875 Q 70.90625 64.796875 67.328125 63.0625 Q 63.765625 61.328125 61.078125 58.203125 Q 60.984375 58.109375 60.859375 58.03125 Q 60.75 57.953125 60.59375 57.8125 L 34.1875 27.296875 L 29 6.59375 Q 29 6.34375 28.90625 5.859375 Q 28.8125 5.375 28.8125 5.078125 Q 28.8125 4.6875 28.921875 4.421875 Q 29.046875 4.15625 29.265625 4.078125 Q 29.5 4 29.984375 3.90625 Q 31.890625 3.515625 37.203125 3.515625 Q 38.1875 3.515625 38.1875 2.203125 Q 37.84375 0.78125 37.640625 0.390625 Q 37.453125 0 36.53125 0 L 9.90625 0 Q 8.890625 0 8.890625 1.3125 z" id="y2-eq_Cmmi10-59" stroke-linecap="butt" stroke-linejoin="round"></path><path d="M 4.984375 0 L 4.984375 2.6875 Q 4.984375 2.9375 5.171875 3.21875 L 20.703125 20.40625 Q 24.21875 24.21875 26.40625 26.796875 Q 28.609375 29.390625 30.75 32.765625 Q 32.90625 36.140625 34.15625 39.625 Q 35.40625 43.109375 35.40625 47.015625 Q 35.40625 51.125 33.890625 54.859375 Q 32.375 58.59375 29.375 60.84375 Q 26.375 63.09375 22.125 63.09375 Q 17.78125 63.09375 14.3125 60.46875 Q 10.84375 57.859375 9.421875 53.71875 Q 9.8125 53.8125 10.5 53.8125 Q 12.75 53.8125 14.328125 52.296875 Q 15.921875 50.78125 15.921875 48.390625 Q 15.921875 46.09375 14.328125 44.5 Q 12.75 42.921875 10.5 42.921875 Q 8.15625 42.921875 6.5625 44.546875 Q 4.984375 46.1875 4.984375 48.390625 Q 4.984375 52.15625 6.390625 55.4375 Q 7.8125 58.734375 10.46875 61.296875 Q 13.140625 63.875 16.484375 65.234375 Q 19.828125 66.609375 23.578125 66.609375 Q 29.296875 66.609375 34.21875 64.1875 Q 39.15625 61.765625 42.03125 57.34375 Q 44.921875 52.9375 44.921875 47.015625 Q 44.921875 42.671875 43.015625 38.765625 Q 41.109375 34.859375 38.125 31.65625 Q 35.15625 28.46875 30.515625 24.40625 Q 25.875 20.359375 24.421875 19 L 13.09375 8.109375 L 22.703125 8.109375 Q 29.78125 8.109375 34.546875 8.21875 Q 39.3125 8.34375 39.59375 8.59375 Q 40.765625 9.859375 42 17.828125 L 44.921875 17.828125 L 42.09375 0 z" id="y2-eq_Cmr10-32" stroke-linecap="butt" stroke-linejoin="round"></path></defs><g style="fill:#666666;" transform="translate(0 9.118125)scale(0.12 -0.12)"><use transform="translate(0 0.6875)" xlink:href="#y2-eq_Cmmi10-59"></use><use transform="translate(58.007812 -16.31875)scale(0.7)" xlink:href="#y2-eq_Cmr10-32"></use></g></g></g><g id="add-eq_figure_1"><g id="add-eq_patch_1"><path d="M 0 11.61375 L 9.36 11.61375 L 9.36 0 L 0 0 z" stroke-linecap="butt" stroke-linejoin="round" style="fill:none;"></path></g><g id="add-eq_text_1"><!-- $+$ --><defs><path d="M 7.515625 23 Q 6.6875 23 6.140625 23.625 Q 5.609375 24.265625 5.609375 25 Q 5.609375 25.734375 6.140625 26.359375 Q 6.6875 27 7.515625 27 L 36.921875 27 L 36.921875 56.5 Q 36.921875 57.28125 37.5 57.78125 Q 38.09375 58.296875 38.921875 58.296875 Q 39.65625 58.296875 40.28125 57.78125 Q 40.921875 57.28125 40.921875 56.5 L 40.921875 27 L 70.3125 27 Q 71.046875 27 71.578125 26.359375 Q 72.125 25.734375 72.125 25 Q 72.125 24.265625 71.578125 23.625 Q 71.046875 23 70.3125 23 L 40.921875 23 L 40.921875 -6.5 Q 40.921875 -7.28125 40.28125 -7.78125 Q 39.65625 -8.296875 38.921875 -8.296875 Q 38.09375 -8.296875 37.5 -7.78125 Q 36.921875 -7.28125 36.921875 -6.5 L 36.921875 23 z" id="add-eq_Cmr10-2b" stroke-linecap="butt" stroke-linejoin="round"></path></defs><g style="fill:#666666;" transform="translate(0 9.118125)scale(0.12 -0.12)"><use transform="translate(0 0.703125)" xlink:href="#add-eq_Cmr10-2b"></use></g></g></g><g id="mul-eq_figure_1"><g id="mul-eq_patch_1"><path d="M 0 11.61375 L 9.36 11.61375 L 9.36 0 L 0 0 z" stroke-linecap="butt" stroke-linejoin="round" style="fill:none;"></path></g><g id="mul-eq_text_1"><!-- $\times$ --><defs><path d="M 14.703125 2.875 Q 14.703125 3.65625 15.1875 4.296875 L 35.984375 25 L 15.1875 45.796875 Q 14.703125 46.296875 14.703125 47.125 Q 14.703125 47.859375 15.28125 48.484375 Q 15.875 49.125 16.703125 49.125 Q 17.390625 49.125 18.21875 48.484375 L 38.921875 27.78125 L 59.515625 48.484375 Q 60.359375 49.125 60.984375 49.125 Q 61.8125 49.125 62.390625 48.53125 Q 62.984375 47.953125 62.984375 47.125 Q 62.984375 46.296875 62.5 45.796875 L 41.703125 25 L 62.5 4.296875 Q 62.984375 3.65625 62.984375 2.875 Q 62.984375 2.046875 62.390625 1.453125 Q 61.8125 0.875 60.984375 0.875 Q 60.25 0.875 59.515625 1.609375 L 38.921875 22.21875 L 18.21875 1.609375 Q 17.484375 0.875 16.703125 0.875 Q 15.875 0.875 15.28125 1.515625 Q 14.703125 2.15625 14.703125 2.875 z" id="mul-eq_Cmsy10-a3" stroke-linecap="butt" stroke-linejoin="round"></path></defs><g style="fill:#666666;" transform="translate(0 9.118125)scale(0.12 -0.12)"><use transform="translate(0 0.875)" xlink:href="#mul-eq_Cmsy10-a3"></use></g></g></g><g id="t-eq_figure_1"><g id="t-eq_patch_1"><path d="M 0 11.61375 L 4.44 11.61375 L 4.44 0 L 0 0 z" stroke-linecap="butt" stroke-linejoin="round" style="fill:none;"></path></g><g id="t-eq_text_1"><!-- $t$ --><defs><path d="M 6.203125 8.109375 Q 6.203125 9.578125 6.5 10.890625 L 13.71875 39.59375 L 3.21875 39.59375 Q 2.203125 39.59375 2.203125 40.921875 Q 2.59375 43.109375 3.515625 43.109375 L 14.59375 43.109375 L 18.609375 59.421875 Q 19 60.75 20.171875 61.671875 Q 21.34375 62.59375 22.796875 62.59375 Q 24.078125 62.59375 24.921875 61.828125 Q 25.78125 61.078125 25.78125 59.8125 Q 25.78125 59.515625 25.75 59.34375 Q 25.734375 59.1875 25.6875 58.984375 L 21.6875 43.109375 L 31.984375 43.109375 Q 33.015625 43.109375 33.015625 41.796875 Q 32.953125 41.546875 32.8125 40.953125 Q 32.671875 40.375 32.421875 39.984375 Q 32.171875 39.59375 31.6875 39.59375 L 20.796875 39.59375 L 13.625 10.6875 Q 12.890625 7.859375 12.890625 5.8125 Q 12.890625 1.515625 15.828125 1.515625 Q 20.21875 1.515625 23.609375 5.640625 Q 27 9.765625 28.8125 14.703125 Q 29.203125 15.28125 29.59375 15.28125 L 30.8125 15.28125 Q 31.203125 15.28125 31.4375 15.015625 Q 31.6875 14.75 31.6875 14.40625 Q 31.6875 14.203125 31.59375 14.109375 Q 29.390625 8.0625 25.1875 3.46875 Q 21 -1.125 15.578125 -1.125 Q 11.625 -1.125 8.90625 1.453125 Q 6.203125 4.046875 6.203125 8.109375 z" id="t-eq_Cmmi10-74" stroke-linecap="butt" stroke-linejoin="round"></path></defs><g style="fill:#666666;" transform="translate(0 9.118125)scale(0.12 -0.12)"><use transform="translate(0 0.40625)" xlink:href="#t-eq_Cmmi10-74"></use></g></g></g><g id="s-eq_figure_1"><g id="s-eq_patch_1"><path d="M 0 11.61375 L 5.64 11.61375 L 5.64 0 L 0 0 z" stroke-linecap="butt" stroke-linejoin="round" style="fill:none;"></path></g><g id="s-eq_text_1"><!-- $s$ --><defs><path d="M 8.6875 6.109375 Q 11.375 1.515625 19.484375 1.515625 Q 23 1.515625 26.171875 2.703125 Q 29.34375 3.90625 31.421875 6.296875 Q 33.5 8.6875 33.5 12.109375 Q 33.5 14.703125 31.640625 16.359375 Q 29.78125 18.015625 27.09375 18.609375 L 21.6875 19.671875 Q 17.96875 20.609375 15.578125 23.140625 Q 13.1875 25.6875 13.1875 29.296875 Q 13.1875 33.734375 15.59375 37.15625 Q 18.015625 40.578125 21.96875 42.375 Q 25.921875 44.1875 30.171875 44.1875 Q 34.71875 44.1875 38.296875 42.015625 Q 41.890625 39.84375 41.890625 35.59375 Q 41.890625 33.296875 40.59375 31.53125 Q 39.3125 29.78125 37.015625 29.78125 Q 35.6875 29.78125 34.734375 30.640625 Q 33.796875 31.5 33.796875 32.8125 Q 33.796875 33.984375 34.453125 35.078125 Q 35.109375 36.1875 36.203125 36.84375 Q 37.3125 37.5 38.484375 37.5 Q 37.59375 39.65625 35.171875 40.625 Q 32.765625 41.609375 29.984375 41.609375 Q 27.4375 41.609375 24.890625 40.578125 Q 22.359375 39.546875 20.8125 37.5625 Q 19.28125 35.59375 19.28125 32.90625 Q 19.28125 31.109375 20.546875 29.734375 Q 21.828125 28.375 23.6875 27.78125 L 29.5 26.609375 Q 32.28125 26.03125 34.59375 24.53125 Q 36.921875 23.046875 38.25 20.765625 Q 39.59375 18.5 39.59375 15.578125 Q 39.59375 11.859375 37.515625 8.25 Q 35.453125 4.640625 32.421875 2.484375 Q 27.09375 -1.125 19.390625 -1.125 Q 14.0625 -1.125 9.609375 1.3125 Q 5.171875 3.765625 5.171875 8.59375 Q 5.171875 11.328125 6.75 13.34375 Q 8.34375 15.375 11.078125 15.375 Q 12.703125 15.375 13.796875 14.390625 Q 14.890625 13.421875 14.890625 11.8125 Q 14.890625 9.515625 13.171875 7.8125 Q 11.46875 6.109375 9.1875 6.109375 z" id="s-eq_Cmmi10-73" stroke-linecap="butt" stroke-linejoin="round"></path></defs><g style="fill:#666666;" transform="translate(0 9.118125)scale(0.12 -0.12)"><use transform="translate(0 0.8125)" xlink:href="#s-eq_Cmmi10-73"></use></g></g></g><g id="mt-eq_figure_1"><g id="mt-eq_patch_1"><path d="M 0 11.61375 L 13.68 11.61375 L 13.68 0 L 0 0 z" stroke-linecap="butt" stroke-linejoin="round" style="fill:none;"></path></g><g id="mt-eq_text_1"><!-- ${- t}$ --><defs><path d="M 10.203125 23 Q 9.375 23 8.828125 23.625 Q 8.296875 24.265625 8.296875 25 Q 8.296875 25.734375 8.828125 26.359375 Q 9.375 27 10.203125 27 L 67.578125 27 Q 68.359375 27 68.875 26.359375 Q 69.390625 25.734375 69.390625 25 Q 69.390625 24.265625 68.875 23.625 Q 68.359375 23 67.578125 23 z" id="mt-eq_Cmsy10-a1" stroke-linecap="butt" stroke-linejoin="round"></path><path d="M 6.203125 8.109375 Q 6.203125 9.578125 6.5 10.890625 L 13.71875 39.59375 L 3.21875 39.59375 Q 2.203125 39.59375 2.203125 40.921875 Q 2.59375 43.109375 3.515625 43.109375 L 14.59375 43.109375 L 18.609375 59.421875 Q 19 60.75 20.171875 61.671875 Q 21.34375 62.59375 22.796875 62.59375 Q 24.078125 62.59375 24.921875 61.828125 Q 25.78125 61.078125 25.78125 59.8125 Q 25.78125 59.515625 25.75 59.34375 Q 25.734375 59.1875 25.6875 58.984375 L 21.6875 43.109375 L 31.984375 43.109375 Q 33.015625 43.109375 33.015625 41.796875 Q 32.953125 41.546875 32.8125 40.953125 Q 32.671875 40.375 32.421875 39.984375 Q 32.171875 39.59375 31.6875 39.59375 L 20.796875 39.59375 L 13.625 10.6875 Q 12.890625 7.859375 12.890625 5.8125 Q 12.890625 1.515625 15.828125 1.515625 Q 20.21875 1.515625 23.609375 5.640625 Q 27 9.765625 28.8125 14.703125 Q 29.203125 15.28125 29.59375 15.28125 L 30.8125 15.28125 Q 31.203125 15.28125 31.4375 15.015625 Q 31.6875 14.75 31.6875 14.40625 Q 31.6875 14.203125 31.59375 14.109375 Q 29.390625 8.0625 25.1875 3.46875 Q 21 -1.125 15.578125 -1.125 Q 11.625 -1.125 8.90625 1.453125 Q 6.203125 4.046875 6.203125 8.109375 z" id="mt-eq_Cmmi10-74" stroke-linecap="butt" stroke-linejoin="round"></path></defs><g style="fill:#666666;" transform="translate(0 9.118125)scale(0.12 -0.12)"><use transform="translate(0 0.40625)" xlink:href="#mt-eq_Cmsy10-a1"></use><use transform="translate(77.685547 0.40625)" xlink:href="#mt-eq_Cmmi10-74"></use></g></g></g><g id="ms-eq_figure_1"><g id="ms-eq_patch_1"><path d="M 0 11.61375 L 15 11.61375 L 15 0 L 0 0 z" stroke-linecap="butt" stroke-linejoin="round" style="fill:none;"></path></g><g id="ms-eq_text_1"><!-- ${- s}$ --><defs><path d="M 10.203125 23 Q 9.375 23 8.828125 23.625 Q 8.296875 24.265625 8.296875 25 Q 8.296875 25.734375 8.828125 26.359375 Q 9.375 27 10.203125 27 L 67.578125 27 Q 68.359375 27 68.875 26.359375 Q 69.390625 25.734375 69.390625 25 Q 69.390625 24.265625 68.875 23.625 Q 68.359375 23 67.578125 23 z" id="ms-eq_Cmsy10-a1" stroke-linecap="butt" stroke-linejoin="round"></path><path d="M 8.6875 6.109375 Q 11.375 1.515625 19.484375 1.515625 Q 23 1.515625 26.171875 2.703125 Q 29.34375 3.90625 31.421875 6.296875 Q 33.5 8.6875 33.5 12.109375 Q 33.5 14.703125 31.640625 16.359375 Q 29.78125 18.015625 27.09375 18.609375 L 21.6875 19.671875 Q 17.96875 20.609375 15.578125 23.140625 Q 13.1875 25.6875 13.1875 29.296875 Q 13.1875 33.734375 15.59375 37.15625 Q 18.015625 40.578125 21.96875 42.375 Q 25.921875 44.1875 30.171875 44.1875 Q 34.71875 44.1875 38.296875 42.015625 Q 41.890625 39.84375 41.890625 35.59375 Q 41.890625 33.296875 40.59375 31.53125 Q 39.3125 29.78125 37.015625 29.78125 Q 35.6875 29.78125 34.734375 30.640625 Q 33.796875 31.5 33.796875 32.8125 Q 33.796875 33.984375 34.453125 35.078125 Q 35.109375 36.1875 36.203125 36.84375 Q 37.3125 37.5 38.484375 37.5 Q 37.59375 39.65625 35.171875 40.625 Q 32.765625 41.609375 29.984375 41.609375 Q 27.4375 41.609375 24.890625 40.578125 Q 22.359375 39.546875 20.8125 37.5625 Q 19.28125 35.59375 19.28125 32.90625 Q 19.28125 31.109375 20.546875 29.734375 Q 21.828125 28.375 23.6875 27.78125 L 29.5 26.609375 Q 32.28125 26.03125 34.59375 24.53125 Q 36.921875 23.046875 38.25 20.765625 Q 39.59375 18.5 39.59375 15.578125 Q 39.59375 11.859375 37.515625 8.25 Q 35.453125 4.640625 32.421875 2.484375 Q 27.09375 -1.125 19.390625 -1.125 Q 14.0625 -1.125 9.609375 1.3125 Q 5.171875 3.765625 5.171875 8.59375 Q 5.171875 11.328125 6.75 13.34375 Q 8.34375 15.375 11.078125 15.375 Q 12.703125 15.375 13.796875 14.390625 Q 14.890625 13.421875 14.890625 11.8125 Q 14.890625 9.515625 13.171875 7.8125 Q 11.46875 6.109375 9.1875 6.109375 z" id="ms-eq_Cmmi10-73" stroke-linecap="butt" stroke-linejoin="round"></path></defs><g style="fill:#666666;" transform="translate(0 9.118125)scale(0.12 -0.12)"><use transform="translate(0 0.8125)" xlink:href="#ms-eq_Cmsy10-a1"></use><use transform="translate(77.685547 0.8125)" xlink:href="#ms-eq_Cmmi10-73"></use></g></g></g><g id="fwd-1-eq_figure_1"><g id="fwd-1-eq_patch_1"><path d="M 0 11.61375 L 40.44 11.61375 L 40.44 0 L 0 0 z" stroke-linecap="butt" stroke-linejoin="round" style="fill:none;"></path></g><g id="fwd-1-eq_text_1"><!-- $Y_{1} = X_{1}$ --><defs><path d="M 8.890625 1.3125 Q 8.9375 1.5625 9.078125 2.140625 Q 9.234375 2.734375 9.46875 3.125 Q 9.71875 3.515625 10.203125 3.515625 Q 16.3125 3.515625 18.703125 4.203125 Q 19.1875 4.34375 19.59375 4.875 Q 20.015625 5.421875 20.265625 6 Q 20.515625 6.59375 20.703125 7.171875 L 25.6875 27.296875 L 12.796875 62.796875 Q 11.921875 64.109375 9.625 64.453125 Q 7.328125 64.796875 4.296875 64.796875 Q 3.328125 64.796875 3.328125 66.109375 Q 3.609375 67.328125 3.859375 67.8125 Q 4.109375 68.3125 4.984375 68.3125 L 30.171875 68.3125 Q 31.109375 68.3125 31.109375 67 Q 30.71875 64.796875 29.78125 64.796875 Q 22.703125 64.796875 22.703125 62.59375 L 33.984375 31.78125 L 57.625 59.078125 Q 57.8125 59.578125 58.296875 60.28125 Q 58.796875 60.984375 59.03125 61.46875 Q 59.28125 61.96875 59.28125 62.59375 Q 59.28125 64.796875 55.171875 64.796875 Q 54.203125 64.796875 54.203125 66.109375 Q 54.390625 66.890625 54.515625 67.328125 Q 54.640625 67.78125 54.953125 68.046875 Q 55.28125 68.3125 55.90625 68.3125 L 75.296875 68.3125 Q 75.734375 68.3125 76.015625 67.875 Q 76.3125 67.4375 76.3125 67 Q 76.125 66.265625 76.015625 65.9375 Q 75.921875 65.625 75.671875 65.203125 Q 75.4375 64.796875 74.90625 64.796875 Q 70.90625 64.796875 67.328125 63.0625 Q 63.765625 61.328125 61.078125 58.203125 Q 60.984375 58.109375 60.859375 58.03125 Q 60.75 57.953125 60.59375 57.8125 L 34.1875 27.296875 L 29 6.59375 Q 29 6.34375 28.90625 5.859375 Q 28.8125 5.375 28.8125 5.078125 Q 28.8125 4.6875 28.921875 4.421875 Q 29.046875 4.15625 29.265625 4.078125 Q 29.5 4 29.984375 3.90625 Q 31.890625 3.515625 37.203125 3.515625 Q 38.1875 3.515625 38.1875 2.203125 Q 37.84375 0.78125 37.640625 0.390625 Q 37.453125 0 36.53125 0 L 9.90625 0 Q 8.890625 0 8.890625 1.3125 z" id="fwd-1-eq_Cmmi10-59" stroke-linecap="butt" stroke-linejoin="round"></path><path d="M 9.28125 0 L 9.28125 3.515625 Q 21.78125 3.515625 21.78125 6.6875 L 21.78125 59.1875 Q 16.609375 56.6875 8.6875 56.6875 L 8.6875 60.203125 Q 20.953125 60.203125 27.203125 66.609375 L 28.609375 66.609375 Q 28.953125 66.609375 29.265625 66.328125 Q 29.59375 66.0625 29.59375 65.71875 L 29.59375 6.6875 Q 29.59375 3.515625 42.09375 3.515625 L 42.09375 0 z" id="fwd-1-eq_Cmr10-31" stroke-linecap="butt" stroke-linejoin="round"></path><path d="M 7.515625 13.28125 Q 6.6875 13.28125 6.140625 13.90625 Q 5.609375 14.546875 5.609375 15.28125 Q 5.609375 16.109375 6.140625 16.6875 Q 6.6875 17.28125 7.515625 17.28125 L 70.3125 17.28125 Q 71.046875 17.28125 71.578125 16.6875 Q 72.125 16.109375 72.125 15.28125 Q 72.125 14.546875 71.578125 13.90625 Q 71.046875 13.28125 70.3125 13.28125 zM 7.515625 32.71875 Q 6.6875 32.71875 6.140625 33.296875 Q 5.609375 33.890625 5.609375 34.71875 Q 5.609375 35.453125 6.140625 36.078125 Q 6.6875 36.71875 7.515625 36.71875 L 70.3125 36.71875 Q 71.046875 36.71875 71.578125 36.078125 Q 72.125 35.453125 72.125 34.71875 Q 72.125 33.890625 71.578125 33.296875 Q 71.046875 32.71875 70.3125 32.71875 z" id="fwd-1-eq_Cmr10-3d" stroke-linecap="butt" stroke-linejoin="round"></path><path d="M 3.609375 0 Q 2.59375 0 2.59375 1.3125 Q 2.640625 1.5625 2.8125 2.1875 Q 2.984375 2.828125 3.25 3.171875 Q 3.515625 3.515625 4 3.515625 Q 13.09375 3.515625 19.578125 10.296875 Q 19.671875 10.40625 19.796875 10.453125 Q 19.921875 10.5 19.921875 10.5 L 41.796875 34.078125 L 29.890625 62.796875 Q 28.859375 64.109375 26.5625 64.453125 Q 24.265625 64.796875 21.1875 64.796875 Q 20.21875 64.796875 20.21875 66.109375 Q 20.5625 67.390625 20.75 67.84375 Q 20.953125 68.3125 21.921875 68.3125 L 46.921875 68.3125 Q 47.90625 68.3125 47.90625 67 Q 47.859375 66.75 47.6875 66.109375 Q 47.515625 65.484375 47.234375 65.140625 Q 46.96875 64.796875 46.484375 64.796875 Q 44.625 64.796875 42.640625 64.1875 Q 40.671875 63.578125 39.890625 62.203125 L 48.484375 41.5 L 64.890625 59.078125 Q 65.046875 59.421875 65.578125 60.28125 Q 66.109375 61.140625 66.109375 61.921875 Q 66.109375 63.375 64.84375 64.078125 Q 63.578125 64.796875 61.8125 64.796875 Q 60.796875 64.796875 60.796875 66.109375 Q 61.140625 67.390625 61.328125 67.84375 Q 61.53125 68.3125 62.5 68.3125 L 84.1875 68.3125 Q 84.71875 68.3125 84.953125 67.921875 Q 85.203125 67.53125 85.203125 67 Q 85.15625 66.75 85 66.15625 Q 84.859375 65.578125 84.609375 65.1875 Q 84.375 64.796875 83.890625 64.796875 Q 79.25 64.796875 75.359375 63.109375 Q 71.484375 61.421875 68.21875 58.015625 Q 68.171875 57.953125 68.09375 57.921875 Q 68.015625 57.90625 67.921875 57.8125 L 49.8125 38.28125 L 63.484375 5.515625 Q 65.09375 3.515625 72.21875 3.515625 Q 73.1875 3.515625 73.1875 2.203125 Q 72.859375 0.875 72.625 0.4375 Q 72.40625 0 71.484375 0 L 46.484375 0 Q 45.515625 0 45.515625 1.3125 Q 45.5625 1.5625 45.703125 2.171875 Q 45.84375 2.78125 46.109375 3.140625 Q 46.390625 3.515625 46.78125 3.515625 Q 48.734375 3.515625 50.734375 4.125 Q 52.734375 4.734375 53.515625 6.109375 L 43.109375 31 L 22.90625 9.1875 Q 22.75 8.84375 22.21875 8 Q 21.6875 7.171875 21.6875 6.390625 Q 21.6875 4.9375 23.046875 4.21875 Q 24.421875 3.515625 25.984375 3.515625 Q 27 3.515625 27 2.203125 Q 26.65625 0.78125 26.453125 0.390625 Q 26.265625 0 25.296875 0 z" id="fwd-1-eq_Cmmi10-58" stroke-linecap="butt" stroke-linejoin="round"></path></defs><g style="fill:#666666;" transform="translate(0 9.118125)scale(0.12 -0.12)"><use transform="translate(0 0.6875)" xlink:href="#fwd-1-eq_Cmmi10-59"></use><use transform="translate(58.007812 -16.31875)scale(0.7)" xlink:href="#fwd-1-eq_Cmr10-31"></use><use transform="translate(116.94375 0.6875)" xlink:href="#fwd-1-eq_Cmr10-3d"></use><use transform="translate(212.187891 0.6875)" xlink:href="#fwd-1-eq_Cmmi10-58"></use><use transform="translate(295.000391 -16.31875)scale(0.7)" xlink:href="#fwd-1-eq_Cmr10-31"></use></g></g></g><g id="inv-1-eq_figure_1"><g id="inv-1-eq_patch_1"><path d="M 0 11.61375 L 40.44 11.61375 L 40.44 0 L 0 0 z" stroke-linecap="butt" stroke-linejoin="round" style="fill:none;"></path></g><g id="inv-1-eq_text_1"><!-- $X_{1} = Y_{1}$ --><defs><path d="M 3.609375 0 Q 2.59375 0 2.59375 1.3125 Q 2.640625 1.5625 2.8125 2.1875 Q 2.984375 2.828125 3.25 3.171875 Q 3.515625 3.515625 4 3.515625 Q 13.09375 3.515625 19.578125 10.296875 Q 19.671875 10.40625 19.796875 10.453125 Q 19.921875 10.5 19.921875 10.5 L 41.796875 34.078125 L 29.890625 62.796875 Q 28.859375 64.109375 26.5625 64.453125 Q 24.265625 64.796875 21.1875 64.796875 Q 20.21875 64.796875 20.21875 66.109375 Q 20.5625 67.390625 20.75 67.84375 Q 20.953125 68.3125 21.921875 68.3125 L 46.921875 68.3125 Q 47.90625 68.3125 47.90625 67 Q 47.859375 66.75 47.6875 66.109375 Q 47.515625 65.484375 47.234375 65.140625 Q 46.96875 64.796875 46.484375 64.796875 Q 44.625 64.796875 42.640625 64.1875 Q 40.671875 63.578125 39.890625 62.203125 L 48.484375 41.5 L 64.890625 59.078125 Q 65.046875 59.421875 65.578125 60.28125 Q 66.109375 61.140625 66.109375 61.921875 Q 66.109375 63.375 64.84375 64.078125 Q 63.578125 64.796875 61.8125 64.796875 Q 60.796875 64.796875 60.796875 66.109375 Q 61.140625 67.390625 61.328125 67.84375 Q 61.53125 68.3125 62.5 68.3125 L 84.1875 68.3125 Q 84.71875 68.3125 84.953125 67.921875 Q 85.203125 67.53125 85.203125 67 Q 85.15625 66.75 85 66.15625 Q 84.859375 65.578125 84.609375 65.1875 Q 84.375 64.796875 83.890625 64.796875 Q 79.25 64.796875 75.359375 63.109375 Q 71.484375 61.421875 68.21875 58.015625 Q 68.171875 57.953125 68.09375 57.921875 Q 68.015625 57.90625 67.921875 57.8125 L 49.8125 38.28125 L 63.484375 5.515625 Q 65.09375 3.515625 72.21875 3.515625 Q 73.1875 3.515625 73.1875 2.203125 Q 72.859375 0.875 72.625 0.4375 Q 72.40625 0 71.484375 0 L 46.484375 0 Q 45.515625 0 45.515625 1.3125 Q 45.5625 1.5625 45.703125 2.171875 Q 45.84375 2.78125 46.109375 3.140625 Q 46.390625 3.515625 46.78125 3.515625 Q 48.734375 3.515625 50.734375 4.125 Q 52.734375 4.734375 53.515625 6.109375 L 43.109375 31 L 22.90625 9.1875 Q 22.75 8.84375 22.21875 8 Q 21.6875 7.171875 21.6875 6.390625 Q 21.6875 4.9375 23.046875 4.21875 Q 24.421875 3.515625 25.984375 3.515625 Q 27 3.515625 27 2.203125 Q 26.65625 0.78125 26.453125 0.390625 Q 26.265625 0 25.296875 0 z" id="inv-1-eq_Cmmi10-58" stroke-linecap="butt" stroke-linejoin="round"></path><path d="M 9.28125 0 L 9.28125 3.515625 Q 21.78125 3.515625 21.78125 6.6875 L 21.78125 59.1875 Q 16.609375 56.6875 8.6875 56.6875 L 8.6875 60.203125 Q 20.953125 60.203125 27.203125 66.609375 L 28.609375 66.609375 Q 28.953125 66.609375 29.265625 66.328125 Q 29.59375 66.0625 29.59375 65.71875 L 29.59375 6.6875 Q 29.59375 3.515625 42.09375 3.515625 L 42.09375 0 z" id="inv-1-eq_Cmr10-31" stroke-linecap="butt" stroke-linejoin="round"></path><path d="M 7.515625 13.28125 Q 6.6875 13.28125 6.140625 13.90625 Q 5.609375 14.546875 5.609375 15.28125 Q 5.609375 16.109375 6.140625 16.6875 Q 6.6875 17.28125 7.515625 17.28125 L 70.3125 17.28125 Q 71.046875 17.28125 71.578125 16.6875 Q 72.125 16.109375 72.125 15.28125 Q 72.125 14.546875 71.578125 13.90625 Q 71.046875 13.28125 70.3125 13.28125 zM 7.515625 32.71875 Q 6.6875 32.71875 6.140625 33.296875 Q 5.609375 33.890625 5.609375 34.71875 Q 5.609375 35.453125 6.140625 36.078125 Q 6.6875 36.71875 7.515625 36.71875 L 70.3125 36.71875 Q 71.046875 36.71875 71.578125 36.078125 Q 72.125 35.453125 72.125 34.71875 Q 72.125 33.890625 71.578125 33.296875 Q 71.046875 32.71875 70.3125 32.71875 z" id="inv-1-eq_Cmr10-3d" stroke-linecap="butt" stroke-linejoin="round"></path><path d="M 8.890625 1.3125 Q 8.9375 1.5625 9.078125 2.140625 Q 9.234375 2.734375 9.46875 3.125 Q 9.71875 3.515625 10.203125 3.515625 Q 16.3125 3.515625 18.703125 4.203125 Q 19.1875 4.34375 19.59375 4.875 Q 20.015625 5.421875 20.265625 6 Q 20.515625 6.59375 20.703125 7.171875 L 25.6875 27.296875 L 12.796875 62.796875 Q 11.921875 64.109375 9.625 64.453125 Q 7.328125 64.796875 4.296875 64.796875 Q 3.328125 64.796875 3.328125 66.109375 Q 3.609375 67.328125 3.859375 67.8125 Q 4.109375 68.3125 4.984375 68.3125 L 30.171875 68.3125 Q 31.109375 68.3125 31.109375 67 Q 30.71875 64.796875 29.78125 64.796875 Q 22.703125 64.796875 22.703125 62.59375 L 33.984375 31.78125 L 57.625 59.078125 Q 57.8125 59.578125 58.296875 60.28125 Q 58.796875 60.984375 59.03125 61.46875 Q 59.28125 61.96875 59.28125 62.59375 Q 59.28125 64.796875 55.171875 64.796875 Q 54.203125 64.796875 54.203125 66.109375 Q 54.390625 66.890625 54.515625 67.328125 Q 54.640625 67.78125 54.953125 68.046875 Q 55.28125 68.3125 55.90625 68.3125 L 75.296875 68.3125 Q 75.734375 68.3125 76.015625 67.875 Q 76.3125 67.4375 76.3125 67 Q 76.125 66.265625 76.015625 65.9375 Q 75.921875 65.625 75.671875 65.203125 Q 75.4375 64.796875 74.90625 64.796875 Q 70.90625 64.796875 67.328125 63.0625 Q 63.765625 61.328125 61.078125 58.203125 Q 60.984375 58.109375 60.859375 58.03125 Q 60.75 57.953125 60.59375 57.8125 L 34.1875 27.296875 L 29 6.59375 Q 29 6.34375 28.90625 5.859375 Q 28.8125 5.375 28.8125 5.078125 Q 28.8125 4.6875 28.921875 4.421875 Q 29.046875 4.15625 29.265625 4.078125 Q 29.5 4 29.984375 3.90625 Q 31.890625 3.515625 37.203125 3.515625 Q 38.1875 3.515625 38.1875 2.203125 Q 37.84375 0.78125 37.640625 0.390625 Q 37.453125 0 36.53125 0 L 9.90625 0 Q 8.890625 0 8.890625 1.3125 z" id="inv-1-eq_Cmmi10-59" stroke-linecap="butt" stroke-linejoin="round"></path></defs><g style="fill:#666666;" transform="translate(0 9.118125)scale(0.12 -0.12)"><use transform="translate(0 0.6875)" xlink:href="#inv-1-eq_Cmmi10-58"></use><use transform="translate(82.8125 -16.31875)scale(0.7)" xlink:href="#inv-1-eq_Cmr10-31"></use><use transform="translate(141.748437 0.6875)" xlink:href="#inv-1-eq_Cmr10-3d"></use><use transform="translate(236.992578 0.6875)" xlink:href="#inv-1-eq_Cmmi10-59"></use><use transform="translate(295.000391 -16.31875)scale(0.7)" xlink:href="#inv-1-eq_Cmr10-31"></use></g></g></g><g id="fwd-2-eq_figure_1"><g id="fwd-2-eq_patch_1"><path d="M 0 12 L 162.84 12 L 162.84 0 L 0 0 z" stroke-linecap="butt" stroke-linejoin="round" style="fill:none;"></path></g><g id="fwd-2-eq_text_1"><!-- $Y_{2} = \left(X_{2} + t(X_{1})) \odot \exp(s(X_{1})\right)$ --><defs><path d="M 8.890625 1.3125 Q 8.9375 1.5625 9.078125 2.140625 Q 9.234375 2.734375 9.46875 3.125 Q 9.71875 3.515625 10.203125 3.515625 Q 16.3125 3.515625 18.703125 4.203125 Q 19.1875 4.34375 19.59375 4.875 Q 20.015625 5.421875 20.265625 6 Q 20.515625 6.59375 20.703125 7.171875 L 25.6875 27.296875 L 12.796875 62.796875 Q 11.921875 64.109375 9.625 64.453125 Q 7.328125 64.796875 4.296875 64.796875 Q 3.328125 64.796875 3.328125 66.109375 Q 3.609375 67.328125 3.859375 67.8125 Q 4.109375 68.3125 4.984375 68.3125 L 30.171875 68.3125 Q 31.109375 68.3125 31.109375 67 Q 30.71875 64.796875 29.78125 64.796875 Q 22.703125 64.796875 22.703125 62.59375 L 33.984375 31.78125 L 57.625 59.078125 Q 57.8125 59.578125 58.296875 60.28125 Q 58.796875 60.984375 59.03125 61.46875 Q 59.28125 61.96875 59.28125 62.59375 Q 59.28125 64.796875 55.171875 64.796875 Q 54.203125 64.796875 54.203125 66.109375 Q 54.390625 66.890625 54.515625 67.328125 Q 54.640625 67.78125 54.953125 68.046875 Q 55.28125 68.3125 55.90625 68.3125 L 75.296875 68.3125 Q 75.734375 68.3125 76.015625 67.875 Q 76.3125 67.4375 76.3125 67 Q 76.125 66.265625 76.015625 65.9375 Q 75.921875 65.625 75.671875 65.203125 Q 75.4375 64.796875 74.90625 64.796875 Q 70.90625 64.796875 67.328125 63.0625 Q 63.765625 61.328125 61.078125 58.203125 Q 60.984375 58.109375 60.859375 58.03125 Q 60.75 57.953125 60.59375 57.8125 L 34.1875 27.296875 L 29 6.59375 Q 29 6.34375 28.90625 5.859375 Q 28.8125 5.375 28.8125 5.078125 Q 28.8125 4.6875 28.921875 4.421875 Q 29.046875 4.15625 29.265625 4.078125 Q 29.5 4 29.984375 3.90625 Q 31.890625 3.515625 37.203125 3.515625 Q 38.1875 3.515625 38.1875 2.203125 Q 37.84375 0.78125 37.640625 0.390625 Q 37.453125 0 36.53125 0 L 9.90625 0 Q 8.890625 0 8.890625 1.3125 z" id="fwd-2-eq_Cmmi10-59" stroke-linecap="butt" stroke-linejoin="round"></path><path d="M 4.984375 0 L 4.984375 2.6875 Q 4.984375 2.9375 5.171875 3.21875 L 20.703125 20.40625 Q 24.21875 24.21875 26.40625 26.796875 Q 28.609375 29.390625 30.75 32.765625 Q 32.90625 36.140625 34.15625 39.625 Q 35.40625 43.109375 35.40625 47.015625 Q 35.40625 51.125 33.890625 54.859375 Q 32.375 58.59375 29.375 60.84375 Q 26.375 63.09375 22.125 63.09375 Q 17.78125 63.09375 14.3125 60.46875 Q 10.84375 57.859375 9.421875 53.71875 Q 9.8125 53.8125 10.5 53.8125 Q 12.75 53.8125 14.328125 52.296875 Q 15.921875 50.78125 15.921875 48.390625 Q 15.921875 46.09375 14.328125 44.5 Q 12.75 42.921875 10.5 42.921875 Q 8.15625 42.921875 6.5625 44.546875 Q 4.984375 46.1875 4.984375 48.390625 Q 4.984375 52.15625 6.390625 55.4375 Q 7.8125 58.734375 10.46875 61.296875 Q 13.140625 63.875 16.484375 65.234375 Q 19.828125 66.609375 23.578125 66.609375 Q 29.296875 66.609375 34.21875 64.1875 Q 39.15625 61.765625 42.03125 57.34375 Q 44.921875 52.9375 44.921875 47.015625 Q 44.921875 42.671875 43.015625 38.765625 Q 41.109375 34.859375 38.125 31.65625 Q 35.15625 28.46875 30.515625 24.40625 Q 25.875 20.359375 24.421875 19 L 13.09375 8.109375 L 22.703125 8.109375 Q 29.78125 8.109375 34.546875 8.21875 Q 39.3125 8.34375 39.59375 8.59375 Q 40.765625 9.859375 42 17.828125 L 44.921875 17.828125 L 42.09375 0 z" id="fwd-2-eq_Cmr10-32" stroke-linecap="butt" stroke-linejoin="round"></path><path d="M 7.515625 13.28125 Q 6.6875 13.28125 6.140625 13.90625 Q 5.609375 14.546875 5.609375 15.28125 Q 5.609375 16.109375 6.140625 16.6875 Q 6.6875 17.28125 7.515625 17.28125 L 70.3125 17.28125 Q 71.046875 17.28125 71.578125 16.6875 Q 72.125 16.109375 72.125 15.28125 Q 72.125 14.546875 71.578125 13.90625 Q 71.046875 13.28125 70.3125 13.28125 zM 7.515625 32.71875 Q 6.6875 32.71875 6.140625 33.296875 Q 5.609375 33.890625 5.609375 34.71875 Q 5.609375 35.453125 6.140625 36.078125 Q 6.6875 36.71875 7.515625 36.71875 L 70.3125 36.71875 Q 71.046875 36.71875 71.578125 36.078125 Q 72.125 35.453125 72.125 34.71875 Q 72.125 33.890625 71.578125 33.296875 Q 71.046875 32.71875 70.3125 32.71875 z" id="fwd-2-eq_Cmr10-3d" stroke-linecap="butt" stroke-linejoin="round"></path><path d="M 31 -24.8125 Q 25.4375 -20.40625 21.40625 -14.71875 Q 17.390625 -9.03125 14.8125 -2.578125 Q 12.25 3.859375 10.984375 10.890625 Q 9.71875 17.921875 9.71875 25 Q 9.71875 32.171875 10.984375 39.203125 Q 12.25 46.234375 14.859375 52.734375 Q 17.484375 59.234375 21.53125 64.890625 Q 25.59375 70.5625 31 74.8125 Q 31 75 31.5 75 L 32.421875 75 Q 32.71875 75 32.953125 74.734375 Q 33.203125 74.46875 33.203125 74.125 Q 33.203125 73.6875 33.015625 73.484375 Q 28.125 68.703125 24.875 63.234375 Q 21.625 57.765625 19.640625 51.578125 Q 17.671875 45.40625 16.796875 38.78125 Q 15.921875 32.171875 15.921875 25 Q 15.921875 -6.78125 32.90625 -23.296875 Q 33.203125 -23.578125 33.203125 -24.125 Q 33.203125 -24.359375 32.9375 -24.671875 Q 32.671875 -25 32.421875 -25 L 31.5 -25 Q 31 -25 31 -24.8125 z" id="fwd-2-eq_Cmr10-28" stroke-linecap="butt" stroke-linejoin="round"></path><path d="M 3.609375 0 Q 2.59375 0 2.59375 1.3125 Q 2.640625 1.5625 2.8125 2.1875 Q 2.984375 2.828125 3.25 3.171875 Q 3.515625 3.515625 4 3.515625 Q 13.09375 3.515625 19.578125 10.296875 Q 19.671875 10.40625 19.796875 10.453125 Q 19.921875 10.5 19.921875 10.5 L 41.796875 34.078125 L 29.890625 62.796875 Q 28.859375 64.109375 26.5625 64.453125 Q 24.265625 64.796875 21.1875 64.796875 Q 20.21875 64.796875 20.21875 66.109375 Q 20.5625 67.390625 20.75 67.84375 Q 20.953125 68.3125 21.921875 68.3125 L 46.921875 68.3125 Q 47.90625 68.3125 47.90625 67 Q 47.859375 66.75 47.6875 66.109375 Q 47.515625 65.484375 47.234375 65.140625 Q 46.96875 64.796875 46.484375 64.796875 Q 44.625 64.796875 42.640625 64.1875 Q 40.671875 63.578125 39.890625 62.203125 L 48.484375 41.5 L 64.890625 59.078125 Q 65.046875 59.421875 65.578125 60.28125 Q 66.109375 61.140625 66.109375 61.921875 Q 66.109375 63.375 64.84375 64.078125 Q 63.578125 64.796875 61.8125 64.796875 Q 60.796875 64.796875 60.796875 66.109375 Q 61.140625 67.390625 61.328125 67.84375 Q 61.53125 68.3125 62.5 68.3125 L 84.1875 68.3125 Q 84.71875 68.3125 84.953125 67.921875 Q 85.203125 67.53125 85.203125 67 Q 85.15625 66.75 85 66.15625 Q 84.859375 65.578125 84.609375 65.1875 Q 84.375 64.796875 83.890625 64.796875 Q 79.25 64.796875 75.359375 63.109375 Q 71.484375 61.421875 68.21875 58.015625 Q 68.171875 57.953125 68.09375 57.921875 Q 68.015625 57.90625 67.921875 57.8125 L 49.8125 38.28125 L 63.484375 5.515625 Q 65.09375 3.515625 72.21875 3.515625 Q 73.1875 3.515625 73.1875 2.203125 Q 72.859375 0.875 72.625 0.4375 Q 72.40625 0 71.484375 0 L 46.484375 0 Q 45.515625 0 45.515625 1.3125 Q 45.5625 1.5625 45.703125 2.171875 Q 45.84375 2.78125 46.109375 3.140625 Q 46.390625 3.515625 46.78125 3.515625 Q 48.734375 3.515625 50.734375 4.125 Q 52.734375 4.734375 53.515625 6.109375 L 43.109375 31 L 22.90625 9.1875 Q 22.75 8.84375 22.21875 8 Q 21.6875 7.171875 21.6875 6.390625 Q 21.6875 4.9375 23.046875 4.21875 Q 24.421875 3.515625 25.984375 3.515625 Q 27 3.515625 27 2.203125 Q 26.65625 0.78125 26.453125 0.390625 Q 26.265625 0 25.296875 0 z" id="fwd-2-eq_Cmmi10-58" stroke-linecap="butt" stroke-linejoin="round"></path><path d="M 7.515625 23 Q 6.6875 23 6.140625 23.625 Q 5.609375 24.265625 5.609375 25 Q 5.609375 25.734375 6.140625 26.359375 Q 6.6875 27 7.515625 27 L 36.921875 27 L 36.921875 56.5 Q 36.921875 57.28125 37.5 57.78125 Q 38.09375 58.296875 38.921875 58.296875 Q 39.65625 58.296875 40.28125 57.78125 Q 40.921875 57.28125 40.921875 56.5 L 40.921875 27 L 70.3125 27 Q 71.046875 27 71.578125 26.359375 Q 72.125 25.734375 72.125 25 Q 72.125 24.265625 71.578125 23.625 Q 71.046875 23 70.3125 23 L 40.921875 23 L 40.921875 -6.5 Q 40.921875 -7.28125 40.28125 -7.78125 Q 39.65625 -8.296875 38.921875 -8.296875 Q 38.09375 -8.296875 37.5 -7.78125 Q 36.921875 -7.28125 36.921875 -6.5 L 36.921875 23 z" id="fwd-2-eq_Cmr10-2b" stroke-linecap="butt" stroke-linejoin="round"></path><path d="M 6.203125 8.109375 Q 6.203125 9.578125 6.5 10.890625 L 13.71875 39.59375 L 3.21875 39.59375 Q 2.203125 39.59375 2.203125 40.921875 Q 2.59375 43.109375 3.515625 43.109375 L 14.59375 43.109375 L 18.609375 59.421875 Q 19 60.75 20.171875 61.671875 Q 21.34375 62.59375 22.796875 62.59375 Q 24.078125 62.59375 24.921875 61.828125 Q 25.78125 61.078125 25.78125 59.8125 Q 25.78125 59.515625 25.75 59.34375 Q 25.734375 59.1875 25.6875 58.984375 L 21.6875 43.109375 L 31.984375 43.109375 Q 33.015625 43.109375 33.015625 41.796875 Q 32.953125 41.546875 32.8125 40.953125 Q 32.671875 40.375 32.421875 39.984375 Q 32.171875 39.59375 31.6875 39.59375 L 20.796875 39.59375 L 13.625 10.6875 Q 12.890625 7.859375 12.890625 5.8125 Q 12.890625 1.515625 15.828125 1.515625 Q 20.21875 1.515625 23.609375 5.640625 Q 27 9.765625 28.8125 14.703125 Q 29.203125 15.28125 29.59375 15.28125 L 30.8125 15.28125 Q 31.203125 15.28125 31.4375 15.015625 Q 31.6875 14.75 31.6875 14.40625 Q 31.6875 14.203125 31.59375 14.109375 Q 29.390625 8.0625 25.1875 3.46875 Q 21 -1.125 15.578125 -1.125 Q 11.625 -1.125 8.90625 1.453125 Q 6.203125 4.046875 6.203125 8.109375 z" id="fwd-2-eq_Cmmi10-74" stroke-linecap="butt" stroke-linejoin="round"></path><path d="M 9.28125 0 L 9.28125 3.515625 Q 21.78125 3.515625 21.78125 6.6875 L 21.78125 59.1875 Q 16.609375 56.6875 8.6875 56.6875 L 8.6875 60.203125 Q 20.953125 60.203125 27.203125 66.609375 L 28.609375 66.609375 Q 28.953125 66.609375 29.265625 66.328125 Q 29.59375 66.0625 29.59375 65.71875 L 29.59375 6.6875 Q 29.59375 3.515625 42.09375 3.515625 L 42.09375 0 z" id="fwd-2-eq_Cmr10-31" stroke-linecap="butt" stroke-linejoin="round"></path><path d="M 6.5 -25 Q 5.609375 -25 5.609375 -24.125 Q 5.609375 -23.6875 5.8125 -23.484375 Q 22.90625 -6.78125 22.90625 25 Q 22.90625 56.78125 6 73.296875 Q 5.609375 73.53125 5.609375 74.125 Q 5.609375 74.46875 5.875 74.734375 Q 6.15625 75 6.5 75 L 7.421875 75 Q 7.71875 75 7.90625 74.8125 Q 15.09375 69.140625 19.875 61.03125 Q 24.65625 52.9375 26.875 43.75 Q 29.109375 34.578125 29.109375 25 Q 29.109375 17.921875 27.90625 11.0625 Q 26.703125 4.203125 24.09375 -2.453125 Q 21.484375 -9.125 17.484375 -14.765625 Q 13.484375 -20.40625 7.90625 -24.8125 Q 7.71875 -25 7.421875 -25 z" id="fwd-2-eq_Cmr10-29" stroke-linecap="butt" stroke-linejoin="round"></path><path d="M 38.921875 -8.296875 Q 32.078125 -8.296875 26.0625 -5.703125 Q 20.0625 -3.125 15.40625 1.484375 Q 10.75 6.109375 8.171875 12.1875 Q 5.609375 18.265625 5.609375 25 Q 5.609375 31.84375 8.140625 37.84375 Q 10.6875 43.84375 15.375 48.53125 Q 20.0625 53.21875 26.0625 55.75 Q 32.078125 58.296875 38.921875 58.296875 Q 45.703125 58.296875 51.75 55.703125 Q 57.8125 53.125 62.40625 48.5 Q 67 43.890625 69.5625 37.828125 Q 72.125 31.78125 72.125 25 Q 72.125 18.3125 69.53125 12.1875 Q 66.9375 6.0625 62.375 1.484375 Q 57.8125 -3.078125 51.75 -5.6875 Q 45.703125 -8.296875 38.921875 -8.296875 zM 38.921875 -5.421875 Q 44.96875 -5.421875 50.53125 -3.046875 Q 56.109375 -0.6875 60.296875 3.515625 Q 64.5 7.71875 66.84375 13.25 Q 69.1875 18.796875 69.1875 25 Q 69.1875 31.203125 66.8125 36.796875 Q 64.453125 42.390625 60.34375 46.515625 Q 56.25 50.640625 50.703125 53.03125 Q 45.171875 55.421875 38.921875 55.421875 Q 32.671875 55.421875 27.09375 53.03125 Q 21.53125 50.640625 17.421875 46.53125 Q 13.328125 42.4375 10.90625 36.71875 Q 8.5 31 8.5 25 Q 8.5 19 10.859375 13.359375 Q 13.234375 7.71875 17.453125 3.515625 Q 21.6875 -0.6875 27.265625 -3.046875 Q 32.859375 -5.421875 38.921875 -5.421875 zM 38.921875 17.828125 Q 36.03125 17.828125 33.859375 19.953125 Q 31.6875 22.078125 31.6875 25 Q 31.6875 27 32.65625 28.609375 Q 33.640625 30.21875 35.296875 31.1875 Q 36.96875 32.171875 38.921875 32.171875 Q 40.765625 32.171875 42.40625 31.1875 Q 44.046875 30.21875 45.015625 28.609375 Q 46 27 46 25 Q 46 22.078125 43.875 19.953125 Q 41.75 17.828125 38.921875 17.828125 z" id="fwd-2-eq_Cmsy10-af" stroke-linecap="butt" stroke-linejoin="round"></path><path d="M 24.90625 -1.125 Q 18.796875 -1.125 13.6875 2.078125 Q 8.59375 5.28125 5.6875 10.625 Q 2.78125 15.96875 2.78125 21.921875 Q 2.78125 27.78125 5.4375 33.046875 Q 8.109375 38.328125 12.859375 41.578125 Q 17.625 44.828125 23.484375 44.828125 Q 28.078125 44.828125 31.46875 43.28125 Q 34.859375 41.75 37.0625 39.015625 Q 39.265625 36.28125 40.375 32.5625 Q 41.5 28.859375 41.5 24.421875 Q 41.5 23.09375 40.484375 23.09375 L 11.53125 23.09375 L 11.53125 22.015625 Q 11.53125 13.71875 14.875 7.765625 Q 18.21875 1.8125 25.78125 1.8125 Q 28.859375 1.8125 31.46875 3.171875 Q 34.078125 4.546875 36 6.984375 Q 37.9375 9.421875 38.625 12.203125 Q 38.71875 12.546875 38.984375 12.8125 Q 39.265625 13.09375 39.59375 13.09375 L 40.484375 13.09375 Q 41.5 13.09375 41.5 11.8125 Q 40.09375 6.15625 35.40625 2.515625 Q 30.71875 -1.125 24.90625 -1.125 zM 11.625 25.59375 L 34.421875 25.59375 Q 34.421875 29.34375 33.375 33.203125 Q 32.328125 37.0625 29.875 39.625 Q 27.4375 42.1875 23.484375 42.1875 Q 17.828125 42.1875 14.71875 36.890625 Q 11.625 31.59375 11.625 25.59375 z" id="fwd-2-eq_Cmr10-65" stroke-linecap="butt" stroke-linejoin="round"></path><path d="M 1.21875 0 L 1.21875 3.515625 Q 5.03125 3.515625 8.390625 5 Q 11.765625 6.5 14.109375 9.421875 L 23.1875 21 L 11.375 36.375 Q 9.625 38.578125 7.546875 39.078125 Q 5.46875 39.59375 1.703125 39.59375 L 1.703125 43.109375 L 22.515625 43.109375 L 22.515625 39.59375 Q 21.1875 39.59375 20.03125 39 Q 18.890625 38.421875 18.890625 37.3125 Q 18.890625 36.921875 19.1875 36.375 L 27.203125 25.984375 L 33.203125 33.6875 Q 34.421875 35.15625 34.421875 36.625 Q 34.421875 37.84375 33.609375 38.71875 Q 32.8125 39.59375 31.5 39.59375 L 31.5 43.109375 L 49.90625 43.109375 L 49.90625 39.59375 Q 46.046875 39.59375 42.65625 38.109375 Q 39.265625 36.625 36.921875 33.6875 L 29 23.578125 L 41.796875 6.6875 Q 43.703125 4.5 45.75 4 Q 47.796875 3.515625 51.609375 3.515625 L 51.609375 0 L 30.8125 0 L 30.8125 3.515625 Q 32.03125 3.515625 33.15625 4.09375 Q 34.28125 4.6875 34.28125 5.8125 Q 34.28125 6.25 33.984375 6.6875 L 25 18.609375 L 17.828125 9.421875 Q 16.703125 8.15625 16.703125 6.5 Q 16.703125 5.28125 17.53125 4.390625 Q 18.359375 3.515625 19.484375 3.515625 L 19.484375 0 z" id="fwd-2-eq_Cmr10-78" stroke-linecap="butt" stroke-linejoin="round"></path><path d="M 2.59375 -19.390625 L 2.59375 -15.921875 Q 6 -15.921875 8.203125 -15.328125 Q 10.40625 -14.75 10.40625 -12.703125 L 10.40625 35.5 Q 10.40625 38.234375 8.453125 38.90625 Q 6.5 39.59375 2.59375 39.59375 L 2.59375 43.109375 L 17.390625 44.1875 L 17.390625 37.984375 Q 20.125 41.015625 23.75 42.59375 Q 27.390625 44.1875 31.5 44.1875 Q 37.40625 44.1875 42.140625 40.984375 Q 46.875 37.796875 49.53125 32.59375 Q 52.203125 27.390625 52.203125 21.578125 Q 52.203125 15.53125 49.25 10.296875 Q 46.296875 5.078125 41.1875 1.96875 Q 36.078125 -1.125 29.984375 -1.125 Q 22.703125 -1.125 17.671875 4.78125 L 17.671875 -12.703125 Q 17.671875 -14.75 19.890625 -15.328125 Q 22.125 -15.921875 25.484375 -15.921875 L 25.484375 -19.390625 zM 17.671875 9.71875 Q 19.4375 6.15625 22.5625 3.828125 Q 25.6875 1.515625 29.390625 1.515625 Q 32.859375 1.515625 35.515625 3.359375 Q 38.1875 5.21875 39.984375 8.34375 Q 41.796875 11.46875 42.640625 14.90625 Q 43.5 18.359375 43.5 21.578125 Q 43.5 25.59375 42.0625 30.25 Q 40.625 34.90625 37.671875 38.109375 Q 34.71875 41.3125 30.515625 41.3125 Q 26.46875 41.3125 23.0625 39.234375 Q 19.671875 37.15625 17.671875 33.59375 z" id="fwd-2-eq_Cmr10-70" stroke-linecap="butt" stroke-linejoin="round"></path><path d="M 8.6875 6.109375 Q 11.375 1.515625 19.484375 1.515625 Q 23 1.515625 26.171875 2.703125 Q 29.34375 3.90625 31.421875 6.296875 Q 33.5 8.6875 33.5 12.109375 Q 33.5 14.703125 31.640625 16.359375 Q 29.78125 18.015625 27.09375 18.609375 L 21.6875 19.671875 Q 17.96875 20.609375 15.578125 23.140625 Q 13.1875 25.6875 13.1875 29.296875 Q 13.1875 33.734375 15.59375 37.15625 Q 18.015625 40.578125 21.96875 42.375 Q 25.921875 44.1875 30.171875 44.1875 Q 34.71875 44.1875 38.296875 42.015625 Q 41.890625 39.84375 41.890625 35.59375 Q 41.890625 33.296875 40.59375 31.53125 Q 39.3125 29.78125 37.015625 29.78125 Q 35.6875 29.78125 34.734375 30.640625 Q 33.796875 31.5 33.796875 32.8125 Q 33.796875 33.984375 34.453125 35.078125 Q 35.109375 36.1875 36.203125 36.84375 Q 37.3125 37.5 38.484375 37.5 Q 37.59375 39.65625 35.171875 40.625 Q 32.765625 41.609375 29.984375 41.609375 Q 27.4375 41.609375 24.890625 40.578125 Q 22.359375 39.546875 20.8125 37.5625 Q 19.28125 35.59375 19.28125 32.90625 Q 19.28125 31.109375 20.546875 29.734375 Q 21.828125 28.375 23.6875 27.78125 L 29.5 26.609375 Q 32.28125 26.03125 34.59375 24.53125 Q 36.921875 23.046875 38.25 20.765625 Q 39.59375 18.5 39.59375 15.578125 Q 39.59375 11.859375 37.515625 8.25 Q 35.453125 4.640625 32.421875 2.484375 Q 27.09375 -1.125 19.390625 -1.125 Q 14.0625 -1.125 9.609375 1.3125 Q 5.171875 3.765625 5.171875 8.59375 Q 5.171875 11.328125 6.75 13.34375 Q 8.34375 15.375 11.078125 15.375 Q 12.703125 15.375 13.796875 14.390625 Q 14.890625 13.421875 14.890625 11.8125 Q 14.890625 9.515625 13.171875 7.8125 Q 11.46875 6.109375 9.1875 6.109375 z" id="fwd-2-eq_Cmmi10-73" stroke-linecap="butt" stroke-linejoin="round"></path></defs><g style="fill:#666666;" transform="translate(0 9)scale(0.12 -0.12)"><use xlink:href="#fwd-2-eq_Cmmi10-59"></use><use transform="translate(58.007812 -17.00625)scale(0.7)" xlink:href="#fwd-2-eq_Cmr10-32"></use><use transform="translate(116.94375 0)" xlink:href="#fwd-2-eq_Cmr10-3d"></use><use transform="translate(212.187891 0)" xlink:href="#fwd-2-eq_Cmr10-28"></use><use transform="translate(251.00625 0)" xlink:href="#fwd-2-eq_Cmmi10-58"></use><use transform="translate(333.81875 -17.00625)scale(0.7)" xlink:href="#fwd-2-eq_Cmr10-32"></use><use transform="translate(392.754687 0)" xlink:href="#fwd-2-eq_Cmr10-2b"></use><use transform="translate(487.998828 0)" xlink:href="#fwd-2-eq_Cmmi10-74"></use><use transform="translate(524.082813 0)" xlink:href="#fwd-2-eq_Cmr10-28"></use><use transform="translate(562.901172 0)" xlink:href="#fwd-2-eq_Cmmi10-58"></use><use transform="translate(645.713672 -17.00625)scale(0.7)" xlink:href="#fwd-2-eq_Cmr10-31"></use><use transform="translate(687.091016 0)" xlink:href="#fwd-2-eq_Cmr10-29"></use><use transform="translate(725.909375 0)" xlink:href="#fwd-2-eq_Cmr10-29"></use><use transform="translate(782.286328 0)" xlink:href="#fwd-2-eq_Cmsy10-af"></use><use transform="translate(877.530469 0)" xlink:href="#fwd-2-eq_Cmr10-65"></use><use transform="translate(921.915234 0)" xlink:href="#fwd-2-eq_Cmr10-78"></use><use transform="translate(974.600781 0)" xlink:href="#fwd-2-eq_Cmr10-70"></use><use transform="translate(1030.118359 0)" xlink:href="#fwd-2-eq_Cmr10-28"></use><use transform="translate(1068.936719 0)" xlink:href="#fwd-2-eq_Cmmi10-73"></use><use transform="translate(1115.714063 0)" xlink:href="#fwd-2-eq_Cmr10-28"></use><use transform="translate(1154.532422 0)" xlink:href="#fwd-2-eq_Cmmi10-58"></use><use transform="translate(1237.344922 -17.00625)scale(0.7)" xlink:href="#fwd-2-eq_Cmr10-31"></use><use transform="translate(1278.722266 0)" xlink:href="#fwd-2-eq_Cmr10-29"></use><use transform="translate(1317.540625 0)" xlink:href="#fwd-2-eq_Cmr10-29"></use></g></g></g><g id="inv-2-eq_figure_1"><g id="inv-2-eq_patch_1"><path d="M 0 12 L 156.84 12 L 156.84 0 L 0 0 z" stroke-linecap="butt" stroke-linejoin="round" style="fill:none;"></path></g><g id="inv-2-eq_text_1"><!-- $X_{2} = Y_{2} \odot \exp(-s(Y_{1})) - t(Y_{1})$ --><defs><path d="M 3.609375 0 Q 2.59375 0 2.59375 1.3125 Q 2.640625 1.5625 2.8125 2.1875 Q 2.984375 2.828125 3.25 3.171875 Q 3.515625 3.515625 4 3.515625 Q 13.09375 3.515625 19.578125 10.296875 Q 19.671875 10.40625 19.796875 10.453125 Q 19.921875 10.5 19.921875 10.5 L 41.796875 34.078125 L 29.890625 62.796875 Q 28.859375 64.109375 26.5625 64.453125 Q 24.265625 64.796875 21.1875 64.796875 Q 20.21875 64.796875 20.21875 66.109375 Q 20.5625 67.390625 20.75 67.84375 Q 20.953125 68.3125 21.921875 68.3125 L 46.921875 68.3125 Q 47.90625 68.3125 47.90625 67 Q 47.859375 66.75 47.6875 66.109375 Q 47.515625 65.484375 47.234375 65.140625 Q 46.96875 64.796875 46.484375 64.796875 Q 44.625 64.796875 42.640625 64.1875 Q 40.671875 63.578125 39.890625 62.203125 L 48.484375 41.5 L 64.890625 59.078125 Q 65.046875 59.421875 65.578125 60.28125 Q 66.109375 61.140625 66.109375 61.921875 Q 66.109375 63.375 64.84375 64.078125 Q 63.578125 64.796875 61.8125 64.796875 Q 60.796875 64.796875 60.796875 66.109375 Q 61.140625 67.390625 61.328125 67.84375 Q 61.53125 68.3125 62.5 68.3125 L 84.1875 68.3125 Q 84.71875 68.3125 84.953125 67.921875 Q 85.203125 67.53125 85.203125 67 Q 85.15625 66.75 85 66.15625 Q 84.859375 65.578125 84.609375 65.1875 Q 84.375 64.796875 83.890625 64.796875 Q 79.25 64.796875 75.359375 63.109375 Q 71.484375 61.421875 68.21875 58.015625 Q 68.171875 57.953125 68.09375 57.921875 Q 68.015625 57.90625 67.921875 57.8125 L 49.8125 38.28125 L 63.484375 5.515625 Q 65.09375 3.515625 72.21875 3.515625 Q 73.1875 3.515625 73.1875 2.203125 Q 72.859375 0.875 72.625 0.4375 Q 72.40625 0 71.484375 0 L 46.484375 0 Q 45.515625 0 45.515625 1.3125 Q 45.5625 1.5625 45.703125 2.171875 Q 45.84375 2.78125 46.109375 3.140625 Q 46.390625 3.515625 46.78125 3.515625 Q 48.734375 3.515625 50.734375 4.125 Q 52.734375 4.734375 53.515625 6.109375 L 43.109375 31 L 22.90625 9.1875 Q 22.75 8.84375 22.21875 8 Q 21.6875 7.171875 21.6875 6.390625 Q 21.6875 4.9375 23.046875 4.21875 Q 24.421875 3.515625 25.984375 3.515625 Q 27 3.515625 27 2.203125 Q 26.65625 0.78125 26.453125 0.390625 Q 26.265625 0 25.296875 0 z" id="inv-2-eq_Cmmi10-58" stroke-linecap="butt" stroke-linejoin="round"></path><path d="M 4.984375 0 L 4.984375 2.6875 Q 4.984375 2.9375 5.171875 3.21875 L 20.703125 20.40625 Q 24.21875 24.21875 26.40625 26.796875 Q 28.609375 29.390625 30.75 32.765625 Q 32.90625 36.140625 34.15625 39.625 Q 35.40625 43.109375 35.40625 47.015625 Q 35.40625 51.125 33.890625 54.859375 Q 32.375 58.59375 29.375 60.84375 Q 26.375 63.09375 22.125 63.09375 Q 17.78125 63.09375 14.3125 60.46875 Q 10.84375 57.859375 9.421875 53.71875 Q 9.8125 53.8125 10.5 53.8125 Q 12.75 53.8125 14.328125 52.296875 Q 15.921875 50.78125 15.921875 48.390625 Q 15.921875 46.09375 14.328125 44.5 Q 12.75 42.921875 10.5 42.921875 Q 8.15625 42.921875 6.5625 44.546875 Q 4.984375 46.1875 4.984375 48.390625 Q 4.984375 52.15625 6.390625 55.4375 Q 7.8125 58.734375 10.46875 61.296875 Q 13.140625 63.875 16.484375 65.234375 Q 19.828125 66.609375 23.578125 66.609375 Q 29.296875 66.609375 34.21875 64.1875 Q 39.15625 61.765625 42.03125 57.34375 Q 44.921875 52.9375 44.921875 47.015625 Q 44.921875 42.671875 43.015625 38.765625 Q 41.109375 34.859375 38.125 31.65625 Q 35.15625 28.46875 30.515625 24.40625 Q 25.875 20.359375 24.421875 19 L 13.09375 8.109375 L 22.703125 8.109375 Q 29.78125 8.109375 34.546875 8.21875 Q 39.3125 8.34375 39.59375 8.59375 Q 40.765625 9.859375 42 17.828125 L 44.921875 17.828125 L 42.09375 0 z" id="inv-2-eq_Cmr10-32" stroke-linecap="butt" stroke-linejoin="round"></path><path d="M 7.515625 13.28125 Q 6.6875 13.28125 6.140625 13.90625 Q 5.609375 14.546875 5.609375 15.28125 Q 5.609375 16.109375 6.140625 16.6875 Q 6.6875 17.28125 7.515625 17.28125 L 70.3125 17.28125 Q 71.046875 17.28125 71.578125 16.6875 Q 72.125 16.109375 72.125 15.28125 Q 72.125 14.546875 71.578125 13.90625 Q 71.046875 13.28125 70.3125 13.28125 zM 7.515625 32.71875 Q 6.6875 32.71875 6.140625 33.296875 Q 5.609375 33.890625 5.609375 34.71875 Q 5.609375 35.453125 6.140625 36.078125 Q 6.6875 36.71875 7.515625 36.71875 L 70.3125 36.71875 Q 71.046875 36.71875 71.578125 36.078125 Q 72.125 35.453125 72.125 34.71875 Q 72.125 33.890625 71.578125 33.296875 Q 71.046875 32.71875 70.3125 32.71875 z" id="inv-2-eq_Cmr10-3d" stroke-linecap="butt" stroke-linejoin="round"></path><path d="M 8.890625 1.3125 Q 8.9375 1.5625 9.078125 2.140625 Q 9.234375 2.734375 9.46875 3.125 Q 9.71875 3.515625 10.203125 3.515625 Q 16.3125 3.515625 18.703125 4.203125 Q 19.1875 4.34375 19.59375 4.875 Q 20.015625 5.421875 20.265625 6 Q 20.515625 6.59375 20.703125 7.171875 L 25.6875 27.296875 L 12.796875 62.796875 Q 11.921875 64.109375 9.625 64.453125 Q 7.328125 64.796875 4.296875 64.796875 Q 3.328125 64.796875 3.328125 66.109375 Q 3.609375 67.328125 3.859375 67.8125 Q 4.109375 68.3125 4.984375 68.3125 L 30.171875 68.3125 Q 31.109375 68.3125 31.109375 67 Q 30.71875 64.796875 29.78125 64.796875 Q 22.703125 64.796875 22.703125 62.59375 L 33.984375 31.78125 L 57.625 59.078125 Q 57.8125 59.578125 58.296875 60.28125 Q 58.796875 60.984375 59.03125 61.46875 Q 59.28125 61.96875 59.28125 62.59375 Q 59.28125 64.796875 55.171875 64.796875 Q 54.203125 64.796875 54.203125 66.109375 Q 54.390625 66.890625 54.515625 67.328125 Q 54.640625 67.78125 54.953125 68.046875 Q 55.28125 68.3125 55.90625 68.3125 L 75.296875 68.3125 Q 75.734375 68.3125 76.015625 67.875 Q 76.3125 67.4375 76.3125 67 Q 76.125 66.265625 76.015625 65.9375 Q 75.921875 65.625 75.671875 65.203125 Q 75.4375 64.796875 74.90625 64.796875 Q 70.90625 64.796875 67.328125 63.0625 Q 63.765625 61.328125 61.078125 58.203125 Q 60.984375 58.109375 60.859375 58.03125 Q 60.75 57.953125 60.59375 57.8125 L 34.1875 27.296875 L 29 6.59375 Q 29 6.34375 28.90625 5.859375 Q 28.8125 5.375 28.8125 5.078125 Q 28.8125 4.6875 28.921875 4.421875 Q 29.046875 4.15625 29.265625 4.078125 Q 29.5 4 29.984375 3.90625 Q 31.890625 3.515625 37.203125 3.515625 Q 38.1875 3.515625 38.1875 2.203125 Q 37.84375 0.78125 37.640625 0.390625 Q 37.453125 0 36.53125 0 L 9.90625 0 Q 8.890625 0 8.890625 1.3125 z" id="inv-2-eq_Cmmi10-59" stroke-linecap="butt" stroke-linejoin="round"></path><path d="M 38.921875 -8.296875 Q 32.078125 -8.296875 26.0625 -5.703125 Q 20.0625 -3.125 15.40625 1.484375 Q 10.75 6.109375 8.171875 12.1875 Q 5.609375 18.265625 5.609375 25 Q 5.609375 31.84375 8.140625 37.84375 Q 10.6875 43.84375 15.375 48.53125 Q 20.0625 53.21875 26.0625 55.75 Q 32.078125 58.296875 38.921875 58.296875 Q 45.703125 58.296875 51.75 55.703125 Q 57.8125 53.125 62.40625 48.5 Q 67 43.890625 69.5625 37.828125 Q 72.125 31.78125 72.125 25 Q 72.125 18.3125 69.53125 12.1875 Q 66.9375 6.0625 62.375 1.484375 Q 57.8125 -3.078125 51.75 -5.6875 Q 45.703125 -8.296875 38.921875 -8.296875 zM 38.921875 -5.421875 Q 44.96875 -5.421875 50.53125 -3.046875 Q 56.109375 -0.6875 60.296875 3.515625 Q 64.5 7.71875 66.84375 13.25 Q 69.1875 18.796875 69.1875 25 Q 69.1875 31.203125 66.8125 36.796875 Q 64.453125 42.390625 60.34375 46.515625 Q 56.25 50.640625 50.703125 53.03125 Q 45.171875 55.421875 38.921875 55.421875 Q 32.671875 55.421875 27.09375 53.03125 Q 21.53125 50.640625 17.421875 46.53125 Q 13.328125 42.4375 10.90625 36.71875 Q 8.5 31 8.5 25 Q 8.5 19 10.859375 13.359375 Q 13.234375 7.71875 17.453125 3.515625 Q 21.6875 -0.6875 27.265625 -3.046875 Q 32.859375 -5.421875 38.921875 -5.421875 zM 38.921875 17.828125 Q 36.03125 17.828125 33.859375 19.953125 Q 31.6875 22.078125 31.6875 25 Q 31.6875 27 32.65625 28.609375 Q 33.640625 30.21875 35.296875 31.1875 Q 36.96875 32.171875 38.921875 32.171875 Q 40.765625 32.171875 42.40625 31.1875 Q 44.046875 30.21875 45.015625 28.609375 Q 46 27 46 25 Q 46 22.078125 43.875 19.953125 Q 41.75 17.828125 38.921875 17.828125 z" id="inv-2-eq_Cmsy10-af" stroke-linecap="butt" stroke-linejoin="round"></path><path d="M 24.90625 -1.125 Q 18.796875 -1.125 13.6875 2.078125 Q 8.59375 5.28125 5.6875 10.625 Q 2.78125 15.96875 2.78125 21.921875 Q 2.78125 27.78125 5.4375 33.046875 Q 8.109375 38.328125 12.859375 41.578125 Q 17.625 44.828125 23.484375 44.828125 Q 28.078125 44.828125 31.46875 43.28125 Q 34.859375 41.75 37.0625 39.015625 Q 39.265625 36.28125 40.375 32.5625 Q 41.5 28.859375 41.5 24.421875 Q 41.5 23.09375 40.484375 23.09375 L 11.53125 23.09375 L 11.53125 22.015625 Q 11.53125 13.71875 14.875 7.765625 Q 18.21875 1.8125 25.78125 1.8125 Q 28.859375 1.8125 31.46875 3.171875 Q 34.078125 4.546875 36 6.984375 Q 37.9375 9.421875 38.625 12.203125 Q 38.71875 12.546875 38.984375 12.8125 Q 39.265625 13.09375 39.59375 13.09375 L 40.484375 13.09375 Q 41.5 13.09375 41.5 11.8125 Q 40.09375 6.15625 35.40625 2.515625 Q 30.71875 -1.125 24.90625 -1.125 zM 11.625 25.59375 L 34.421875 25.59375 Q 34.421875 29.34375 33.375 33.203125 Q 32.328125 37.0625 29.875 39.625 Q 27.4375 42.1875 23.484375 42.1875 Q 17.828125 42.1875 14.71875 36.890625 Q 11.625 31.59375 11.625 25.59375 z" id="inv-2-eq_Cmr10-65" stroke-linecap="butt" stroke-linejoin="round"></path><path d="M 1.21875 0 L 1.21875 3.515625 Q 5.03125 3.515625 8.390625 5 Q 11.765625 6.5 14.109375 9.421875 L 23.1875 21 L 11.375 36.375 Q 9.625 38.578125 7.546875 39.078125 Q 5.46875 39.59375 1.703125 39.59375 L 1.703125 43.109375 L 22.515625 43.109375 L 22.515625 39.59375 Q 21.1875 39.59375 20.03125 39 Q 18.890625 38.421875 18.890625 37.3125 Q 18.890625 36.921875 19.1875 36.375 L 27.203125 25.984375 L 33.203125 33.6875 Q 34.421875 35.15625 34.421875 36.625 Q 34.421875 37.84375 33.609375 38.71875 Q 32.8125 39.59375 31.5 39.59375 L 31.5 43.109375 L 49.90625 43.109375 L 49.90625 39.59375 Q 46.046875 39.59375 42.65625 38.109375 Q 39.265625 36.625 36.921875 33.6875 L 29 23.578125 L 41.796875 6.6875 Q 43.703125 4.5 45.75 4 Q 47.796875 3.515625 51.609375 3.515625 L 51.609375 0 L 30.8125 0 L 30.8125 3.515625 Q 32.03125 3.515625 33.15625 4.09375 Q 34.28125 4.6875 34.28125 5.8125 Q 34.28125 6.25 33.984375 6.6875 L 25 18.609375 L 17.828125 9.421875 Q 16.703125 8.15625 16.703125 6.5 Q 16.703125 5.28125 17.53125 4.390625 Q 18.359375 3.515625 19.484375 3.515625 L 19.484375 0 z" id="inv-2-eq_Cmr10-78" stroke-linecap="butt" stroke-linejoin="round"></path><path d="M 2.59375 -19.390625 L 2.59375 -15.921875 Q 6 -15.921875 8.203125 -15.328125 Q 10.40625 -14.75 10.40625 -12.703125 L 10.40625 35.5 Q 10.40625 38.234375 8.453125 38.90625 Q 6.5 39.59375 2.59375 39.59375 L 2.59375 43.109375 L 17.390625 44.1875 L 17.390625 37.984375 Q 20.125 41.015625 23.75 42.59375 Q 27.390625 44.1875 31.5 44.1875 Q 37.40625 44.1875 42.140625 40.984375 Q 46.875 37.796875 49.53125 32.59375 Q 52.203125 27.390625 52.203125 21.578125 Q 52.203125 15.53125 49.25 10.296875 Q 46.296875 5.078125 41.1875 1.96875 Q 36.078125 -1.125 29.984375 -1.125 Q 22.703125 -1.125 17.671875 4.78125 L 17.671875 -12.703125 Q 17.671875 -14.75 19.890625 -15.328125 Q 22.125 -15.921875 25.484375 -15.921875 L 25.484375 -19.390625 zM 17.671875 9.71875 Q 19.4375 6.15625 22.5625 3.828125 Q 25.6875 1.515625 29.390625 1.515625 Q 32.859375 1.515625 35.515625 3.359375 Q 38.1875 5.21875 39.984375 8.34375 Q 41.796875 11.46875 42.640625 14.90625 Q 43.5 18.359375 43.5 21.578125 Q 43.5 25.59375 42.0625 30.25 Q 40.625 34.90625 37.671875 38.109375 Q 34.71875 41.3125 30.515625 41.3125 Q 26.46875 41.3125 23.0625 39.234375 Q 19.671875 37.15625 17.671875 33.59375 z" id="inv-2-eq_Cmr10-70" stroke-linecap="butt" stroke-linejoin="round"></path><path d="M 31 -24.8125 Q 25.4375 -20.40625 21.40625 -14.71875 Q 17.390625 -9.03125 14.8125 -2.578125 Q 12.25 3.859375 10.984375 10.890625 Q 9.71875 17.921875 9.71875 25 Q 9.71875 32.171875 10.984375 39.203125 Q 12.25 46.234375 14.859375 52.734375 Q 17.484375 59.234375 21.53125 64.890625 Q 25.59375 70.5625 31 74.8125 Q 31 75 31.5 75 L 32.421875 75 Q 32.71875 75 32.953125 74.734375 Q 33.203125 74.46875 33.203125 74.125 Q 33.203125 73.6875 33.015625 73.484375 Q 28.125 68.703125 24.875 63.234375 Q 21.625 57.765625 19.640625 51.578125 Q 17.671875 45.40625 16.796875 38.78125 Q 15.921875 32.171875 15.921875 25 Q 15.921875 -6.78125 32.90625 -23.296875 Q 33.203125 -23.578125 33.203125 -24.125 Q 33.203125 -24.359375 32.9375 -24.671875 Q 32.671875 -25 32.421875 -25 L 31.5 -25 Q 31 -25 31 -24.8125 z" id="inv-2-eq_Cmr10-28" stroke-linecap="butt" stroke-linejoin="round"></path><path d="M 10.203125 23 Q 9.375 23 8.828125 23.625 Q 8.296875 24.265625 8.296875 25 Q 8.296875 25.734375 8.828125 26.359375 Q 9.375 27 10.203125 27 L 67.578125 27 Q 68.359375 27 68.875 26.359375 Q 69.390625 25.734375 69.390625 25 Q 69.390625 24.265625 68.875 23.625 Q 68.359375 23 67.578125 23 z" id="inv-2-eq_Cmsy10-a1" stroke-linecap="butt" stroke-linejoin="round"></path><path d="M 8.6875 6.109375 Q 11.375 1.515625 19.484375 1.515625 Q 23 1.515625 26.171875 2.703125 Q 29.34375 3.90625 31.421875 6.296875 Q 33.5 8.6875 33.5 12.109375 Q 33.5 14.703125 31.640625 16.359375 Q 29.78125 18.015625 27.09375 18.609375 L 21.6875 19.671875 Q 17.96875 20.609375 15.578125 23.140625 Q 13.1875 25.6875 13.1875 29.296875 Q 13.1875 33.734375 15.59375 37.15625 Q 18.015625 40.578125 21.96875 42.375 Q 25.921875 44.1875 30.171875 44.1875 Q 34.71875 44.1875 38.296875 42.015625 Q 41.890625 39.84375 41.890625 35.59375 Q 41.890625 33.296875 40.59375 31.53125 Q 39.3125 29.78125 37.015625 29.78125 Q 35.6875 29.78125 34.734375 30.640625 Q 33.796875 31.5 33.796875 32.8125 Q 33.796875 33.984375 34.453125 35.078125 Q 35.109375 36.1875 36.203125 36.84375 Q 37.3125 37.5 38.484375 37.5 Q 37.59375 39.65625 35.171875 40.625 Q 32.765625 41.609375 29.984375 41.609375 Q 27.4375 41.609375 24.890625 40.578125 Q 22.359375 39.546875 20.8125 37.5625 Q 19.28125 35.59375 19.28125 32.90625 Q 19.28125 31.109375 20.546875 29.734375 Q 21.828125 28.375 23.6875 27.78125 L 29.5 26.609375 Q 32.28125 26.03125 34.59375 24.53125 Q 36.921875 23.046875 38.25 20.765625 Q 39.59375 18.5 39.59375 15.578125 Q 39.59375 11.859375 37.515625 8.25 Q 35.453125 4.640625 32.421875 2.484375 Q 27.09375 -1.125 19.390625 -1.125 Q 14.0625 -1.125 9.609375 1.3125 Q 5.171875 3.765625 5.171875 8.59375 Q 5.171875 11.328125 6.75 13.34375 Q 8.34375 15.375 11.078125 15.375 Q 12.703125 15.375 13.796875 14.390625 Q 14.890625 13.421875 14.890625 11.8125 Q 14.890625 9.515625 13.171875 7.8125 Q 11.46875 6.109375 9.1875 6.109375 z" id="inv-2-eq_Cmmi10-73" stroke-linecap="butt" stroke-linejoin="round"></path><path d="M 9.28125 0 L 9.28125 3.515625 Q 21.78125 3.515625 21.78125 6.6875 L 21.78125 59.1875 Q 16.609375 56.6875 8.6875 56.6875 L 8.6875 60.203125 Q 20.953125 60.203125 27.203125 66.609375 L 28.609375 66.609375 Q 28.953125 66.609375 29.265625 66.328125 Q 29.59375 66.0625 29.59375 65.71875 L 29.59375 6.6875 Q 29.59375 3.515625 42.09375 3.515625 L 42.09375 0 z" id="inv-2-eq_Cmr10-31" stroke-linecap="butt" stroke-linejoin="round"></path><path d="M 6.5 -25 Q 5.609375 -25 5.609375 -24.125 Q 5.609375 -23.6875 5.8125 -23.484375 Q 22.90625 -6.78125 22.90625 25 Q 22.90625 56.78125 6 73.296875 Q 5.609375 73.53125 5.609375 74.125 Q 5.609375 74.46875 5.875 74.734375 Q 6.15625 75 6.5 75 L 7.421875 75 Q 7.71875 75 7.90625 74.8125 Q 15.09375 69.140625 19.875 61.03125 Q 24.65625 52.9375 26.875 43.75 Q 29.109375 34.578125 29.109375 25 Q 29.109375 17.921875 27.90625 11.0625 Q 26.703125 4.203125 24.09375 -2.453125 Q 21.484375 -9.125 17.484375 -14.765625 Q 13.484375 -20.40625 7.90625 -24.8125 Q 7.71875 -25 7.421875 -25 z" id="inv-2-eq_Cmr10-29" stroke-linecap="butt" stroke-linejoin="round"></path><path d="M 6.203125 8.109375 Q 6.203125 9.578125 6.5 10.890625 L 13.71875 39.59375 L 3.21875 39.59375 Q 2.203125 39.59375 2.203125 40.921875 Q 2.59375 43.109375 3.515625 43.109375 L 14.59375 43.109375 L 18.609375 59.421875 Q 19 60.75 20.171875 61.671875 Q 21.34375 62.59375 22.796875 62.59375 Q 24.078125 62.59375 24.921875 61.828125 Q 25.78125 61.078125 25.78125 59.8125 Q 25.78125 59.515625 25.75 59.34375 Q 25.734375 59.1875 25.6875 58.984375 L 21.6875 43.109375 L 31.984375 43.109375 Q 33.015625 43.109375 33.015625 41.796875 Q 32.953125 41.546875 32.8125 40.953125 Q 32.671875 40.375 32.421875 39.984375 Q 32.171875 39.59375 31.6875 39.59375 L 20.796875 39.59375 L 13.625 10.6875 Q 12.890625 7.859375 12.890625 5.8125 Q 12.890625 1.515625 15.828125 1.515625 Q 20.21875 1.515625 23.609375 5.640625 Q 27 9.765625 28.8125 14.703125 Q 29.203125 15.28125 29.59375 15.28125 L 30.8125 15.28125 Q 31.203125 15.28125 31.4375 15.015625 Q 31.6875 14.75 31.6875 14.40625 Q 31.6875 14.203125 31.59375 14.109375 Q 29.390625 8.0625 25.1875 3.46875 Q 21 -1.125 15.578125 -1.125 Q 11.625 -1.125 8.90625 1.453125 Q 6.203125 4.046875 6.203125 8.109375 z" id="inv-2-eq_Cmmi10-74" stroke-linecap="butt" stroke-linejoin="round"></path></defs><g style="fill:#666666;" transform="translate(0 9)scale(0.12 -0.12)"><use xlink:href="#inv-2-eq_Cmmi10-58"></use><use transform="translate(82.8125 -17.00625)scale(0.7)" xlink:href="#inv-2-eq_Cmr10-32"></use><use transform="translate(141.748437 0)" xlink:href="#inv-2-eq_Cmr10-3d"></use><use transform="translate(236.992578 0)" xlink:href="#inv-2-eq_Cmmi10-59"></use><use transform="translate(295.000391 -17.00625)scale(0.7)" xlink:href="#inv-2-eq_Cmr10-32"></use><use transform="translate(353.936328 0)" xlink:href="#inv-2-eq_Cmsy10-af"></use><use transform="translate(449.180469 0)" xlink:href="#inv-2-eq_Cmr10-65"></use><use transform="translate(493.565234 0)" xlink:href="#inv-2-eq_Cmr10-78"></use><use transform="translate(546.250781 0)" xlink:href="#inv-2-eq_Cmr10-70"></use><use transform="translate(601.768359 0)" xlink:href="#inv-2-eq_Cmr10-28"></use><use transform="translate(640.586719 0)" xlink:href="#inv-2-eq_Cmsy10-a1"></use><use transform="translate(718.272266 0)" xlink:href="#inv-2-eq_Cmmi10-73"></use><use transform="translate(765.049609 0)" xlink:href="#inv-2-eq_Cmr10-28"></use><use transform="translate(803.867969 0)" xlink:href="#inv-2-eq_Cmmi10-59"></use><use transform="translate(861.875781 -17.00625)scale(0.7)" xlink:href="#inv-2-eq_Cmr10-31"></use><use transform="translate(903.253125 0)" xlink:href="#inv-2-eq_Cmr10-29"></use><use transform="translate(942.071484 0)" xlink:href="#inv-2-eq_Cmr10-29"></use><use transform="translate(998.448438 0)" xlink:href="#inv-2-eq_Cmsy10-a1"></use><use transform="translate(1093.692578 0)" xlink:href="#inv-2-eq_Cmmi10-74"></use><use transform="translate(1129.776563 0)" xlink:href="#inv-2-eq_Cmr10-28"></use><use transform="translate(1168.594922 0)" xlink:href="#inv-2-eq_Cmmi10-59"></use><use transform="translate(1226.602734 -17.00625)scale(0.7)" xlink:href="#inv-2-eq_Cmr10-31"></use><use transform="translate(1267.980078 0)" xlink:href="#inv-2-eq_Cmr10-29"></use></g></g></g></defs><path d="M 1.000000 0.500000L 6.000000 0.500000" fill="none" id="path-x1y1" marker-end="url(#arrowhead)" opacity="1" stroke="#666666" stroke-linecap="round" stroke-linejoin="round" stroke-width="0.05"></path><path d="M 1.000000 0.500000 H 2.000000 A 0.500000 0.500000 0 0 1 2.500000 1.000000 V 1.500000" fill="none" id="path-x1t" marker-end="url(#arrowhead)" opacity="1" stroke="#666666" stroke-linecap="round" stroke-linejoin="round" stroke-width="0.05"></path><path d="M 1.000000 0.500000 H 4.000000 A 0.500000 0.500000 0 0 1 4.500000 1.000000 V 1.500000" fill="none" id="path-x1s" marker-end="url(#arrowhead)" opacity="1" stroke="#666666" stroke-linecap="round" stroke-linejoin="round" stroke-width="0.05"></path><path d="M 6.000000 0.500000 H 3.000000 A 0.500000 0.500000 0 0 0 2.500000 1.000000 V 1.500000" fill="none" id="path-y1t" marker-end="url(#arrowhead)" opacity="0" stroke="#666666" stroke-linecap="round" stroke-linejoin="round" stroke-width="0.05"></path><path d="M 6.000000 0.500000 H 5.000000 A 0.500000 0.500000 0 0 0 4.500000 1.000000 V 1.500000" fill="none" id="path-y1s" marker-end="url(#arrowhead)" opacity="0" stroke="#666666" stroke-linecap="round" stroke-linejoin="round" stroke-width="0.05"></path><path d="M 1.000000 3.500000L 2.000000 3.500000" fill="none" id="path-x2add" marker-end="url(#arrowhead)" opacity="1" stroke="#666666" stroke-linecap="round" stroke-linejoin="round" stroke-width="0.05"></path><path d="M 3.000000 3.500000L 4.000000 3.500000" fill="none" id="path-addmul" marker-end="url(#arrowhead)" opacity="1" stroke="#666666" stroke-linecap="round" stroke-linejoin="round" stroke-width="0.05"></path><path d="M 5.000000 3.500000L 6.000000 3.500000" fill="none" id="path-muly2" marker-end="url(#arrowhead)" opacity="1" stroke="#666666" stroke-linecap="round" stroke-linejoin="round" stroke-width="0.05"></path><path d="M 2.500000 2.500000L 2.500000 3.000000" fill="none" id="path-t-add" marker-end="url(#arrowhead)" opacity="1" stroke="#666666" stroke-linecap="round" stroke-linejoin="round" stroke-width="0.05"></path><path d="M 4.500000 2.500000L 4.500000 3.000000" fill="none" id="path-s-mul" marker-end="url(#arrowhead)" opacity="1" stroke="#666666" stroke-linecap="round" stroke-linejoin="round" stroke-width="0.05"></path><use id="x1-eq" opacity="1" transform="scale(0.0357)" x="7" xlink:href="#x1-eq_figure_1" y="8.5"></use><use id="y1-eq" opacity="1" transform="scale(0.0357)" x="176" xlink:href="#y1-eq_figure_1" y="8.5"></use><use id="x2-eq" opacity="1" transform="scale(0.0357)" x="7" xlink:href="#x2-eq_figure_1" y="92.5"></use><use id="y2-eq" opacity="1" transform="scale(0.0357)" x="176" xlink:href="#y2-eq_figure_1" y="92.5"></use><use id="add-eq" opacity="1" transform="scale(0.0357)" x="65.5" xlink:href="#add-eq_figure_1" y="92.5"></use><use id="mul-eq" opacity="1" transform="scale(0.0357)" x="121.5" xlink:href="#mul-eq_figure_1" y="92.5"></use><use id="t-eq" opacity="1" transform="scale(0.0357)" x="68" xlink:href="#t-eq_figure_1" y="50.5"></use><use id="s-eq" opacity="1" transform="scale(0.0357)" x="123.5" xlink:href="#s-eq_figure_1" y="50.5"></use><use id="mt-eq" opacity="0" transform="scale(0.0357)" x="63.5" xlink:href="#mt-eq_figure_1" y="50.5"></use><use id="ms-eq" opacity="0" transform="scale(0.0357)" x="119" xlink:href="#ms-eq_figure_1" y="50.5"></use><use id="fwd-1-eq" opacity="1" transform="scale(0.0455)" x="57" xlink:href="#fwd-1-eq_figure_1" y="93.5"></use><use id="inv-1-eq" opacity="0" transform="scale(0.0455)" x="57" xlink:href="#inv-1-eq_figure_1" y="93.5"></use><use id="fwd-2-eq" opacity="1" transform="scale(0.0455)" x="-4" xlink:href="#fwd-2-eq_figure_1" y="115"></use><use id="inv-2-eq" opacity="0" transform="scale(0.0455)" x="-1" xlink:href="#inv-2-eq_figure_1" y="115"></use><rect fill="#666666" fill-opacity="0" height="1" id="node-x1" opacity="1" rx="0.5" stroke="#666666" stroke-width="0.05" transform="rotate(45)" width="1" x="0.20710678118654752" y="-0.5"></rect><rect fill="#666666" fill-opacity="0" height="0.7071" id="node-y1" opacity="1" rx="0" stroke="#666666" stroke-width="0.05" transform="rotate(45)" width="0.7071" x="4.59619407771256" y="-4.596194077712559"></rect><rect fill="#666666" fill-opacity="0" height="1" id="node-x2" opacity="1" rx="0.5" stroke="#666666" stroke-width="0.05" transform="rotate(45)" width="1" x="2.32842712474619" y="1.6213203435596428"></rect><rect fill="#666666" fill-opacity="0" height="0.7071" id="node-y2" opacity="1" rx="0" stroke="#666666" stroke-width="0.05" transform="rotate(45)" width="0.7071" x="6.717514421272202" y="-2.474873734152916"></rect><rect fill="#666666" fill-opacity="0" height="0.7071" id="node-add" opacity="1" rx="0" stroke="#666666" stroke-width="0.05" transform="rotate(45)" width="0.7071" x="3.8890872965260113" y="0.3535533905932742"></rect><rect fill="#666666" fill-opacity="0" height="0.7071" id="node-mul" opacity="1" rx="0" stroke="#666666" stroke-width="0.05" transform="rotate(45)" width="0.7071" x="5.303300858899107" y="-1.060660171779821"></rect><rect fill="#666666" fill-opacity="0" height="0.7071" id="node-t" opacity="1" rx="0" stroke="#666666" stroke-width="0.05" transform="rotate(45)" width="0.7071" x="2.82842712474619" y="-0.7071067811865472"></rect><rect fill="#666666" fill-opacity="0" height="0.7071" id="node-s" opacity="1" rx="0" stroke="#666666" stroke-width="0.05" transform="rotate(45)" width="0.7071" x="4.242640687119286" y="-2.1213203435596424"></rect><rect fill="#8c2323" height="7" id="clicker-0" opacity="0" stroke="#666666" width="9" x="-1" y="-0.5"></rect><animate attributeName="height" begin="clicker-1.click + 0.5s" dur="0.001s" fill="freeze" from="0" id="open-clicker-0" to="7" xlink:href="#clicker-0"></animate><animate attributeName="height" begin="clicker-0.click + 0s" dur="0.001s" fill="freeze" from="7" id="close-clicker-0" to="0" xlink:href="#clicker-0"></animate><animate attributeName="marker-end" begin="clicker-0.click + 0s" dur="0.5s" fill="freeze" from="url(#arrowhead)" id="set-inv--path-x1y1-marker-end" to="none" xlink:href="#path-x1y1"></animate><animate attributeName="marker-start" begin="clicker-0.click + 0s" dur="0.5s" fill="freeze" from="none" id="set-inv--path-x1y1-marker-start" to="url(#inv-arrowhead)" xlink:href="#path-x1y1"></animate><animate attributeName="marker-end" begin="clicker-0.click + 0s" dur="0.5s" fill="freeze" from="url(#arrowhead)" id="set-inv--path-x2add-marker-end" to="none" xlink:href="#path-x2add"></animate><animate attributeName="marker-start" begin="clicker-0.click + 0s" dur="0.5s" fill="freeze" from="none" id="set-inv--path-x2add-marker-start" to="url(#inv-arrowhead)" xlink:href="#path-x2add"></animate><animate attributeName="marker-end" begin="clicker-0.click + 0s" dur="0.5s" fill="freeze" from="url(#arrowhead)" id="set-inv--path-addmul-marker-end" to="none" xlink:href="#path-addmul"></animate><animate attributeName="marker-start" begin="clicker-0.click + 0s" dur="0.5s" fill="freeze" from="none" id="set-inv--path-addmul-marker-start" to="url(#inv-arrowhead)" xlink:href="#path-addmul"></animate><animate attributeName="marker-end" begin="clicker-0.click + 0s" dur="0.5s" fill="freeze" from="url(#arrowhead)" id="set-inv--path-muly2-marker-end" to="none" xlink:href="#path-muly2"></animate><animate attributeName="marker-start" begin="clicker-0.click + 0s" dur="0.5s" fill="freeze" from="none" id="set-inv--path-muly2-marker-start" to="url(#inv-arrowhead)" xlink:href="#path-muly2"></animate><animate attributeName="opacity" begin="clicker-0.click + 0s" dur="0.5s" fill="freeze" from="1" id="set-inv--path-x1t-opacity" to="0" xlink:href="#path-x1t"></animate><animate attributeName="opacity" begin="clicker-0.click + 0s" dur="0.5s" fill="freeze" from="1" id="set-inv--path-x1s-opacity" to="0" xlink:href="#path-x1s"></animate><animate attributeName="opacity" begin="clicker-0.click + 0s" dur="0.5s" fill="freeze" from="0" id="set-inv--path-y1t-opacity" to="1" xlink:href="#path-y1t"></animate><animate attributeName="opacity" begin="clicker-0.click + 0s" dur="0.5s" fill="freeze" from="0" id="set-inv--path-y1s-opacity" to="1" xlink:href="#path-y1s"></animate><animate attributeName="opacity" begin="clicker-0.click + 0s" dur="0.5s" fill="freeze" from="1" id="set-inv--s-eq-opacity" to="0" xlink:href="#s-eq"></animate><animate attributeName="opacity" begin="clicker-0.click + 0s" dur="0.5s" fill="freeze" from="1" id="set-inv--t-eq-opacity" to="0" xlink:href="#t-eq"></animate><animate attributeName="opacity" begin="clicker-0.click + 0s" dur="0.5s" fill="freeze" from="0" id="set-inv--ms-eq-opacity" to="1" xlink:href="#ms-eq"></animate><animate attributeName="opacity" begin="clicker-0.click + 0s" dur="0.5s" fill="freeze" from="0" id="set-inv--mt-eq-opacity" to="1" xlink:href="#mt-eq"></animate><animate attributeName="opacity" begin="clicker-0.click + 0s" dur="0.5s" fill="freeze" from="1" id="set-inv--fwd-1-eq-opacity" to="0" xlink:href="#fwd-1-eq"></animate><animate attributeName="opacity" begin="clicker-0.click + 0s" dur="0.5s" fill="freeze" from="1" id="set-inv--fwd-2-eq-opacity" to="0" xlink:href="#fwd-2-eq"></animate><animate attributeName="opacity" begin="clicker-0.click + 0s" dur="0.5s" fill="freeze" from="0" id="set-inv--inv-1-eq-opacity" to="1" xlink:href="#inv-1-eq"></animate><animate attributeName="opacity" begin="clicker-0.click + 0s" dur="0.5s" fill="freeze" from="0" id="set-inv--inv-2-eq-opacity" to="1" xlink:href="#inv-2-eq"></animate><animate attributeName="rx" begin="clicker-0.click + 0s" dur="0.5s" fill="freeze" from="0.5" id="set-inv--node-x1-rx" to="0" xlink:href="#node-x1"></animate><animate attributeName="x" begin="clicker-0.click + 0s" dur="0.5s" fill="freeze" from="0.2071" id="set-inv--node-x1-x" to="0.3536" xlink:href="#node-x1"></animate><animate attributeName="y" begin="clicker-0.click + 0s" dur="0.5s" fill="freeze" from="-0.5" id="set-inv--node-x1-y" to="-0.3536" xlink:href="#node-x1"></animate><animate attributeName="width" begin="clicker-0.click + 0s" dur="0.5s" fill="freeze" from="1.0" id="set-inv--node-x1-width" to="0.7071067811865476" xlink:href="#node-x1"></animate><animate attributeName="height" begin="clicker-0.click + 0s" dur="0.5s" fill="freeze" from="1.0" id="set-inv--node-x1-height" to="0.7071067811865476" xlink:href="#node-x1"></animate><animate attributeName="rx" begin="clicker-0.click + 0s" dur="0.5s" fill="freeze" from="0" id="set-inv--node-y1-rx" to="0.5" xlink:href="#node-y1"></animate><animate attributeName="x" begin="clicker-0.click + 0s" dur="0.5s" fill="freeze" from="4.5962" id="set-inv--node-y1-x" to="4.4497" xlink:href="#node-y1"></animate><animate attributeName="y" begin="clicker-0.click + 0s" dur="0.5s" fill="freeze" from="-4.5962" id="set-inv--node-y1-y" to="-4.7426" xlink:href="#node-y1"></animate><animate attributeName="width" begin="clicker-0.click + 0s" dur="0.5s" fill="freeze" from="0.7071" id="set-inv--node-y1-width" to="1" xlink:href="#node-y1"></animate><animate attributeName="height" begin="clicker-0.click + 0s" dur="0.5s" fill="freeze" from="0.7071" id="set-inv--node-y1-height" to="1" xlink:href="#node-y1"></animate><animate attributeName="rx" begin="clicker-0.click + 0s" dur="0.5s" fill="freeze" from="0.5" id="set-inv--node-x2-rx" to="0" xlink:href="#node-x2"></animate><animate attributeName="x" begin="clicker-0.click + 0s" dur="0.5s" fill="freeze" from="2.3284" id="set-inv--node-x2-x" to="2.4749" xlink:href="#node-x2"></animate><animate attributeName="y" begin="clicker-0.click + 0s" dur="0.5s" fill="freeze" from="1.6213" id="set-inv--node-x2-y" to="1.7678" xlink:href="#node-x2"></animate><animate attributeName="width" begin="clicker-0.click + 0s" dur="0.5s" fill="freeze" from="1.0" id="set-inv--node-x2-width" to="0.7071067811865476" xlink:href="#node-x2"></animate><animate attributeName="height" begin="clicker-0.click + 0s" dur="0.5s" fill="freeze" from="1.0" id="set-inv--node-x2-height" to="0.7071067811865476" xlink:href="#node-x2"></animate><animate attributeName="rx" begin="clicker-0.click + 0s" dur="0.5s" fill="freeze" from="0" id="set-inv--node-y2-rx" to="0.5" xlink:href="#node-y2"></animate><animate attributeName="x" begin="clicker-0.click + 0s" dur="0.5s" fill="freeze" from="6.7175" id="set-inv--node-y2-x" to="6.5711" xlink:href="#node-y2"></animate><animate attributeName="y" begin="clicker-0.click + 0s" dur="0.5s" fill="freeze" from="-2.4749" id="set-inv--node-y2-y" to="-2.6213" xlink:href="#node-y2"></animate><animate attributeName="width" begin="clicker-0.click + 0s" dur="0.5s" fill="freeze" from="0.7071" id="set-inv--node-y2-width" to="1" xlink:href="#node-y2"></animate><animate attributeName="height" begin="clicker-0.click + 0s" dur="0.5s" fill="freeze" from="0.7071" id="set-inv--node-y2-height" to="1" xlink:href="#node-y2"></animate><rect fill="#8c2323" height="0" id="clicker-1" opacity="0" stroke="#666666" width="9" x="-1" y="-0.5"></rect><animate attributeName="height" begin="clicker-0.click + 0.5s" dur="0.001s" fill="freeze" from="0" id="open-clicker-1" to="7" xlink:href="#clicker-1"></animate><animate attributeName="height" begin="clicker-1.click + 0s" dur="0.001s" fill="freeze" from="7" id="close-clicker-1" to="0" xlink:href="#clicker-1"></animate><animate attributeName="marker-end" begin="clicker-1.click + 0s" dur="0.5s" fill="freeze" from="none" id="set-fwd--path-x1y1-marker-end" to="url(#arrowhead)" xlink:href="#path-x1y1"></animate><animate attributeName="marker-start" begin="clicker-1.click + 0s" dur="0.5s" fill="freeze" from="url(#inv-arrowhead)" id="set-fwd--path-x1y1-marker-start" to="none" xlink:href="#path-x1y1"></animate><animate attributeName="marker-end" begin="clicker-1.click + 0s" dur="0.5s" fill="freeze" from="none" id="set-fwd--path-x2add-marker-end" to="url(#arrowhead)" xlink:href="#path-x2add"></animate><animate attributeName="marker-start" begin="clicker-1.click + 0s" dur="0.5s" fill="freeze" from="url(#inv-arrowhead)" id="set-fwd--path-x2add-marker-start" to="none" xlink:href="#path-x2add"></animate><animate attributeName="marker-end" begin="clicker-1.click + 0s" dur="0.5s" fill="freeze" from="none" id="set-fwd--path-addmul-marker-end" to="url(#arrowhead)" xlink:href="#path-addmul"></animate><animate attributeName="marker-start" begin="clicker-1.click + 0s" dur="0.5s" fill="freeze" from="url(#inv-arrowhead)" id="set-fwd--path-addmul-marker-start" to="none" xlink:href="#path-addmul"></animate><animate attributeName="marker-end" begin="clicker-1.click + 0s" dur="0.5s" fill="freeze" from="none" id="set-fwd--path-muly2-marker-end" to="url(#arrowhead)" xlink:href="#path-muly2"></animate><animate attributeName="marker-start" begin="clicker-1.click + 0s" dur="0.5s" fill="freeze" from="url(#inv-arrowhead)" id="set-fwd--path-muly2-marker-start" to="none" xlink:href="#path-muly2"></animate><animate attributeName="opacity" begin="clicker-1.click + 0s" dur="0.5s" fill="freeze" from="0" id="set-fwd--path-x1t-opacity" to="1" xlink:href="#path-x1t"></animate><animate attributeName="opacity" begin="clicker-1.click + 0s" dur="0.5s" fill="freeze" from="0" id="set-fwd--path-x1s-opacity" to="1" xlink:href="#path-x1s"></animate><animate attributeName="opacity" begin="clicker-1.click + 0s" dur="0.5s" fill="freeze" from="1" id="set-fwd--path-y1t-opacity" to="0" xlink:href="#path-y1t"></animate><animate attributeName="opacity" begin="clicker-1.click + 0s" dur="0.5s" fill="freeze" from="1" id="set-fwd--path-y1s-opacity" to="0" xlink:href="#path-y1s"></animate><animate attributeName="opacity" begin="clicker-1.click + 0s" dur="0.5s" fill="freeze" from="0" id="set-fwd--s-eq-opacity" to="1" xlink:href="#s-eq"></animate><animate attributeName="opacity" begin="clicker-1.click + 0s" dur="0.5s" fill="freeze" from="0" id="set-fwd--t-eq-opacity" to="1" xlink:href="#t-eq"></animate><animate attributeName="opacity" begin="clicker-1.click + 0s" dur="0.5s" fill="freeze" from="1" id="set-fwd--ms-eq-opacity" to="0" xlink:href="#ms-eq"></animate><animate attributeName="opacity" begin="clicker-1.click + 0s" dur="0.5s" fill="freeze" from="1" id="set-fwd--mt-eq-opacity" to="0" xlink:href="#mt-eq"></animate><animate attributeName="opacity" begin="clicker-1.click + 0s" dur="0.5s" fill="freeze" from="0" id="set-fwd--fwd-1-eq-opacity" to="1" xlink:href="#fwd-1-eq"></animate><animate attributeName="opacity" begin="clicker-1.click + 0s" dur="0.5s" fill="freeze" from="0" id="set-fwd--fwd-2-eq-opacity" to="1" xlink:href="#fwd-2-eq"></animate><animate attributeName="opacity" begin="clicker-1.click + 0s" dur="0.5s" fill="freeze" from="1" id="set-fwd--inv-1-eq-opacity" to="0" xlink:href="#inv-1-eq"></animate><animate attributeName="opacity" begin="clicker-1.click + 0s" dur="0.5s" fill="freeze" from="1" id="set-fwd--inv-2-eq-opacity" to="0" xlink:href="#inv-2-eq"></animate><animate attributeName="rx" begin="clicker-1.click + 0s" dur="0.5s" fill="freeze" from="0" id="set-fwd--node-x1-rx" to="0.5" xlink:href="#node-x1"></animate><animate attributeName="x" begin="clicker-1.click + 0s" dur="0.5s" fill="freeze" from="0.3536" id="set-fwd--node-x1-x" to="0.2071" xlink:href="#node-x1"></animate><animate attributeName="y" begin="clicker-1.click + 0s" dur="0.5s" fill="freeze" from="-0.3536" id="set-fwd--node-x1-y" to="-0.5" xlink:href="#node-x1"></animate><animate attributeName="width" begin="clicker-1.click + 0s" dur="0.5s" fill="freeze" from="0.7071067811865476" id="set-fwd--node-x1-width" to="1.0" xlink:href="#node-x1"></animate><animate attributeName="height" begin="clicker-1.click + 0s" dur="0.5s" fill="freeze" from="0.7071067811865476" id="set-fwd--node-x1-height" to="1.0" xlink:href="#node-x1"></animate><animate attributeName="rx" begin="clicker-1.click + 0s" dur="0.5s" fill="freeze" from="0.5" id="set-fwd--node-y1-rx" to="0" xlink:href="#node-y1"></animate><animate attributeName="x" begin="clicker-1.click + 0s" dur="0.5s" fill="freeze" from="4.4497" id="set-fwd--node-y1-x" to="4.5962" xlink:href="#node-y1"></animate><animate attributeName="y" begin="clicker-1.click + 0s" dur="0.5s" fill="freeze" from="-4.7426" id="set-fwd--node-y1-y" to="-4.5962" xlink:href="#node-y1"></animate><animate attributeName="width" begin="clicker-1.click + 0s" dur="0.5s" fill="freeze" from="1" id="set-fwd--node-y1-width" to="0.7071" xlink:href="#node-y1"></animate><animate attributeName="height" begin="clicker-1.click + 0s" dur="0.5s" fill="freeze" from="1" id="set-fwd--node-y1-height" to="0.7071" xlink:href="#node-y1"></animate><animate attributeName="rx" begin="clicker-1.click + 0s" dur="0.5s" fill="freeze" from="0" id="set-fwd--node-x2-rx" to="0.5" xlink:href="#node-x2"></animate><animate attributeName="x" begin="clicker-1.click + 0s" dur="0.5s" fill="freeze" from="2.4749" id="set-fwd--node-x2-x" to="2.3284" xlink:href="#node-x2"></animate><animate attributeName="y" begin="clicker-1.click + 0s" dur="0.5s" fill="freeze" from="1.7678" id="set-fwd--node-x2-y" to="1.6213" xlink:href="#node-x2"></animate><animate attributeName="width" begin="clicker-1.click + 0s" dur="0.5s" fill="freeze" from="0.7071067811865476" id="set-fwd--node-x2-width" to="1.0" xlink:href="#node-x2"></animate><animate attributeName="height" begin="clicker-1.click + 0s" dur="0.5s" fill="freeze" from="0.7071067811865476" id="set-fwd--node-x2-height" to="1.0" xlink:href="#node-x2"></animate><animate attributeName="rx" begin="clicker-1.click + 0s" dur="0.5s" fill="freeze" from="0.5" id="set-fwd--node-y2-rx" to="0" xlink:href="#node-y2"></animate><animate attributeName="x" begin="clicker-1.click + 0s" dur="0.5s" fill="freeze" from="6.5711" id="set-fwd--node-y2-x" to="6.7175" xlink:href="#node-y2"></animate><animate attributeName="y" begin="clicker-1.click + 0s" dur="0.5s" fill="freeze" from="-2.6213" id="set-fwd--node-y2-y" to="-2.4749" xlink:href="#node-y2"></animate><animate attributeName="width" begin="clicker-1.click + 0s" dur="0.5s" fill="freeze" from="1" id="set-fwd--node-y2-width" to="0.7071" xlink:href="#node-y2"></animate><!--made by Laurent Dinh--><animate attributeName="height" begin="clicker-1.click + 0s" dur="0.5s" fill="freeze" from="1" id="set-fwd--node-y2-height" to="0.7071" xlink:href="#node-y2"></animate></svg>