<?xml version="1.0" encoding="utf-8" standalone="no"?>
<!DOCTYPE svg PUBLIC "-//W3C//DTD SVG 1.1//EN"
  "http://www.w3.org/Graphics/SVG/1.1/DTD/svg11.dtd">
<!-- Created with matplotlib (http://matplotlib.org/) -->
<svg height="340pt" version="1.1" viewBox="0 0 455 340" width="455pt" xmlns="http://www.w3.org/2000/svg" xmlns:xlink="http://www.w3.org/1999/xlink">
 <defs>
  <style type="text/css">
*{stroke-linecap:butt;stroke-linejoin:round;}
  </style>
 </defs>
 <g id="figure_1">
  <g id="patch_1">
   <path d="M 0 340.36 
L 455.56 340.36 
L 455.56 0 
L 0 0 
z
" style="fill:none;"/>
  </g>
  <g id="axes_1">
   <g id="patch_2">
    <path d="M 10.7 329.66 
L 444.86 329.66 
L 444.86 10.7 
L 10.7 10.7 
z
" style="fill:none;"/>
   </g>
   <g id="matplotlib.axis_1"/>
   <g id="matplotlib.axis_2"/>
   <g id="line2d_1">
    <path clip-path="url(#pbdf91ec33b)" d="M 10.7 72.727783 
L 11.56832 72.592172 
L 12.43664 72.266157 
L 13.30496 71.760504 
L 14.60744 70.668403 
L 15.47576 69.707877 
L 16.77824 67.919913 
L 18.08072 65.708441 
L 19.81736 62.188398 
L 21.554 58.097394 
L 27.19808 44.17813 
L 28.50056 41.839234 
L 29.36888 40.69965 
L 30.2372 39.957705 
L 30.67136 39.761623 
L 31.10552 39.696364 
L 31.53968 39.760549 
L 31.97384 39.965057 
L 32.408 40.321101 
L 33.27632 41.495813 
L 34.14464 43.310123 
L 35.01296 45.814284 
L 35.88128 49.021077 
L 36.7496 52.945193 
L 38.05208 60.165135 
L 39.35456 68.904843 
L 40.65704 79.054001 
L 42.39368 94.458894 
L 44.56448 115.964442 
L 51.9452 191.440779 
L 53.68184 206.523352 
L 55.41848 219.800309 
L 57.15512 231.113606 
L 58.4576 238.271075 
L 59.76008 244.311309 
L 61.06256 249.272505 
L 62.36504 253.221215 
L 63.23336 255.330968 
L 64.10168 257.04852 
L 64.97 258.393722 
L 65.83832 259.404413 
L 66.70664 260.110574 
L 67.57496 260.528863 
L 68.44328 260.69286 
L 69.3116 260.639467 
L 70.17992 260.400602 
L 71.04824 259.989785 
L 72.35072 259.098148 
L 74.08736 257.541337 
L 76.25816 255.28579 
L 87.11216 243.432203 
L 88.8488 241.052667 
L 90.15128 238.960378 
L 91.45376 236.49412 
L 92.75624 233.65039 
L 94.49288 229.147659 
L 96.22952 223.847625 
L 97.96616 217.790634 
L 100.13696 209.410012 
L 106.64936 183.31229 
L 108.386 177.344835 
L 110.12264 172.127141 
L 111.85928 167.709181 
L 113.16176 164.906973 
L 114.8984 161.754295 
L 116.63504 159.167024 
L 118.80584 156.421835 
L 124.88408 149.147667 
L 127.48904 145.563833 
L 133.13312 137.537553 
L 134.86976 135.48778 
L 136.17224 134.226922 
L 137.47472 133.266132 
L 138.7772 132.669677 
L 139.64552 132.491666 
L 140.51384 132.484699 
L 141.38216 132.663859 
L 142.25048 133.034029 
L 143.1188 133.589956 
L 144.42128 134.747362 
L 145.72376 136.251779 
L 147.4604 138.669826 
L 150.49952 143.519796 
L 153.10448 147.526331 
L 154.84112 149.758486 
L 156.1436 151.109586 
L 157.44608 152.120072 
L 158.74856 152.783579 
L 160.05104 153.133761 
L 161.35352 153.19118 
L 162.656 152.971767 
L 163.95848 152.562707 
L 165.69512 151.812115 
L 172.20752 148.684359 
L 173.94416 148.177188 
L 175.6808 147.910472 
L 177.41744 147.923963 
L 178.71992 148.176611 
L 180.0224 148.610678 
L 181.32488 149.271828 
L 183.06152 150.434275 
L 184.79816 151.922887 
L 189.57392 156.21742 
L 190.8764 156.981375 
L 191.74472 157.272173 
L 192.61304 157.345229 
L 193.48136 157.178801 
L 194.34968 156.737836 
L 195.218 155.994693 
L 196.08632 154.94993 
L 196.95464 153.599573 
L 198.25712 150.981306 
L 199.5596 147.726331 
L 201.29624 142.556477 
L 206.94032 124.442116 
L 208.2428 121.37282 
L 209.11112 119.82309 
L 209.97944 118.744339 
L 210.4136 118.386339 
L 210.84776 118.174857 
L 211.28192 118.104006 
L 211.71608 118.175269 
L 212.15024 118.395204 
L 212.5844 118.764816 
L 213.45272 119.951915 
L 214.32104 121.765285 
L 215.18936 124.179925 
L 216.05768 127.161048 
L 217.36016 132.651285 
L 218.66264 139.195868 
L 220.39928 149.187074 
L 226.47752 185.793883 
L 227.78 191.97029 
L 229.08248 197.007235 
L 229.9508 199.652334 
L 230.81912 201.688976 
L 231.68744 203.110346 
L 232.55576 203.909138 
L 232.98992 204.08919 
L 233.42408 204.12014 
L 233.85824 204.016673 
L 234.2924 203.774404 
L 235.16072 202.905104 
L 236.02904 201.584272 
L 237.33152 198.924309 
L 239.06816 194.534359 
L 241.67312 187.792249 
L 242.9756 185.053405 
L 243.84392 183.675679 
L 244.71224 182.752704 
L 245.1464 182.487597 
L 245.58056 182.365774 
L 246.01472 182.381673 
L 246.44888 182.55047 
L 246.88304 182.870614 
L 247.3172 183.347735 
L 248.18552 184.806129 
L 249.05384 186.942917 
L 249.92216 189.746716 
L 250.79048 193.198822 
L 252.09296 199.564062 
L 253.39544 207.183409 
L 255.13208 218.919618 
L 257.73704 238.53022 
L 260.77616 261.331568 
L 262.5128 272.824381 
L 263.81528 280.178819 
L 265.11776 286.193316 
L 265.98608 289.364073 
L 266.8544 291.831472 
L 267.72272 293.57418 
L 268.15688 294.169532 
L 268.59104 294.575174 
L 269.0252 294.79999 
L 269.45936 294.852893 
L 269.89352 294.722112 
L 270.32768 294.42201 
L 271.196 293.288841 
L 272.06432 291.516161 
L 272.93264 289.164856 
L 273.80096 286.285301 
L 275.10344 281.124872 
L 276.84008 273.059467 
L 279.8792 257.379301 
L 282.48416 244.145823 
L 284.65496 234.178528 
L 286.3916 227.095809 
L 288.5624 219.251183 
L 291.16736 210.819047 
L 295.50896 196.907698 
L 298.11392 187.598356 
L 301.15304 175.638878 
L 306.36296 154.684652 
L 308.53376 146.985608 
L 310.2704 141.697586 
L 311.57288 138.35389 
L 312.87536 135.611555 
L 313.74368 134.139705 
L 314.612 132.979426 
L 315.48032 132.110343 
L 316.34864 131.565118 
L 317.21696 131.320921 
L 318.08528 131.373444 
L 318.9536 131.722906 
L 319.82192 132.373236 
L 320.69024 133.292216 
L 321.55856 134.469852 
L 322.86104 136.664325 
L 324.16352 139.301867 
L 325.90016 143.300386 
L 329.37344 152.110673 
L 331.9784 158.531514 
L 333.71504 162.351258 
L 335.45168 165.639361 
L 336.75416 167.6798 
L 338.05664 169.32018 
L 339.35912 170.495247 
L 340.22744 171.029788 
L 341.09576 171.319718 
L 341.96408 171.380587 
L 342.8324 171.191154 
L 343.70072 170.739247 
L 344.56904 170.020373 
L 345.43736 169.016608 
L 346.30568 167.751456 
L 347.60816 165.315895 
L 348.91064 162.276479 
L 350.21312 158.664541 
L 351.94976 153.092891 
L 354.12056 145.281229 
L 358.46216 129.236293 
L 360.1988 123.737474 
L 361.50128 120.295425 
L 362.80376 117.582894 
L 363.67208 116.243071 
L 364.5404 115.288061 
L 365.40872 114.746491 
L 366.27704 114.623147 
L 367.14536 114.9274 
L 368.01368 115.630275 
L 368.882 116.721238 
L 369.75032 118.174656 
L 371.0528 120.962764 
L 372.35528 124.364484 
L 374.09192 129.531935 
L 377.99936 141.593748 
L 379.736 146.125526 
L 381.03848 148.873673 
L 381.9068 150.357141 
L 382.77512 151.536733 
L 383.64344 152.42044 
L 384.51176 153.000286 
L 385.38008 153.307481 
L 386.2484 153.364468 
L 387.11672 153.186666 
L 388.4192 152.598237 
L 390.15584 151.394103 
L 393.19496 149.127518 
L 394.49744 148.418196 
L 395.36576 148.105713 
L 396.66824 147.939788 
L 397.53656 148.040567 
L 398.40488 148.315393 
L 399.2732 148.782222 
L 400.57568 149.83392 
L 401.87816 151.254392 
L 403.18064 153.048834 
L 404.91728 155.943842 
L 406.65392 159.349679 
L 408.82472 164.143557 
L 411.86384 171.519601 
L 416.20544 182.080469 
L 418.37624 186.655826 
L 419.67872 188.988814 
L 420.9812 190.959594 
L 422.28368 192.523236 
L 423.58616 193.668616 
L 424.45448 194.197173 
L 425.75696 194.667374 
L 427.05944 194.770744 
L 428.36192 194.586475 
L 430.09856 193.989655 
L 432.26936 192.915954 
L 435.30848 191.351864 
L 437.47928 190.459833 
L 440.08424 189.737593 
L 442.25504 189.4192 
L 444.42584 189.312717 
L 444.42584 189.312717 
" style="fill:none;stroke:#666666;stroke-linecap:square;stroke-width:3;"/>
   </g>
   <g id="patch_3">
    <path d="M 10.7 329.66 
L 10.7 10.7 
" style="fill:none;stroke:#666666;stroke-linecap:square;stroke-linejoin:miter;stroke-width:0.8;"/>
   </g>
   <g id="patch_4">
    <path d="M 444.86 329.66 
L 444.86 10.7 
" style="fill:none;stroke:#666666;stroke-linecap:square;stroke-linejoin:miter;stroke-width:0.8;"/>
   </g>
   <g id="patch_5">
    <path d="M 10.7 329.66 
L 444.86 329.66 
" style="fill:none;stroke:#666666;stroke-linecap:square;stroke-linejoin:miter;stroke-width:0.8;"/>
   </g>
   <g id="patch_6">
    <path d="M 10.7 10.7 
L 444.86 10.7 
" style="fill:none;stroke:#666666;stroke-linecap:square;stroke-linejoin:miter;stroke-width:0.8;"/>
   </g>
  </g>
 </g>
 <defs>
  <clipPath id="pbdf91ec33b">
   <rect height="318.96" width="434.16" x="10.7" y="10.7"/>
  </clipPath>
 </defs>
</svg>
