<svg height="200pt" id="arm" version="2.0" viewBox="-0.5 -0.5 8 4" width="400pt" xmlns="http://www.w3.org/2000/svg" xmlns:xlink="http://www.w3.org/1999/xlink"><defs><marker id="arrowhead" markerHeight="3" markerUnits="strokeWidth" markerWidth="3" orient="auto" refX="3" refY="1.5"><polygon fill="#666666" id="arrowshape" points="0 0, 3 1.5, 0 3" stroke="#666666" stroke-width="0.05"></polygon></marker><marker id="inv-arrowhead" markerHeight="3" markerUnits="strokeWidth" markerWidth="3" orient="auto" refX="0" refY="1.5"><polygon fill="#666666" id="inv-arrowshape" points="3 0, 0 1.5, 3 3" stroke="#666666" stroke-width="0.05"></polygon></marker><g id="x1-eq_figure_1"><g id="x1-eq_patch_1"><path d="M 0 11.61375 L 15 11.61375 L 15 0 L 0 0 z" stroke-linecap="butt" stroke-linejoin="round" style="fill:none;"></path></g><g id="x1-eq_text_1"><!-- $X_1$ --><defs><path d="M 3.609375 0 Q 2.59375 0 2.59375 1.3125 Q 2.640625 1.5625 2.8125 2.1875 Q 2.984375 2.828125 3.25 3.171875 Q 3.515625 3.515625 4 3.515625 Q 13.09375 3.515625 19.578125 10.296875 Q 19.671875 10.40625 19.796875 10.453125 Q 19.921875 10.5 19.921875 10.5 L 41.796875 34.078125 L 29.890625 62.796875 Q 28.859375 64.109375 26.5625 64.453125 Q 24.265625 64.796875 21.1875 64.796875 Q 20.21875 64.796875 20.21875 66.109375 Q 20.5625 67.390625 20.75 67.84375 Q 20.953125 68.3125 21.921875 68.3125 L 46.921875 68.3125 Q 47.90625 68.3125 47.90625 67 Q 47.859375 66.75 47.6875 66.109375 Q 47.515625 65.484375 47.234375 65.140625 Q 46.96875 64.796875 46.484375 64.796875 Q 44.625 64.796875 42.640625 64.1875 Q 40.671875 63.578125 39.890625 62.203125 L 48.484375 41.5 L 64.890625 59.078125 Q 65.046875 59.421875 65.578125 60.28125 Q 66.109375 61.140625 66.109375 61.921875 Q 66.109375 63.375 64.84375 64.078125 Q 63.578125 64.796875 61.8125 64.796875 Q 60.796875 64.796875 60.796875 66.109375 Q 61.140625 67.390625 61.328125 67.84375 Q 61.53125 68.3125 62.5 68.3125 L 84.1875 68.3125 Q 84.71875 68.3125 84.953125 67.921875 Q 85.203125 67.53125 85.203125 67 Q 85.15625 66.75 85 66.15625 Q 84.859375 65.578125 84.609375 65.1875 Q 84.375 64.796875 83.890625 64.796875 Q 79.25 64.796875 75.359375 63.109375 Q 71.484375 61.421875 68.21875 58.015625 Q 68.171875 57.953125 68.09375 57.921875 Q 68.015625 57.90625 67.921875 57.8125 L 49.8125 38.28125 L 63.484375 5.515625 Q 65.09375 3.515625 72.21875 3.515625 Q 73.1875 3.515625 73.1875 2.203125 Q 72.859375 0.875 72.625 0.4375 Q 72.40625 0 71.484375 0 L 46.484375 0 Q 45.515625 0 45.515625 1.3125 Q 45.5625 1.5625 45.703125 2.171875 Q 45.84375 2.78125 46.109375 3.140625 Q 46.390625 3.515625 46.78125 3.515625 Q 48.734375 3.515625 50.734375 4.125 Q 52.734375 4.734375 53.515625 6.109375 L 43.109375 31 L 22.90625 9.1875 Q 22.75 8.84375 22.21875 8 Q 21.6875 7.171875 21.6875 6.390625 Q 21.6875 4.9375 23.046875 4.21875 Q 24.421875 3.515625 25.984375 3.515625 Q 27 3.515625 27 2.203125 Q 26.65625 0.78125 26.453125 0.390625 Q 26.265625 0 25.296875 0 z" id="x1-eq_Cmmi10-58" stroke-linecap="butt" stroke-linejoin="round"></path><path d="M 9.28125 0 L 9.28125 3.515625 Q 21.78125 3.515625 21.78125 6.6875 L 21.78125 59.1875 Q 16.609375 56.6875 8.6875 56.6875 L 8.6875 60.203125 Q 20.953125 60.203125 27.203125 66.609375 L 28.609375 66.609375 Q 28.953125 66.609375 29.265625 66.328125 Q 29.59375 66.0625 29.59375 65.71875 L 29.59375 6.6875 Q 29.59375 3.515625 42.09375 3.515625 L 42.09375 0 z" id="x1-eq_Cmr10-31" stroke-linecap="butt" stroke-linejoin="round"></path></defs><g style="fill:#666666;" transform="translate(0 9.118125)scale(0.12 -0.12)"><use transform="translate(0 0.6875)" xlink:href="#x1-eq_Cmmi10-58"></use><use transform="translate(82.8125 -16.31875)scale(0.7)" xlink:href="#x1-eq_Cmr10-31"></use></g></g></g><g id="x2-eq_figure_1"><g id="x2-eq_patch_1"><path d="M 0 11.61375 L 15 11.61375 L 15 0 L 0 0 z" stroke-linecap="butt" stroke-linejoin="round" style="fill:none;"></path></g><g id="x2-eq_text_1"><!-- $X_2$ --><defs><path d="M 3.609375 0 Q 2.59375 0 2.59375 1.3125 Q 2.640625 1.5625 2.8125 2.1875 Q 2.984375 2.828125 3.25 3.171875 Q 3.515625 3.515625 4 3.515625 Q 13.09375 3.515625 19.578125 10.296875 Q 19.671875 10.40625 19.796875 10.453125 Q 19.921875 10.5 19.921875 10.5 L 41.796875 34.078125 L 29.890625 62.796875 Q 28.859375 64.109375 26.5625 64.453125 Q 24.265625 64.796875 21.1875 64.796875 Q 20.21875 64.796875 20.21875 66.109375 Q 20.5625 67.390625 20.75 67.84375 Q 20.953125 68.3125 21.921875 68.3125 L 46.921875 68.3125 Q 47.90625 68.3125 47.90625 67 Q 47.859375 66.75 47.6875 66.109375 Q 47.515625 65.484375 47.234375 65.140625 Q 46.96875 64.796875 46.484375 64.796875 Q 44.625 64.796875 42.640625 64.1875 Q 40.671875 63.578125 39.890625 62.203125 L 48.484375 41.5 L 64.890625 59.078125 Q 65.046875 59.421875 65.578125 60.28125 Q 66.109375 61.140625 66.109375 61.921875 Q 66.109375 63.375 64.84375 64.078125 Q 63.578125 64.796875 61.8125 64.796875 Q 60.796875 64.796875 60.796875 66.109375 Q 61.140625 67.390625 61.328125 67.84375 Q 61.53125 68.3125 62.5 68.3125 L 84.1875 68.3125 Q 84.71875 68.3125 84.953125 67.921875 Q 85.203125 67.53125 85.203125 67 Q 85.15625 66.75 85 66.15625 Q 84.859375 65.578125 84.609375 65.1875 Q 84.375 64.796875 83.890625 64.796875 Q 79.25 64.796875 75.359375 63.109375 Q 71.484375 61.421875 68.21875 58.015625 Q 68.171875 57.953125 68.09375 57.921875 Q 68.015625 57.90625 67.921875 57.8125 L 49.8125 38.28125 L 63.484375 5.515625 Q 65.09375 3.515625 72.21875 3.515625 Q 73.1875 3.515625 73.1875 2.203125 Q 72.859375 0.875 72.625 0.4375 Q 72.40625 0 71.484375 0 L 46.484375 0 Q 45.515625 0 45.515625 1.3125 Q 45.5625 1.5625 45.703125 2.171875 Q 45.84375 2.78125 46.109375 3.140625 Q 46.390625 3.515625 46.78125 3.515625 Q 48.734375 3.515625 50.734375 4.125 Q 52.734375 4.734375 53.515625 6.109375 L 43.109375 31 L 22.90625 9.1875 Q 22.75 8.84375 22.21875 8 Q 21.6875 7.171875 21.6875 6.390625 Q 21.6875 4.9375 23.046875 4.21875 Q 24.421875 3.515625 25.984375 3.515625 Q 27 3.515625 27 2.203125 Q 26.65625 0.78125 26.453125 0.390625 Q 26.265625 0 25.296875 0 z" id="x2-eq_Cmmi10-58" stroke-linecap="butt" stroke-linejoin="round"></path><path d="M 4.984375 0 L 4.984375 2.6875 Q 4.984375 2.9375 5.171875 3.21875 L 20.703125 20.40625 Q 24.21875 24.21875 26.40625 26.796875 Q 28.609375 29.390625 30.75 32.765625 Q 32.90625 36.140625 34.15625 39.625 Q 35.40625 43.109375 35.40625 47.015625 Q 35.40625 51.125 33.890625 54.859375 Q 32.375 58.59375 29.375 60.84375 Q 26.375 63.09375 22.125 63.09375 Q 17.78125 63.09375 14.3125 60.46875 Q 10.84375 57.859375 9.421875 53.71875 Q 9.8125 53.8125 10.5 53.8125 Q 12.75 53.8125 14.328125 52.296875 Q 15.921875 50.78125 15.921875 48.390625 Q 15.921875 46.09375 14.328125 44.5 Q 12.75 42.921875 10.5 42.921875 Q 8.15625 42.921875 6.5625 44.546875 Q 4.984375 46.1875 4.984375 48.390625 Q 4.984375 52.15625 6.390625 55.4375 Q 7.8125 58.734375 10.46875 61.296875 Q 13.140625 63.875 16.484375 65.234375 Q 19.828125 66.609375 23.578125 66.609375 Q 29.296875 66.609375 34.21875 64.1875 Q 39.15625 61.765625 42.03125 57.34375 Q 44.921875 52.9375 44.921875 47.015625 Q 44.921875 42.671875 43.015625 38.765625 Q 41.109375 34.859375 38.125 31.65625 Q 35.15625 28.46875 30.515625 24.40625 Q 25.875 20.359375 24.421875 19 L 13.09375 8.109375 L 22.703125 8.109375 Q 29.78125 8.109375 34.546875 8.21875 Q 39.3125 8.34375 39.59375 8.59375 Q 40.765625 9.859375 42 17.828125 L 44.921875 17.828125 L 42.09375 0 z" id="x2-eq_Cmr10-32" stroke-linecap="butt" stroke-linejoin="round"></path></defs><g style="fill:#666666;" transform="translate(0 9.118125)scale(0.12 -0.12)"><use transform="translate(0 0.6875)" xlink:href="#x2-eq_Cmmi10-58"></use><use transform="translate(82.8125 -16.31875)scale(0.7)" xlink:href="#x2-eq_Cmr10-32"></use></g></g></g><g id="x3-eq_figure_1"><g id="x3-eq_patch_1"><path d="M 0 11.61375 L 15 11.61375 L 15 0 L 0 0 z" stroke-linecap="butt" stroke-linejoin="round" style="fill:none;"></path></g><g id="x3-eq_text_1"><!-- $X_3$ --><defs><path d="M 3.609375 0 Q 2.59375 0 2.59375 1.3125 Q 2.640625 1.5625 2.8125 2.1875 Q 2.984375 2.828125 3.25 3.171875 Q 3.515625 3.515625 4 3.515625 Q 13.09375 3.515625 19.578125 10.296875 Q 19.671875 10.40625 19.796875 10.453125 Q 19.921875 10.5 19.921875 10.5 L 41.796875 34.078125 L 29.890625 62.796875 Q 28.859375 64.109375 26.5625 64.453125 Q 24.265625 64.796875 21.1875 64.796875 Q 20.21875 64.796875 20.21875 66.109375 Q 20.5625 67.390625 20.75 67.84375 Q 20.953125 68.3125 21.921875 68.3125 L 46.921875 68.3125 Q 47.90625 68.3125 47.90625 67 Q 47.859375 66.75 47.6875 66.109375 Q 47.515625 65.484375 47.234375 65.140625 Q 46.96875 64.796875 46.484375 64.796875 Q 44.625 64.796875 42.640625 64.1875 Q 40.671875 63.578125 39.890625 62.203125 L 48.484375 41.5 L 64.890625 59.078125 Q 65.046875 59.421875 65.578125 60.28125 Q 66.109375 61.140625 66.109375 61.921875 Q 66.109375 63.375 64.84375 64.078125 Q 63.578125 64.796875 61.8125 64.796875 Q 60.796875 64.796875 60.796875 66.109375 Q 61.140625 67.390625 61.328125 67.84375 Q 61.53125 68.3125 62.5 68.3125 L 84.1875 68.3125 Q 84.71875 68.3125 84.953125 67.921875 Q 85.203125 67.53125 85.203125 67 Q 85.15625 66.75 85 66.15625 Q 84.859375 65.578125 84.609375 65.1875 Q 84.375 64.796875 83.890625 64.796875 Q 79.25 64.796875 75.359375 63.109375 Q 71.484375 61.421875 68.21875 58.015625 Q 68.171875 57.953125 68.09375 57.921875 Q 68.015625 57.90625 67.921875 57.8125 L 49.8125 38.28125 L 63.484375 5.515625 Q 65.09375 3.515625 72.21875 3.515625 Q 73.1875 3.515625 73.1875 2.203125 Q 72.859375 0.875 72.625 0.4375 Q 72.40625 0 71.484375 0 L 46.484375 0 Q 45.515625 0 45.515625 1.3125 Q 45.5625 1.5625 45.703125 2.171875 Q 45.84375 2.78125 46.109375 3.140625 Q 46.390625 3.515625 46.78125 3.515625 Q 48.734375 3.515625 50.734375 4.125 Q 52.734375 4.734375 53.515625 6.109375 L 43.109375 31 L 22.90625 9.1875 Q 22.75 8.84375 22.21875 8 Q 21.6875 7.171875 21.6875 6.390625 Q 21.6875 4.9375 23.046875 4.21875 Q 24.421875 3.515625 25.984375 3.515625 Q 27 3.515625 27 2.203125 Q 26.65625 0.78125 26.453125 0.390625 Q 26.265625 0 25.296875 0 z" id="x3-eq_Cmmi10-58" stroke-linecap="butt" stroke-linejoin="round"></path><path d="M 9.515625 7.71875 Q 11.859375 4.296875 15.8125 2.640625 Q 19.78125 0.984375 24.3125 0.984375 Q 30.125 0.984375 32.5625 5.9375 Q 35.015625 10.890625 35.015625 17.1875 Q 35.015625 20.015625 34.5 22.84375 Q 33.984375 25.6875 32.765625 28.125 Q 31.546875 30.5625 29.421875 32.03125 Q 27.296875 33.5 24.21875 33.5 L 17.578125 33.5 Q 16.703125 33.5 16.703125 34.421875 L 16.703125 35.296875 Q 16.703125 36.078125 17.578125 36.078125 L 23.09375 36.53125 Q 26.609375 36.53125 28.921875 39.15625 Q 31.25 41.796875 32.328125 45.578125 Q 33.40625 49.359375 33.40625 52.78125 Q 33.40625 57.5625 31.15625 60.640625 Q 28.90625 63.71875 24.3125 63.71875 Q 20.515625 63.71875 17.046875 62.28125 Q 13.578125 60.84375 11.53125 57.90625 Q 11.71875 57.953125 11.859375 57.984375 Q 12.015625 58.015625 12.203125 58.015625 Q 14.453125 58.015625 15.96875 56.453125 Q 17.484375 54.890625 17.484375 52.6875 Q 17.484375 50.53125 15.96875 48.96875 Q 14.453125 47.40625 12.203125 47.40625 Q 10.015625 47.40625 8.453125 48.96875 Q 6.890625 50.53125 6.890625 52.6875 Q 6.890625 56.984375 9.46875 60.15625 Q 12.0625 63.328125 16.140625 64.96875 Q 20.21875 66.609375 24.3125 66.609375 Q 27.34375 66.609375 30.703125 65.703125 Q 34.078125 64.796875 36.8125 63.109375 Q 39.546875 61.421875 41.28125 58.78125 Q 43.015625 56.15625 43.015625 52.78125 Q 43.015625 48.578125 41.140625 45.015625 Q 39.265625 41.453125 35.984375 38.859375 Q 32.71875 36.28125 28.8125 35.015625 Q 33.15625 34.1875 37.0625 31.734375 Q 40.96875 29.296875 43.328125 25.484375 Q 45.703125 21.6875 45.703125 17.28125 Q 45.703125 11.765625 42.671875 7.296875 Q 39.65625 2.828125 34.71875 0.3125 Q 29.78125 -2.203125 24.3125 -2.203125 Q 19.625 -2.203125 14.90625 -0.40625 Q 10.203125 1.375 7.203125 4.9375 Q 4.203125 8.5 4.203125 13.484375 Q 4.203125 15.96875 5.859375 17.625 Q 7.515625 19.28125 10.015625 19.28125 Q 11.625 19.28125 12.96875 18.53125 Q 14.3125 17.78125 15.0625 16.40625 Q 15.828125 15.046875 15.828125 13.484375 Q 15.828125 11.03125 14.109375 9.375 Q 12.40625 7.71875 10.015625 7.71875 z" id="x3-eq_Cmr10-33" stroke-linecap="butt" stroke-linejoin="round"></path></defs><g style="fill:#666666;" transform="translate(0 9.118125)scale(0.12 -0.12)"><use transform="translate(0 0.6875)" xlink:href="#x3-eq_Cmmi10-58"></use><use transform="translate(82.8125 -16.31875)scale(0.7)" xlink:href="#x3-eq_Cmr10-33"></use></g></g></g><g id="z1-eq_figure_1"><g id="z1-eq_patch_1"><path d="M 0 11.61375 L 13.2 11.61375 L 13.2 0 L 0 0 z" stroke-linecap="butt" stroke-linejoin="round" style="fill:none;"></path></g><g id="z1-eq_text_1"><!-- $Z_1$ --><defs><path d="M 5.8125 0.78125 Q 5.8125 2.25 6.5 3.078125 L 61.53125 64.796875 L 46.78125 64.796875 Q 39.453125 64.796875 34.640625 63.0625 Q 29.828125 61.328125 26.671875 57.296875 Q 23.53125 53.265625 21.390625 46.296875 Q 21.1875 45.40625 20.40625 45.40625 L 19.484375 45.40625 Q 18.5 45.40625 18.5 46.6875 L 24.8125 67.390625 Q 25 68.3125 25.78125 68.3125 L 71.390625 68.3125 Q 72.21875 68.3125 72.21875 67.484375 Q 72.21875 66.015625 71.578125 65.375 L 16.796875 3.8125 L 31.984375 3.8125 Q 40.828125 3.8125 45.875 5.984375 Q 50.921875 8.15625 53.875 12.84375 Q 56.84375 17.53125 59.625 26.21875 Q 59.71875 26.5625 59.984375 26.828125 Q 60.25 27.09375 60.59375 27.09375 L 61.53125 27.09375 Q 62.5 27.09375 62.5 25.78125 L 54.59375 0.875 Q 54.15625 0 53.609375 0 L 6.6875 0 Q 5.8125 0 5.8125 0.78125 z" id="z1-eq_Cmmi10-5a" stroke-linecap="butt" stroke-linejoin="round"></path><path d="M 9.28125 0 L 9.28125 3.515625 Q 21.78125 3.515625 21.78125 6.6875 L 21.78125 59.1875 Q 16.609375 56.6875 8.6875 56.6875 L 8.6875 60.203125 Q 20.953125 60.203125 27.203125 66.609375 L 28.609375 66.609375 Q 28.953125 66.609375 29.265625 66.328125 Q 29.59375 66.0625 29.59375 65.71875 L 29.59375 6.6875 Q 29.59375 3.515625 42.09375 3.515625 L 42.09375 0 z" id="z1-eq_Cmr10-31" stroke-linecap="butt" stroke-linejoin="round"></path></defs><g style="fill:#666666;" transform="translate(0 9.118125)scale(0.12 -0.12)"><use transform="translate(0 0.6875)" xlink:href="#z1-eq_Cmmi10-5a"></use><use transform="translate(68.212891 -16.31875)scale(0.7)" xlink:href="#z1-eq_Cmr10-31"></use></g></g></g><g id="z2-eq_figure_1"><g id="z2-eq_patch_1"><path d="M 0 11.61375 L 13.2 11.61375 L 13.2 0 L 0 0 z" stroke-linecap="butt" stroke-linejoin="round" style="fill:none;"></path></g><g id="z2-eq_text_1"><!-- $Z_2$ --><defs><path d="M 5.8125 0.78125 Q 5.8125 2.25 6.5 3.078125 L 61.53125 64.796875 L 46.78125 64.796875 Q 39.453125 64.796875 34.640625 63.0625 Q 29.828125 61.328125 26.671875 57.296875 Q 23.53125 53.265625 21.390625 46.296875 Q 21.1875 45.40625 20.40625 45.40625 L 19.484375 45.40625 Q 18.5 45.40625 18.5 46.6875 L 24.8125 67.390625 Q 25 68.3125 25.78125 68.3125 L 71.390625 68.3125 Q 72.21875 68.3125 72.21875 67.484375 Q 72.21875 66.015625 71.578125 65.375 L 16.796875 3.8125 L 31.984375 3.8125 Q 40.828125 3.8125 45.875 5.984375 Q 50.921875 8.15625 53.875 12.84375 Q 56.84375 17.53125 59.625 26.21875 Q 59.71875 26.5625 59.984375 26.828125 Q 60.25 27.09375 60.59375 27.09375 L 61.53125 27.09375 Q 62.5 27.09375 62.5 25.78125 L 54.59375 0.875 Q 54.15625 0 53.609375 0 L 6.6875 0 Q 5.8125 0 5.8125 0.78125 z" id="z2-eq_Cmmi10-5a" stroke-linecap="butt" stroke-linejoin="round"></path><path d="M 4.984375 0 L 4.984375 2.6875 Q 4.984375 2.9375 5.171875 3.21875 L 20.703125 20.40625 Q 24.21875 24.21875 26.40625 26.796875 Q 28.609375 29.390625 30.75 32.765625 Q 32.90625 36.140625 34.15625 39.625 Q 35.40625 43.109375 35.40625 47.015625 Q 35.40625 51.125 33.890625 54.859375 Q 32.375 58.59375 29.375 60.84375 Q 26.375 63.09375 22.125 63.09375 Q 17.78125 63.09375 14.3125 60.46875 Q 10.84375 57.859375 9.421875 53.71875 Q 9.8125 53.8125 10.5 53.8125 Q 12.75 53.8125 14.328125 52.296875 Q 15.921875 50.78125 15.921875 48.390625 Q 15.921875 46.09375 14.328125 44.5 Q 12.75 42.921875 10.5 42.921875 Q 8.15625 42.921875 6.5625 44.546875 Q 4.984375 46.1875 4.984375 48.390625 Q 4.984375 52.15625 6.390625 55.4375 Q 7.8125 58.734375 10.46875 61.296875 Q 13.140625 63.875 16.484375 65.234375 Q 19.828125 66.609375 23.578125 66.609375 Q 29.296875 66.609375 34.21875 64.1875 Q 39.15625 61.765625 42.03125 57.34375 Q 44.921875 52.9375 44.921875 47.015625 Q 44.921875 42.671875 43.015625 38.765625 Q 41.109375 34.859375 38.125 31.65625 Q 35.15625 28.46875 30.515625 24.40625 Q 25.875 20.359375 24.421875 19 L 13.09375 8.109375 L 22.703125 8.109375 Q 29.78125 8.109375 34.546875 8.21875 Q 39.3125 8.34375 39.59375 8.59375 Q 40.765625 9.859375 42 17.828125 L 44.921875 17.828125 L 42.09375 0 z" id="z2-eq_Cmr10-32" stroke-linecap="butt" stroke-linejoin="round"></path></defs><g style="fill:#666666;" transform="translate(0 9.118125)scale(0.12 -0.12)"><use transform="translate(0 0.6875)" xlink:href="#z2-eq_Cmmi10-5a"></use><use transform="translate(68.212891 -16.31875)scale(0.7)" xlink:href="#z2-eq_Cmr10-32"></use></g></g></g><g id="z3-eq_figure_1"><g id="z3-eq_patch_1"><path d="M 0 11.61375 L 13.2 11.61375 L 13.2 0 L 0 0 z" stroke-linecap="butt" stroke-linejoin="round" style="fill:none;"></path></g><g id="z3-eq_text_1"><!-- $Z_3$ --><defs><path d="M 5.8125 0.78125 Q 5.8125 2.25 6.5 3.078125 L 61.53125 64.796875 L 46.78125 64.796875 Q 39.453125 64.796875 34.640625 63.0625 Q 29.828125 61.328125 26.671875 57.296875 Q 23.53125 53.265625 21.390625 46.296875 Q 21.1875 45.40625 20.40625 45.40625 L 19.484375 45.40625 Q 18.5 45.40625 18.5 46.6875 L 24.8125 67.390625 Q 25 68.3125 25.78125 68.3125 L 71.390625 68.3125 Q 72.21875 68.3125 72.21875 67.484375 Q 72.21875 66.015625 71.578125 65.375 L 16.796875 3.8125 L 31.984375 3.8125 Q 40.828125 3.8125 45.875 5.984375 Q 50.921875 8.15625 53.875 12.84375 Q 56.84375 17.53125 59.625 26.21875 Q 59.71875 26.5625 59.984375 26.828125 Q 60.25 27.09375 60.59375 27.09375 L 61.53125 27.09375 Q 62.5 27.09375 62.5 25.78125 L 54.59375 0.875 Q 54.15625 0 53.609375 0 L 6.6875 0 Q 5.8125 0 5.8125 0.78125 z" id="z3-eq_Cmmi10-5a" stroke-linecap="butt" stroke-linejoin="round"></path><path d="M 9.515625 7.71875 Q 11.859375 4.296875 15.8125 2.640625 Q 19.78125 0.984375 24.3125 0.984375 Q 30.125 0.984375 32.5625 5.9375 Q 35.015625 10.890625 35.015625 17.1875 Q 35.015625 20.015625 34.5 22.84375 Q 33.984375 25.6875 32.765625 28.125 Q 31.546875 30.5625 29.421875 32.03125 Q 27.296875 33.5 24.21875 33.5 L 17.578125 33.5 Q 16.703125 33.5 16.703125 34.421875 L 16.703125 35.296875 Q 16.703125 36.078125 17.578125 36.078125 L 23.09375 36.53125 Q 26.609375 36.53125 28.921875 39.15625 Q 31.25 41.796875 32.328125 45.578125 Q 33.40625 49.359375 33.40625 52.78125 Q 33.40625 57.5625 31.15625 60.640625 Q 28.90625 63.71875 24.3125 63.71875 Q 20.515625 63.71875 17.046875 62.28125 Q 13.578125 60.84375 11.53125 57.90625 Q 11.71875 57.953125 11.859375 57.984375 Q 12.015625 58.015625 12.203125 58.015625 Q 14.453125 58.015625 15.96875 56.453125 Q 17.484375 54.890625 17.484375 52.6875 Q 17.484375 50.53125 15.96875 48.96875 Q 14.453125 47.40625 12.203125 47.40625 Q 10.015625 47.40625 8.453125 48.96875 Q 6.890625 50.53125 6.890625 52.6875 Q 6.890625 56.984375 9.46875 60.15625 Q 12.0625 63.328125 16.140625 64.96875 Q 20.21875 66.609375 24.3125 66.609375 Q 27.34375 66.609375 30.703125 65.703125 Q 34.078125 64.796875 36.8125 63.109375 Q 39.546875 61.421875 41.28125 58.78125 Q 43.015625 56.15625 43.015625 52.78125 Q 43.015625 48.578125 41.140625 45.015625 Q 39.265625 41.453125 35.984375 38.859375 Q 32.71875 36.28125 28.8125 35.015625 Q 33.15625 34.1875 37.0625 31.734375 Q 40.96875 29.296875 43.328125 25.484375 Q 45.703125 21.6875 45.703125 17.28125 Q 45.703125 11.765625 42.671875 7.296875 Q 39.65625 2.828125 34.71875 0.3125 Q 29.78125 -2.203125 24.3125 -2.203125 Q 19.625 -2.203125 14.90625 -0.40625 Q 10.203125 1.375 7.203125 4.9375 Q 4.203125 8.5 4.203125 13.484375 Q 4.203125 15.96875 5.859375 17.625 Q 7.515625 19.28125 10.015625 19.28125 Q 11.625 19.28125 12.96875 18.53125 Q 14.3125 17.78125 15.0625 16.40625 Q 15.828125 15.046875 15.828125 13.484375 Q 15.828125 11.03125 14.109375 9.375 Q 12.40625 7.71875 10.015625 7.71875 z" id="z3-eq_Cmr10-33" stroke-linecap="butt" stroke-linejoin="round"></path></defs><g style="fill:#666666;" transform="translate(0 9.118125)scale(0.12 -0.12)"><use transform="translate(0 0.6875)" xlink:href="#z3-eq_Cmmi10-5a"></use><use transform="translate(68.212891 -16.31875)scale(0.7)" xlink:href="#z3-eq_Cmr10-33"></use></g></g></g><g id="z4-eq_figure_1"><g id="z4-eq_patch_1"><path d="M 0 11.61375 L 13.2 11.61375 L 13.2 0 L 0 0 z" stroke-linecap="butt" stroke-linejoin="round" style="fill:none;"></path></g><g id="z4-eq_text_1"><!-- $Z_4$ --><defs><path d="M 5.8125 0.78125 Q 5.8125 2.25 6.5 3.078125 L 61.53125 64.796875 L 46.78125 64.796875 Q 39.453125 64.796875 34.640625 63.0625 Q 29.828125 61.328125 26.671875 57.296875 Q 23.53125 53.265625 21.390625 46.296875 Q 21.1875 45.40625 20.40625 45.40625 L 19.484375 45.40625 Q 18.5 45.40625 18.5 46.6875 L 24.8125 67.390625 Q 25 68.3125 25.78125 68.3125 L 71.390625 68.3125 Q 72.21875 68.3125 72.21875 67.484375 Q 72.21875 66.015625 71.578125 65.375 L 16.796875 3.8125 L 31.984375 3.8125 Q 40.828125 3.8125 45.875 5.984375 Q 50.921875 8.15625 53.875 12.84375 Q 56.84375 17.53125 59.625 26.21875 Q 59.71875 26.5625 59.984375 26.828125 Q 60.25 27.09375 60.59375 27.09375 L 61.53125 27.09375 Q 62.5 27.09375 62.5 25.78125 L 54.59375 0.875 Q 54.15625 0 53.609375 0 L 6.6875 0 Q 5.8125 0 5.8125 0.78125 z" id="z4-eq_Cmmi10-5a" stroke-linecap="butt" stroke-linejoin="round"></path><path d="M 2.78125 16.5 L 2.78125 20.015625 L 33.6875 66.109375 Q 34.03125 66.609375 34.71875 66.609375 L 36.1875 66.609375 Q 37.3125 66.609375 37.3125 65.484375 L 37.3125 20.015625 L 47.125 20.015625 L 47.125 16.5 L 37.3125 16.5 L 37.3125 6.6875 Q 37.3125 4.640625 40.234375 4.078125 Q 43.171875 3.515625 47.015625 3.515625 L 47.015625 0 L 19.484375 0 L 19.484375 3.515625 Q 23.34375 3.515625 26.265625 4.078125 Q 29.203125 4.640625 29.203125 6.6875 L 29.203125 16.5 zM 6.109375 20.015625 L 29.78125 20.015625 L 29.78125 55.421875 z" id="z4-eq_Cmr10-34" stroke-linecap="butt" stroke-linejoin="round"></path></defs><g style="fill:#666666;" transform="translate(0 9.118125)scale(0.12 -0.12)"><use transform="translate(0 0.6875)" xlink:href="#z4-eq_Cmmi10-5a"></use><use transform="translate(68.212891 -16.31875)scale(0.7)" xlink:href="#z4-eq_Cmr10-34"></use></g></g></g></defs><line fill="none" id="path-0-0" opacity="1" stroke="#666666" stroke-linecap="round" stroke-linejoin="round" stroke-width="0.05" x1="1.5" x2="0.5" y1="1" y2="2"></line><line fill="none" id="path-0-1" opacity="1" stroke="#666666" stroke-linecap="round" stroke-linejoin="round" stroke-width="0.05" x1="1.5" x2="2.5" y1="1" y2="2"></line><line fill="none" id="path-0-2" opacity="1" stroke="#666666" stroke-linecap="round" stroke-linejoin="round" stroke-width="0.05" x1="1.5" x2="4.5" y1="1" y2="2"></line><line fill="none" id="path-0-3" opacity="1" stroke="#666666" stroke-linecap="round" stroke-linejoin="round" stroke-width="0.05" x1="1.5" x2="6.5" y1="1" y2="2"></line><line fill="none" id="path-1-0" opacity="1" stroke="#666666" stroke-linecap="round" stroke-linejoin="round" stroke-width="0.05" x1="3.5" x2="0.5" y1="1" y2="2"></line><line fill="none" id="path-1-1" opacity="1" stroke="#666666" stroke-linecap="round" stroke-linejoin="round" stroke-width="0.05" x1="3.5" x2="2.5" y1="1" y2="2"></line><line fill="none" id="path-1-2" opacity="1" stroke="#666666" stroke-linecap="round" stroke-linejoin="round" stroke-width="0.05" x1="3.5" x2="4.5" y1="1" y2="2"></line><line fill="none" id="path-1-3" opacity="1" stroke="#666666" stroke-linecap="round" stroke-linejoin="round" stroke-width="0.05" x1="3.5" x2="6.5" y1="1" y2="2"></line><line fill="none" id="path-2-0" opacity="1" stroke="#666666" stroke-linecap="round" stroke-linejoin="round" stroke-width="0.05" x1="5.5" x2="0.5" y1="1" y2="2"></line><line fill="none" id="path-2-1" opacity="1" stroke="#666666" stroke-linecap="round" stroke-linejoin="round" stroke-width="0.05" x1="5.5" x2="2.5" y1="1" y2="2"></line><line fill="none" id="path-2-2" opacity="1" stroke="#666666" stroke-linecap="round" stroke-linejoin="round" stroke-width="0.05" x1="5.5" x2="4.5" y1="1" y2="2"></line><line fill="none" id="path-2-3" opacity="1" stroke="#666666" stroke-linecap="round" stroke-linejoin="round" stroke-width="0.05" x1="5.5" x2="6.5" y1="1" y2="2"></line><use id="x1-eq" opacity="1" transform="scale(0.0357)" x="35" xlink:href="#x1-eq_figure_1" y="8.5"></use><use id="x2-eq" opacity="1" transform="scale(0.0357)" x="91" xlink:href="#x2-eq_figure_1" y="8.5"></use><use id="x3-eq" opacity="1" transform="scale(0.0357)" x="147" xlink:href="#x3-eq_figure_1" y="8.5"></use><use id="z1-eq" opacity="1" transform="scale(0.0357)" x="7.5" xlink:href="#z1-eq_figure_1" y="64.5"></use><use id="z2-eq" opacity="1" transform="scale(0.0357)" x="63.5" xlink:href="#z2-eq_figure_1" y="64.5"></use><use id="z3-eq" opacity="1" transform="scale(0.0357)" x="119.5" xlink:href="#z3-eq_figure_1" y="64.5"></use><use id="z4-eq" opacity="1" transform="scale(0.0357)" x="175.5" xlink:href="#z4-eq_figure_1" y="64.5"></use><rect fill="#666666" fill-opacity="0" height="1" id="node-x1" opacity="1" rx="0.5" stroke="#666666" stroke-linecap="round" stroke-linejoin="round" stroke-width="0.05" transform="rotate(45)" width="1" x="0.9142135623730951" y="-1.2071067811865475"></rect><rect fill="#666666" fill-opacity="0" height="1" id="node-x2" opacity="1" rx="0.5" stroke="#666666" stroke-linecap="round" stroke-linejoin="round" stroke-width="0.05" transform="rotate(45)" width="1" x="2.32842712474619" y="-2.621320343559642"></rect><rect fill="#666666" fill-opacity="0" height="1" id="node-x3" opacity="1" rx="0.5" stroke="#666666" stroke-linecap="round" stroke-linejoin="round" stroke-width="0.05" transform="rotate(45)" width="1" x="3.7426406871192857" y="-4.035533905932737"></rect><rect fill="#666666" fill-opacity="0" height="1" id="node-z1" opacity="1" rx="0.5" stroke="#666666" stroke-linecap="round" stroke-linejoin="round" stroke-width="0.05" transform="rotate(45)" width="1" x="1.6213203435596424" y="0.9142135623730951"></rect><rect fill="#666666" fill-opacity="0" height="1" id="node-z2" opacity="1" rx="0.5" stroke="#666666" stroke-linecap="round" stroke-linejoin="round" stroke-width="0.05" transform="rotate(45)" width="1" x="3.0355339059327378" y="-0.4999999999999998"></rect><rect fill="#666666" fill-opacity="0" height="1" id="node-z3" opacity="1" rx="0.5" stroke="#666666" stroke-linecap="round" stroke-linejoin="round" stroke-width="0.05" transform="rotate(45)" width="1" x="4.449747468305833" y="-1.914213562373095"></rect><!--made by Laurent Dinh--><rect fill="#666666" fill-opacity="0" height="1" id="node-z4" opacity="1" rx="0.5" stroke="#666666" stroke-linecap="round" stroke-linejoin="round" stroke-width="0.05" transform="rotate(45)" width="1" x="5.8639610306789285" y="-3.32842712474619"></rect></svg>