<svg height="100pt" id="arm" version="2.0" viewBox="-0.5 -0.5 4 2" width="200pt" xmlns="http://www.w3.org/2000/svg" xmlns:xlink="http://www.w3.org/1999/xlink"><defs><marker id="arrowhead" markerHeight="3" markerUnits="strokeWidth" markerWidth="3" orient="auto" refX="3" refY="1.5"><polygon fill="#666666" id="arrowshape" points="0 0, 3 1.5, 0 3" stroke="#666666" stroke-width="0.05"></polygon></marker><marker id="inv-arrowhead" markerHeight="3" markerUnits="strokeWidth" markerWidth="3" orient="auto" refX="0" refY="1.5"><polygon fill="#666666" id="inv-arrowshape" points="3 0, 0 1.5, 3 3" stroke="#666666" stroke-width="0.05"></polygon></marker><g id="z-eq_figure_1"><g id="z-eq_patch_1"><path d="M 0 11.61375 L 8.28 11.61375 L 8.28 0 L 0 0 z" stroke-linecap="butt" stroke-linejoin="round" style="fill:none;"></path></g><g id="z-eq_text_1"><!-- $Z$ --><defs><path d="M 5.8125 0.78125 Q 5.8125 2.25 6.5 3.078125 L 61.53125 64.796875 L 46.78125 64.796875 Q 39.453125 64.796875 34.640625 63.0625 Q 29.828125 61.328125 26.671875 57.296875 Q 23.53125 53.265625 21.390625 46.296875 Q 21.1875 45.40625 20.40625 45.40625 L 19.484375 45.40625 Q 18.5 45.40625 18.5 46.6875 L 24.8125 67.390625 Q 25 68.3125 25.78125 68.3125 L 71.390625 68.3125 Q 72.21875 68.3125 72.21875 67.484375 Q 72.21875 66.015625 71.578125 65.375 L 16.796875 3.8125 L 31.984375 3.8125 Q 40.828125 3.8125 45.875 5.984375 Q 50.921875 8.15625 53.875 12.84375 Q 56.84375 17.53125 59.625 26.21875 Q 59.71875 26.5625 59.984375 26.828125 Q 60.25 27.09375 60.59375 27.09375 L 61.53125 27.09375 Q 62.5 27.09375 62.5 25.78125 L 54.59375 0.875 Q 54.15625 0 53.609375 0 L 6.6875 0 Q 5.8125 0 5.8125 0.78125 z" id="z-eq_Cmmi10-5a" stroke-linecap="butt" stroke-linejoin="round"></path></defs><g style="fill:#666666;" transform="translate(0 9.118125)scale(0.12 -0.12)"><use transform="translate(0 0.6875)" xlink:href="#z-eq_Cmmi10-5a"></use></g></g></g><g id="x-eq_figure_1"><g id="x-eq_patch_1"><path d="M 0 11.61375 L 9.96 11.61375 L 9.96 0 L 0 0 z" stroke-linecap="butt" stroke-linejoin="round" style="fill:none;"></path></g><g id="x-eq_text_1"><!-- $X$ --><defs><path d="M 3.609375 0 Q 2.59375 0 2.59375 1.3125 Q 2.640625 1.5625 2.8125 2.1875 Q 2.984375 2.828125 3.25 3.171875 Q 3.515625 3.515625 4 3.515625 Q 13.09375 3.515625 19.578125 10.296875 Q 19.671875 10.40625 19.796875 10.453125 Q 19.921875 10.5 19.921875 10.5 L 41.796875 34.078125 L 29.890625 62.796875 Q 28.859375 64.109375 26.5625 64.453125 Q 24.265625 64.796875 21.1875 64.796875 Q 20.21875 64.796875 20.21875 66.109375 Q 20.5625 67.390625 20.75 67.84375 Q 20.953125 68.3125 21.921875 68.3125 L 46.921875 68.3125 Q 47.90625 68.3125 47.90625 67 Q 47.859375 66.75 47.6875 66.109375 Q 47.515625 65.484375 47.234375 65.140625 Q 46.96875 64.796875 46.484375 64.796875 Q 44.625 64.796875 42.640625 64.1875 Q 40.671875 63.578125 39.890625 62.203125 L 48.484375 41.5 L 64.890625 59.078125 Q 65.046875 59.421875 65.578125 60.28125 Q 66.109375 61.140625 66.109375 61.921875 Q 66.109375 63.375 64.84375 64.078125 Q 63.578125 64.796875 61.8125 64.796875 Q 60.796875 64.796875 60.796875 66.109375 Q 61.140625 67.390625 61.328125 67.84375 Q 61.53125 68.3125 62.5 68.3125 L 84.1875 68.3125 Q 84.71875 68.3125 84.953125 67.921875 Q 85.203125 67.53125 85.203125 67 Q 85.15625 66.75 85 66.15625 Q 84.859375 65.578125 84.609375 65.1875 Q 84.375 64.796875 83.890625 64.796875 Q 79.25 64.796875 75.359375 63.109375 Q 71.484375 61.421875 68.21875 58.015625 Q 68.171875 57.953125 68.09375 57.921875 Q 68.015625 57.90625 67.921875 57.8125 L 49.8125 38.28125 L 63.484375 5.515625 Q 65.09375 3.515625 72.21875 3.515625 Q 73.1875 3.515625 73.1875 2.203125 Q 72.859375 0.875 72.625 0.4375 Q 72.40625 0 71.484375 0 L 46.484375 0 Q 45.515625 0 45.515625 1.3125 Q 45.5625 1.5625 45.703125 2.171875 Q 45.84375 2.78125 46.109375 3.140625 Q 46.390625 3.515625 46.78125 3.515625 Q 48.734375 3.515625 50.734375 4.125 Q 52.734375 4.734375 53.515625 6.109375 L 43.109375 31 L 22.90625 9.1875 Q 22.75 8.84375 22.21875 8 Q 21.6875 7.171875 21.6875 6.390625 Q 21.6875 4.9375 23.046875 4.21875 Q 24.421875 3.515625 25.984375 3.515625 Q 27 3.515625 27 2.203125 Q 26.65625 0.78125 26.453125 0.390625 Q 26.265625 0 25.296875 0 z" id="x-eq_Cmmi10-58" stroke-linecap="butt" stroke-linejoin="round"></path></defs><g style="fill:#666666;" transform="translate(0 9.118125)scale(0.12 -0.12)"><use transform="translate(0 0.6875)" xlink:href="#x-eq_Cmmi10-58"></use></g></g></g></defs><line fill="none" id="path-decode" marker-end="url(#arrowhead)" opacity="1" stroke="#666666" stroke-linecap="round" stroke-linejoin="round" stroke-width="0.05" x1="1" x2="2" y1="0.5" y2="0.5"></line><line fill="none" id="path-encode" marker-end="url(#arrowhead)" opacity="1" stroke="#666666" stroke-dasharray="0.1" stroke-dashoffset="0" stroke-linecap="round" stroke-linejoin="round" stroke-width="0.05" x1="2.067" x2="0.933" y1="0.25" y2="0.25"></line><use id="z-eq" opacity="1" transform="scale(0.0357)" x="10" xlink:href="#z-eq_figure_1" y="8.5"></use><use id="x-eq" opacity="1" transform="scale(0.0357)" x="65.5" xlink:href="#x-eq_figure_1" y="8.5"></use><rect fill="#666666" fill-opacity="0" height="1" id="node-z" opacity="1" rx="0.5" stroke="#666666" stroke-width="0.05" transform="rotate(45)" width="1" x="0.20710678118654752" y="-0.5"></rect><!--made by Laurent Dinh--><rect fill="#666666" fill-opacity="0" height="1" id="node-x" opacity="1" rx="0.5" stroke="#666666" stroke-width="0.05" transform="rotate(45)" width="1" x="1.6213203435596426" y="-1.914213562373095"></rect></svg>